<?xml version="1.0" encoding="iso-8859-1"?>
<!-- Generator: Adobe Illustrator 18.0.0, SVG Export Plug-In . SVG Version: 6.00 Build 0)  -->
<!DOCTYPE svg PUBLIC "-//W3C//DTD SVG 1.1//EN" "http://www.w3.org/Graphics/SVG/1.1/DTD/svg11.dtd">
<svg version="1.1" id="Capa_1" xmlns="http://www.w3.org/2000/svg" xmlns:xlink="http://www.w3.org/1999/xlink" x="0px" y="0px"
	 viewBox="0 0 123.898 123.898" style="enable-background:new 0 0 123.898 123.898;" xml:space="preserve">
<g>
	<path style="fill:#F58225;" d="M86.174,38.545c-12.472,0-22.677,9.029-22.677,20.066v27.118c0,11.037,10.205,20.067,22.677,20.067
		c12.474,0,22.678-9.03,22.678-20.067V58.611C108.852,47.574,98.648,38.545,86.174,38.545z M98.649,81.738
		c0,7.788-5.972,14.161-13.271,14.161c-7.298,0-13.27-6.373-13.27-14.161V62.603c0-7.788,5.972-14.16,13.27-14.16
		c7.3,0,13.271,6.372,13.271,14.16V81.738z"/>
	<rect x="23.085" y="24.918" style="fill:#FAA522;" width="63.09" height="89.625"/>
	<path style="fill:#FAA522;" d="M26.033,123.898h57.194c1.628,0,2.948-1.32,2.948-2.948V32.747c0-1.629-1.32-2.948-2.948-2.948
		H26.033c-1.628,0-2.947,1.319-2.947,2.948v88.203C23.085,122.578,24.405,123.898,26.033,123.898z"/>
	<g>
		<path style="fill:#F58225;" d="M54.63,40.985c-4.523,0-8.225,3.7-8.225,8.223v45.925c0,4.523,3.701,8.224,8.225,8.224
			c4.523,0,8.223-3.7,8.223-8.224V49.208C62.853,44.686,59.153,40.985,54.63,40.985z"/>
		<path style="fill:#F58225;" d="M35.329,40.985H33.43c-2.759,0-5.017,2.257-5.017,5.017V98.34c0,2.76,2.258,5.017,5.017,5.017
			h1.899c2.759,0,5.017-2.257,5.017-5.017V46.002C40.345,43.242,38.087,40.985,35.329,40.985z"/>
		<path style="fill:#F58225;" d="M76.412,40.985h-1.897c-2.76,0-5.017,2.257-5.017,5.017V98.34c0,2.76,2.257,5.017,5.017,5.017
			h1.897c2.76,0,5.018-2.257,5.018-5.017V46.002C81.429,43.242,79.171,40.985,76.412,40.985z"/>
	</g>
	<path style="fill:#FFF8A5;" d="M92.955,18.681c0-2.097-1.7-3.797-3.797-3.797c-0.031,0-0.058,0.018-0.09,0.019
		c0.034-0.296,0.09-0.585,0.09-0.89c0-4.268-3.46-7.728-7.729-7.728c-2.038,0-3.877,0.805-5.258,2.093
		c-1.725-1.682-4.075-2.726-6.674-2.726c-1.655,0-3.188,0.459-4.547,1.199c-1.662-1.433-3.8-2.329-6.165-2.329
		c-1.994,0-3.841,0.621-5.368,1.672C50.901,2.458,46.632,0,41.789,0c-5.187,0-9.664,2.851-12.088,7.04
		c-0.068-0.001-0.133-0.021-0.202-0.021c-5.242,0-9.491,4.25-9.491,9.491c0,0.327,0.064,0.636,0.096,0.954
		c-2.96,1.186-5.057,4.069-5.057,7.453c0,4.439,3.599,8.038,8.038,8.038c0.974,0,1.895-0.199,2.759-0.517
		c2.278,2.991,5.842,4.952,9.892,4.952c4.634,0,8.632-2.557,10.782-6.308c0.543,0.148,1.104,0.254,1.692,0.254
		c1.966,0,3.703-0.902,4.882-2.294c1.281,1.765,3.346,2.925,5.694,2.925c2.626,0,4.889-1.452,6.103-3.581
		c0.309,0.085,0.611,0.191,0.948,0.191c1.143,0,2.123-0.556,2.795-1.377c1,3.524,4.206,6.122,8.053,6.122
		c2.398,0,4.549-1.017,6.081-2.628c0.719,0.29,1.501,0.458,2.325,0.458c3.444,0,6.237-2.792,6.237-6.236
		c0-0.995-0.254-1.922-0.668-2.756C92.007,21.58,92.955,20.242,92.955,18.681z"/>
	<path style="fill:#F9CC79;" d="M91.628,15.851c-0.291,0.249-0.613,0.462-0.969,0.616c0.414,0.834,0.668,1.761,0.668,2.755
		c0,3.444-2.793,6.237-6.237,6.237c-0.824,0-1.606-0.168-2.325-0.458c-1.532,1.611-3.683,2.627-6.081,2.627
		c-3.847,0-7.053-2.597-8.053-6.122c-0.672,0.821-1.652,1.378-2.795,1.378c-0.337,0-0.64-0.107-0.948-0.192
		c-1.214,2.129-3.477,3.581-6.103,3.581c-2.349,0-4.413-1.16-5.694-2.925c-1.179,1.392-2.916,2.295-4.882,2.295
		c-0.589,0-1.149-0.105-1.692-0.255c-2.15,3.752-6.149,6.309-10.782,6.309c-4.05,0-7.613-1.961-9.892-4.952
		c-0.864,0.317-1.785,0.517-2.759,0.517c-3.434,0-6.342-2.163-7.494-5.192c-0.339,0.888-0.544,1.841-0.544,2.849
		c0,4.439,3.599,8.038,8.038,8.038c0.974,0,1.895-0.199,2.759-0.517c2.278,2.991,5.842,4.952,9.892,4.952
		c4.634,0,8.632-2.557,10.782-6.308c0.543,0.148,1.104,0.254,1.692,0.254c1.966,0,3.703-0.902,4.882-2.294
		c1.281,1.765,3.346,2.925,5.694,2.925c2.626,0,4.889-1.452,6.103-3.581c0.309,0.085,0.611,0.191,0.948,0.191
		c1.143,0,2.123-0.556,2.795-1.377c1,3.524,4.206,6.122,8.053,6.122c2.398,0,4.549-1.017,6.081-2.628
		c0.719,0.29,1.501,0.458,2.325,0.458c3.444,0,6.237-2.792,6.237-6.236c0-0.995-0.254-1.922-0.668-2.756
		c1.348-0.582,2.295-1.92,2.295-3.482C92.955,17.539,92.425,16.548,91.628,15.851z"/>
</g>
<g>
</g>
<g>
</g>
<g>
</g>
<g>
</g>
<g>
</g>
<g>
</g>
<g>
</g>
<g>
</g>
<g>
</g>
<g>
</g>
<g>
</g>
<g>
</g>
<g>
</g>
<g>
</g>
<g>
</g>
</svg>
