<?xml version="1.0" encoding="iso-8859-1"?>
<!-- Generator: Adobe Illustrator 18.0.0, SVG Export Plug-In . SVG Version: 6.00 Build 0)  -->
<!DOCTYPE svg PUBLIC "-//W3C//DTD SVG 1.1//EN" "http://www.w3.org/Graphics/SVG/1.1/DTD/svg11.dtd">
<svg version="1.1" id="Capa_1" xmlns="http://www.w3.org/2000/svg" xmlns:xlink="http://www.w3.org/1999/xlink" x="0px" y="0px"
	 viewBox="0 0 340.25 340.25" style="enable-background:new 0 0 340.25 340.25;" xml:space="preserve">
<g>
	<rect x="0" y="0" style="fill:#25997A;" width="340.25" height="340.25"/>
	<g>
		<g>
			<g>
				<g>
					<rect x="0" y="8.117" style="fill:#39B793;" width="340.25" height="85.004"/>
					<g>
						<rect x="0" y="79.363" style="fill:#199E72;" width="340.25" height="7.924"/>
						<rect x="0" y="14.576" style="fill:#199E72;" width="340.25" height="7.923"/>
					</g>
				</g>
				<g>
					<g>
						<path style="fill:#5DD1AD;" d="M255.963,34.401v-6.338h-84.84h-2.906H83.378v6.338c0,0-19.905,13.814,0,31.69v7.129h84.839
							h2.906h84.84v-7.129C275.869,48.216,255.963,34.401,255.963,34.401z"/>
						<g>
							<path style="fill:#1B6D54;" d="M110.96,62.788v-24.71h5.577c1.471,0,2.798,0.388,3.98,1.163
								c1.011,0.657,1.734,1.675,2.167,3.054c0.236,0.736,0.354,1.609,0.354,2.621c0,1.655-0.44,2.982-1.32,3.98
								c-0.368,0.421-0.801,0.742-1.3,0.966c0.828,0.315,1.53,0.939,2.108,1.872c0.381,0.631,0.663,1.445,0.847,2.444
								c0.092,0.512,0.138,1.083,0.138,1.714c0,1.563-0.296,2.891-0.887,3.98c-0.46,0.854-1.11,1.537-1.951,2.049
								c-0.946,0.579-1.885,0.867-2.818,0.867H110.96z M114.98,48.167h1.557c1.156,0,1.931-0.564,2.325-1.695
								c0.145-0.42,0.217-0.939,0.217-1.557c0-1.024-0.25-1.799-0.749-2.325c-0.46-0.486-1.058-0.729-1.793-0.729h-1.557V48.167z
								 M114.98,59.103h1.557c1.261,0,2.134-0.65,2.621-1.951c0.17-0.446,0.256-0.958,0.256-1.537c0-1.379-0.263-2.385-0.788-3.015
								c-0.473-0.578-1.169-0.867-2.089-0.867h-1.557V59.103z"/>
							<path style="fill:#1B6D54;" d="M132.576,37.783c1.642,0,3.038,0.578,4.188,1.734c1.149,1.156,1.724,2.549,1.724,4.177v13.479
								c0,1.642-0.578,3.038-1.734,4.187c-1.156,1.15-2.549,1.724-4.178,1.724c-1.642,0-3.034-0.578-4.177-1.734
								c-1.143-1.156-1.714-2.548-1.714-4.177V43.694c0-1.642,0.578-3.038,1.734-4.187C129.574,38.357,130.96,37.783,132.576,37.783
								z M134.605,43.615c0-0.591-0.207-1.094-0.621-1.507c-0.414-0.414-0.917-0.621-1.507-0.621c-0.591,0-1.097,0.207-1.518,0.621
								c-0.42,0.414-0.63,0.916-0.63,1.507v13.518c0,0.591,0.21,1.094,0.63,1.507c0.42,0.414,0.926,0.621,1.518,0.621
								c0.591,0,1.093-0.207,1.507-0.621c0.414-0.414,0.621-0.916,0.621-1.507V43.615z"/>
							<path style="fill:#1B6D54;" d="M147.59,37.783c1.642,0,3.038,0.578,4.188,1.734c1.149,1.156,1.724,2.549,1.724,4.177v13.479
								c0,1.642-0.578,3.038-1.734,4.187c-1.156,1.15-2.549,1.724-4.178,1.724c-1.642,0-3.034-0.578-4.177-1.734
								c-1.143-1.156-1.714-2.548-1.714-4.177V43.694c0-1.642,0.578-3.038,1.734-4.187C144.589,38.357,145.975,37.783,147.59,37.783
								z M149.62,43.615c0-0.591-0.207-1.094-0.621-1.507c-0.414-0.414-0.917-0.621-1.507-0.621c-0.591,0-1.097,0.207-1.518,0.621
								c-0.42,0.414-0.63,0.916-0.63,1.507v13.518c0,0.591,0.21,1.094,0.63,1.507c0.42,0.414,0.926,0.621,1.518,0.621
								c0.591,0,1.093-0.207,1.507-0.621c0.414-0.414,0.621-0.916,0.621-1.507V43.615z"/>
							<path style="fill:#1B6D54;" d="M160.497,54.956v7.833h-3.724v-24.71h3.724v8.808l4.552-8.808h3.97l-5.098,10.079
								l5.978,14.631h-4.378l-3.91-10.032L160.497,54.956z"/>
							<path style="fill:#1B6D54;" d="M183.256,56.64c0.026,1.721-0.42,3.192-1.34,4.414c-0.604,0.828-1.458,1.412-2.562,1.753
								c-0.591,0.184-1.281,0.276-2.069,0.276c-1.458,0-2.667-0.361-3.626-1.083c-0.801-0.591-1.435-1.396-1.901-2.414
								c-0.466-1.018-0.739-2.184-0.818-3.498l3.547-0.256c0.158,1.439,0.539,2.483,1.143,3.129c0.446,0.489,0.958,0.72,1.537,0.693
								c0.814-0.026,1.464-0.427,1.951-1.203c0.25-0.381,0.375-0.927,0.375-1.637c0-1.025-0.467-2.044-1.399-3.057
								c-0.736-0.697-1.839-1.742-3.311-3.136c-1.235-1.196-2.108-2.268-2.621-3.215c-0.552-1.065-0.828-2.222-0.828-3.471
								c0-2.248,0.755-3.951,2.266-5.108c0.933-0.697,2.089-1.045,3.468-1.045c1.327,0,2.463,0.295,3.409,0.887
								c0.736,0.46,1.33,1.103,1.783,1.931c0.454,0.828,0.726,1.78,0.818,2.857l-3.566,0.65c-0.105-1.012-0.394-1.8-0.867-2.365
								c-0.342-0.407-0.834-0.611-1.478-0.611c-0.684,0-1.202,0.302-1.557,0.906c-0.289,0.486-0.433,1.091-0.433,1.813
								c0,1.13,0.486,2.279,1.458,3.448c0.368,0.447,0.919,0.973,1.655,1.577c0.867,0.723,1.438,1.229,1.714,1.517
								c0.919,0.92,1.628,1.826,2.128,2.719c0.236,0.421,0.427,0.808,0.572,1.163C183.059,55.156,183.243,55.944,183.256,56.64z"/>
							<path style="fill:#1B6D54;" d="M190.073,52.325v10.463h-3.724v-24.69h3.724v10.483h4.493V38.098h3.725v24.69h-3.725V52.325
								H190.073z"/>
							<path style="fill:#1B6D54;" d="M207.472,37.783c1.642,0,3.038,0.578,4.188,1.734c1.149,1.156,1.724,2.549,1.724,4.177v13.479
								c0,1.642-0.578,3.038-1.734,4.187c-1.156,1.15-2.549,1.724-4.178,1.724c-1.642,0-3.034-0.578-4.177-1.734
								c-1.143-1.156-1.714-2.548-1.714-4.177V43.694c0-1.642,0.578-3.038,1.734-4.187
								C204.471,38.357,205.856,37.783,207.472,37.783z M209.502,43.615c0-0.591-0.207-1.094-0.621-1.507
								c-0.414-0.414-0.917-0.621-1.507-0.621c-0.591,0-1.097,0.207-1.518,0.621c-0.42,0.414-0.63,0.916-0.63,1.507v13.518
								c0,0.591,0.21,1.094,0.63,1.507c0.42,0.414,0.926,0.621,1.518,0.621c0.591,0,1.093-0.207,1.507-0.621
								c0.414-0.414,0.621-0.916,0.621-1.507V43.615z"/>
							<path style="fill:#1B6D54;" d="M222.546,38.098c1.813,0,3.258,0.572,4.335,1.714c0.999,1.091,1.498,2.483,1.498,4.178v3.586
								c0,1.629-0.568,3.022-1.704,4.178c-1.137,1.156-2.513,1.734-4.128,1.734h-2.148v9.301h-3.724v-24.69H222.546z
								 M224.773,44.049c0-0.644-0.194-1.163-0.581-1.557c-0.388-0.395-0.903-0.591-1.547-0.591h-2.247v7.902h2.247
								c0.591,0,1.094-0.21,1.507-0.631c0.414-0.42,0.621-0.926,0.621-1.517V44.049z"/>
						</g>
					</g>
					<g>
						<circle style="fill:#1B6D54;" cx="96.92" cy="50.643" r="3.731"/>
						<circle style="fill:#1B6D54;" cx="242.422" cy="50.643" r="3.73"/>
					</g>
				</g>
			</g>
			<g>
				<path style="fill:#199E72;" d="M34.242,38.839c0,2.463-2.015,4.477-4.477,4.477h-9.514c-2.463,0-4.478-2.015-4.478-4.477v-0.745
					c0-2.463,2.015-4.478,4.478-4.478h9.514c2.462,0,4.477,2.015,4.477,4.478V38.839z"/>
				<path style="fill:#199E72;" d="M24.169,50.032c0,2.462-2.015,4.477-4.477,4.477h-9.514c-2.463,0-4.477-2.015-4.477-4.477v-0.747
					c0-2.462,2.015-4.477,4.477-4.477h9.514c2.462,0,4.477,2.015,4.477,4.477V50.032z"/>
				<path style="fill:#199E72;" d="M44.315,50.032c0,2.462-2.015,4.477-4.477,4.477h-9.514c-2.462,0-4.477-2.015-4.477-4.477v-0.747
					c0-2.462,2.015-4.477,4.477-4.477h9.514c2.463,0,4.477,2.015,4.477,4.477V50.032z"/>
				<path style="fill:#199E72;" d="M34.242,61.224c0,2.463-2.015,4.478-4.477,4.478h-9.514c-2.463,0-4.478-2.015-4.478-4.478v-0.745
					c0-2.463,2.015-4.478,4.478-4.478h9.514c2.462,0,4.477,2.015,4.477,4.478V61.224z"/>
				<path style="fill:#199E72;" d="M54.389,61.224c0,2.463-2.015,4.478-4.478,4.478h-9.513c-2.463,0-4.478-2.015-4.478-4.478v-0.745
					c0-2.463,2.015-4.478,4.478-4.478h9.513c2.463,0,4.478,2.015,4.478,4.478V61.224z"/>
			</g>
			<g>
				<path style="fill:#199E72;" d="M300.436,44.436c0,2.463,2.015,4.477,4.477,4.477h9.514c2.462,0,4.477-2.014,4.477-4.477v-0.746
					c0-2.462-2.015-4.477-4.477-4.477h-9.514c-2.463,0-4.477,2.015-4.477,4.477V44.436z"/>
				<path style="fill:#199E72;" d="M310.509,55.628c0,2.463,2.015,4.477,4.477,4.477h9.514c2.463,0,4.478-2.014,4.478-4.477v-0.746
					c0-2.463-2.015-4.477-4.478-4.477h-9.514c-2.462,0-4.477,2.014-4.477,4.477V55.628z"/>
				<path style="fill:#199E72;" d="M290.362,55.628c0,2.463,2.015,4.477,4.478,4.477h9.513c2.463,0,4.478-2.014,4.478-4.477v-0.746
					c0-2.463-2.015-4.477-4.478-4.477h-9.513c-2.463,0-4.478,2.014-4.478,4.477V55.628z"/>
				<path style="fill:#199E72;" d="M300.436,66.82c0,2.463,2.015,4.478,4.477,4.478h9.514c2.462,0,4.477-2.015,4.477-4.478v-0.746
					c0-2.462-2.015-4.477-4.477-4.477h-9.514c-2.463,0-4.477,2.015-4.477,4.477V66.82z"/>
				<path style="fill:#199E72;" d="M280.289,66.82c0,2.463,2.015,4.478,4.477,4.478h9.515c2.462,0,4.477-2.015,4.477-4.478v-0.746
					c0-2.462-2.015-4.477-4.477-4.477h-9.515c-2.462,0-4.477,2.015-4.477,4.477V66.82z"/>
				<path style="fill:#199E72;" d="M280.289,44.436c0,2.463,2.015,4.477,4.477,4.477h9.515c2.462,0,4.477-2.014,4.477-4.477v-0.746
					c0-2.462-2.015-4.477-4.477-4.477h-9.515c-2.462,0-4.477,2.015-4.477,4.477V44.436z"/>
				<path style="fill:#199E72;" d="M290.362,33.243c0,2.463,2.015,4.477,4.478,4.477h9.513c2.463,0,4.478-2.014,4.478-4.477v-0.746
					c0-2.463-2.015-4.478-4.478-4.478h-9.513c-2.463,0-4.478,2.015-4.478,4.478V33.243z"/>
			</g>
		</g>
		<g>
			<g>
				<g>
					<g>
						<g>
							<rect x="118.894" y="118.395" style="fill:#046842;" width="103.221" height="221.855"/>
							<g>
								<rect x="127.152" y="124.403" style="fill:#04472B;" width="86.981" height="148.085"/>
								<rect x="132.105" y="130.547" style="fill:#25997A;" width="77.073" height="135.799"/>
								<g>
									<rect x="136.768" y="137.108" style="fill:#192938;" width="67.748" height="122.676"/>
								</g>
							</g>
						</g>
					</g>
					<g>
						<rect x="126.772" y="277.704" style="fill:#04472B;" width="86.981" height="56.522"/>
						<rect x="131.726" y="282.461" style="fill:#25997A;" width="77.073" height="47.009"/>
					</g>
				</g>
				<g>
					<circle style="fill:#D8D4D5;" cx="169.844" cy="170.57" r="2.469"/>
					<g>
						<g>
							<polygon style="fill:#C1B9BC;" points="181.794,179.926 169.884,170.909 158.521,179.706 158.186,179.273 169.881,170.218 
								182.126,179.489 							"/>
						</g>
						<path style="fill:#25997A;" d="M187.006,187.468c0,2.2-1.8,4-4,4h-25.763c-2.2,0-4-1.8-4-4v-5.293c0-2.2,1.8-4,4-4h25.763
							c2.2,0,4,1.8,4,4V187.468z"/>
						<g>
							<path style="fill:#F6F0EF;" d="M162.069,180.565c0.601,0,1.112,0.212,1.533,0.635c0.421,0.423,0.631,0.933,0.631,1.529v4.935
								c0,0.601-0.212,1.112-0.635,1.533c-0.423,0.421-0.933,0.631-1.529,0.631c-0.601,0-1.111-0.212-1.529-0.635
								c-0.418-0.423-0.628-0.933-0.628-1.529v-4.935c0-0.601,0.212-1.112,0.635-1.533
								C160.97,180.776,161.478,180.565,162.069,180.565z M162.813,182.701c0-0.216-0.076-0.4-0.227-0.552
								c-0.152-0.151-0.335-0.227-0.552-0.227c-0.216,0-0.401,0.076-0.555,0.227c-0.154,0.152-0.231,0.336-0.231,0.552v4.949
								c0,0.216,0.077,0.4,0.231,0.552c0.154,0.151,0.339,0.227,0.555,0.227c0.217,0,0.4-0.076,0.552-0.227
								c0.151-0.151,0.227-0.335,0.227-0.552V182.701z"/>
							<path style="fill:#F6F0EF;" d="M167.588,180.681c0.664,0,1.193,0.209,1.587,0.627c0.365,0.399,0.548,0.909,0.548,1.529v1.313
								c0,0.596-0.208,1.106-0.624,1.529s-0.92,0.635-1.512,0.635h-0.786v3.405h-1.364v-9.04H167.588z M168.403,182.86
								c0-0.236-0.071-0.426-0.213-0.57c-0.142-0.145-0.331-0.217-0.566-0.217h-0.822v2.893h0.822c0.217,0,0.4-0.077,0.552-0.231
								c0.151-0.154,0.227-0.339,0.227-0.555V182.86z"/>
							<path style="fill:#F6F0EF;" d="M170.813,189.721v-9.047h3.881v1.371h-2.518v2.467h1.84v1.371h-1.84v2.467h2.518v1.371
								H170.813z"/>
							<path style="fill:#F6F0EF;" d="M177.163,180.674l1.81,6.08v-6.08h1.364v9.047h-1.465l-1.875-5.793v5.793h-1.364v-9.047
								H177.163z"/>
						</g>
					</g>
				</g>
			</g>
			<g>
				<g>
					<rect x="7.274" y="101.929" style="fill:#046842;" width="100.732" height="224.153"/>
					<g>
						<rect x="13.011" y="109.538" style="fill:#192938;" width="89.26" height="65.952"/>
						<rect x="13.011" y="182.267" style="fill:#192938;" width="89.26" height="65.953"/>
						<rect x="13.011" y="254.996" style="fill:#192938;" width="89.26" height="65.952"/>
					</g>
					<g>
						<g>
							<rect x="16.826" y="281.147" style="fill:#0DAACD;" width="32.253" height="39.801"/>
							<rect x="16.826" y="281.147" style="fill:#0991A7;" width="6.176" height="39.801"/>
							<rect x="27.119" y="287.667" style="fill:#63C9DF;" width="15.782" height="10.637"/>
						</g>
						<g>
							<g>
								<g>
									<g>
										<path style="fill:#EF86B6;" d="M97.592,312.298v8.65H65.893c0,0-2.267-4.325,0.071-8.65H97.592z"/>
									</g>
									<path style="opacity:0.4;fill:#FFFFFF;" d="M64.925,317.095c0.127,2.24,0.968,3.854,0.968,3.854H97.52v-3.854H64.925z"/>
								</g>
								<g>
									<g>
										<path style="fill:#F2CD1B;" d="M97.592,303.876v8.651H65.893c0,0-2.267-4.325,0.071-8.651H97.592z"/>
									</g>
									<path style="opacity:0.4;fill:#FFFFFF;" d="M64.925,308.674c0.127,2.24,0.968,3.854,0.968,3.854H97.52v-3.854H64.925z"/>
								</g>
							</g>
							<g>
								<g>
									<path style="fill:#EC4F63;" d="M95.15,295.226v8.65h-31.7c0,0-2.267-4.325,0.073-8.65H95.15z"/>
								</g>
								<path style="opacity:0.4;fill:#FFFFFF;" d="M62.484,300.023c0.126,2.24,0.968,3.853,0.968,3.853h31.625v-3.853H62.484z"/>
							</g>
							<g>
								<g>
									<path style="fill:#7DC368;" d="M100.646,286.805v8.65H68.946c0,0-2.269-4.325,0.07-8.65H100.646z"/>
								</g>
								<path style="opacity:0.4;fill:#FFFFFF;" d="M67.979,291.603c0.127,2.239,0.969,3.853,0.969,3.853h31.626v-3.853H67.979z"/>
							</g>
						</g>
						<g>
							<g>
								<g>
									<g>
										<path style="fill:#15A0DB;" d="M25.644,248.193h-10.42v-50.687c0,0,5.209-2.856,10.42,0.088V248.193z"/>
										<rect x="17.538" y="199.881" style="fill:#94B7C2;" width="5.791" height="13.803"/>
									</g>
									<rect x="15.224" y="229.927" style="fill:#94B7C2;" width="10.42" height="2.588"/>
									<rect x="15.224" y="233.623" style="fill:#94B7C2;" width="10.42" height="2.59"/>
									<rect x="15.224" y="237.322" style="fill:#94B7C2;" width="10.42" height="2.588"/>
								</g>
								<path style="opacity:0.4;fill:#FFFFFF;" d="M19.858,196.262c-2.697,0.202-4.642,1.245-4.642,1.245v50.713h4.642V196.262z"/>
							</g>
							<g>
								<g>
									<g>
										<path style="fill:#59585A;" d="M36.064,248.168h-10.42V197.55c0,0,5.21-2.925,10.42,0.02V248.168z"/>
									</g>
									<g>
										<rect x="25.644" y="199.855" style="fill:#848A80;" width="10.42" height="2.587"/>
										<rect x="25.644" y="203.552" style="fill:#848A80;" width="10.42" height="2.588"/>
										<rect x="25.644" y="207.25" style="fill:#848A80;" width="10.42" height="2.587"/>
									</g>
									<g>
										<rect x="25.644" y="234.893" style="fill:#848A80;" width="10.42" height="2.588"/>
										<rect x="25.644" y="238.589" style="fill:#848A80;" width="10.42" height="2.589"/>
										<rect x="25.644" y="242.287" style="fill:#848A80;" width="10.42" height="2.588"/>
									</g>
								</g>
								<path style="opacity:0.4;fill:#FFFFFF;" d="M30.284,196.236c-2.698,0.202-4.641,1.244-4.641,1.244v50.713h4.641V196.236z"/>
							</g>
							<g>
								<g>
									<g style="opacity:0.4;">
										<linearGradient id="SVGID_1_" gradientUnits="userSpaceOnUse" x1="46.1016" y1="222.2372" x2="56.5215" y2="222.2372">
											<stop  offset="0" style="stop-color:#FFFFFF"/>
											<stop  offset="1" style="stop-color:#FFFFFF"/>
										</linearGradient>
										<path style="fill:url(#SVGID_1_);" d="M56.522,248.193h-10.42v-50.618c0,0,5.21-2.925,10.42,0.02V248.193z"/>
									</g>
									<g>
										<linearGradient id="SVGID_2_" gradientUnits="userSpaceOnUse" x1="46.1016" y1="201.1743" x2="56.5215" y2="201.1743">
											<stop  offset="0" style="stop-color:#FFFFFF"/>
											<stop  offset="1" style="stop-color:#FFFFFF"/>
										</linearGradient>
										<rect x="46.102" y="199.881" style="opacity:0.4;fill:url(#SVGID_2_);" width="10.42" height="2.587"/>
										<linearGradient id="SVGID_3_" gradientUnits="userSpaceOnUse" x1="46.1016" y1="204.8721" x2="56.5215" y2="204.8721">
											<stop  offset="0" style="stop-color:#FFFFFF"/>
											<stop  offset="1" style="stop-color:#FFFFFF"/>
										</linearGradient>
										<rect x="46.102" y="203.578" style="opacity:0.4;fill:url(#SVGID_3_);" width="10.42" height="2.588"/>
										<linearGradient id="SVGID_4_" gradientUnits="userSpaceOnUse" x1="46.1016" y1="208.5688" x2="56.5215" y2="208.5688">
											<stop  offset="0" style="stop-color:#FFFFFF"/>
											<stop  offset="1" style="stop-color:#FFFFFF"/>
										</linearGradient>
										<rect x="46.102" y="207.275" style="opacity:0.4;fill:url(#SVGID_4_);" width="10.42" height="2.587"/>
									</g>
									<g style="opacity:0.4;">
										<linearGradient id="SVGID_5_" gradientUnits="userSpaceOnUse" x1="46.1016" y1="236.2124" x2="56.5215" y2="236.2124">
											<stop  offset="0" style="stop-color:#FFFFFF"/>
											<stop  offset="1" style="stop-color:#FFFFFF"/>
										</linearGradient>
										<rect x="46.102" y="234.918" style="fill:url(#SVGID_5_);" width="10.42" height="2.589"/>
										<linearGradient id="SVGID_6_" gradientUnits="userSpaceOnUse" x1="46.1016" y1="239.9097" x2="56.5215" y2="239.9097">
											<stop  offset="0" style="stop-color:#FFFFFF"/>
											<stop  offset="1" style="stop-color:#FFFFFF"/>
										</linearGradient>
										<rect x="46.102" y="238.615" style="fill:url(#SVGID_6_);" width="10.42" height="2.589"/>
										<linearGradient id="SVGID_7_" gradientUnits="userSpaceOnUse" x1="46.1016" y1="243.6069" x2="56.5215" y2="243.6069">
											<stop  offset="0" style="stop-color:#FFFFFF"/>
											<stop  offset="1" style="stop-color:#FFFFFF"/>
										</linearGradient>
										<rect x="46.102" y="242.313" style="fill:url(#SVGID_7_);" width="10.42" height="2.589"/>
									</g>
								</g>
								<path style="opacity:0.4;fill:#FFFFFF;" d="M50.742,196.262c-2.698,0.202-4.641,1.245-4.641,1.245v50.713h4.641V196.262z"/>
							</g>
							<g>
								<g>
									<path style="fill:#C6C5C0;" d="M39.274,248.22h-3.21v-50.642c0,0,1.606-2.126,3.21,0.042V248.22z"/>
									<path style="fill:#FAAE41;" d="M46.102,248.22h-6.828v-50.642c0,0,3.414-2.126,6.828,0.042V248.22z"/>
								</g>
								<path style="opacity:0.4;fill:#FBFCFB;" d="M39.274,197.578v50.642h3.414v-51.573
									C40.728,196.674,39.274,197.578,39.274,197.578z"/>
							</g>
							<g>
								<path style="fill:#C6C5C0;" d="M39.274,248.22h-3.21v-50.642c0,0,1.606-2.126,3.21,0.042V248.22z"/>
								<path style="opacity:0.4;fill:#FFFFFF;" d="M37.67,196.646c-0.922,0.027-1.606,0.932-1.606,0.932v50.642h1.606V196.646z"/>
							</g>
						</g>
						<g>
							<rect x="63.583" y="212.7" style="fill:#9655A1;" width="28.783" height="35.52"/>
							<rect x="63.583" y="212.7" style="fill:#EA90B1;" width="5.513" height="35.52"/>
							<rect x="72.77" y="218.519" style="fill:#EA90B1;" width="14.084" height="9.492"/>
						</g>
						<g>
							<rect x="83.322" y="224.447" style="fill:#F2CD1B;" width="18.087" height="23.772"/>
							<rect x="83.322" y="224.447" style="fill:#E5BB07;" width="3.616" height="23.772"/>
						</g>
						<g>
							<rect x="17.297" y="141.011" style="fill:#7AD0E9;" width="26.235" height="34.479"/>
							<rect x="17.297" y="141.011" style="fill:#5A5054;" width="5.246" height="34.479"/>
						</g>
						<g>
							<rect x="49.744" y="148.144" style="fill:#3DBDB6;" width="20.807" height="27.346"/>
							<rect x="49.744" y="148.144" style="fill:#289D92;" width="4.161" height="27.346"/>
						</g>
						<g>
							<rect x="77.514" y="152.991" style="fill:#C1B49A;" width="18.232" height="22.499"/>
							<rect x="77.514" y="152.991" style="fill:#A18F74;" width="3.492" height="22.499"/>
							<rect x="83.333" y="156.677" style="fill:#EDDDE0;" width="8.922" height="6.013"/>
						</g>
						<rect x="54.61" y="103.084" style="fill:#046842;" width="6.063" height="221.844"/>
					</g>
				</g>
				<path style="opacity:0.2;fill:#FCFAFA;" d="M25.008,315.694h68.182V156.677C93.189,156.677,85.372,261.746,25.008,315.694z"/>
			</g>
			<g>
				<g>
					<rect x="232.243" y="101.929" style="fill:#046842;" width="100.731" height="224.153"/>
					<g>
						<rect x="237.978" y="109.538" style="fill:#192938;" width="89.26" height="65.952"/>
						<rect x="237.978" y="182.267" style="fill:#192938;" width="89.26" height="65.953"/>
						<rect x="237.978" y="254.996" style="fill:#192938;" width="89.26" height="65.952"/>
					</g>
					<g>
						<g>
							<g>
								<g>
									<g>
										<g>
											<path style="fill:#CBAE64;" d="M251.066,320.908h9.24v-44.947c0,0-4.621-2.532-9.24,0.079V320.908z"/>
											<rect x="253.117" y="278.067" style="fill:#844F20;" width="5.137" height="12.24"/>
										</g>
										<rect x="251.066" y="304.711" style="fill:#844F20;" width="9.24" height="2.295"/>
										<rect x="251.066" y="307.989" style="fill:#844F20;" width="9.24" height="2.296"/>
										<rect x="251.066" y="311.269" style="fill:#844F20;" width="9.24" height="2.294"/>
									</g>
									<g>
										<g>
											<g>
												<path style="fill:#D6C4B3;" d="M241.826,320.908h9.24v-44.886c0,0-4.621-2.594-9.24,0.018V320.908z"/>
											</g>
											<g>
												<rect x="241.826" y="278.067" style="fill:#B7A99E;" width="9.24" height="2.295"/>
												<rect x="241.826" y="281.346" style="fill:#B7A99E;" width="9.24" height="2.295"/>
												<rect x="241.826" y="284.625" style="fill:#B7A99E;" width="9.24" height="2.294"/>
											</g>
											<g>
												<rect x="241.826" y="309.138" style="fill:#B7A99E;" width="9.24" height="2.294"/>
												<rect x="241.826" y="312.416" style="fill:#B7A99E;" width="9.24" height="2.294"/>
												<rect x="241.826" y="315.694" style="fill:#B7A99E;" width="9.24" height="2.295"/>
											</g>
										</g>
										<path style="opacity:0.4;fill:#FFFFFF;" d="M245.938,274.883c-1.282,0.047-2.696,0.357-4.112,1.157v44.868h4.113
											C245.938,315.313,245.936,278.176,245.938,274.883z"/>
									</g>
									<path style="opacity:0.4;fill:#FFFFFF;" d="M255.174,274.883c-1.282,0.047-2.697,0.357-4.113,1.157v44.868h4.113
										C255.174,315.313,255.172,278.176,255.174,274.883z"/>
								</g>
								<g>
									<g>
										<g>
											<path style="fill:#E3BE70;" d="M265.32,320.948l9.185-1.014l-4.925-44.614c0,0-4.877-2.071-9.181,1.031L265.32,320.948z"
												/>
										</g>
										<g>
											
												<rect x="260.72" y="277.853" transform="matrix(-0.994 0.1097 -0.1097 -0.994 559.6874 527.2031)" style="fill:#A2834C;" width="9.239" height="2.294"/>
											
												<rect x="261.077" y="281.112" transform="matrix(-0.994 0.1098 -0.1098 -0.994 560.7831 533.634)" style="fill:#A2834C;" width="9.24" height="2.294"/>
											
												<rect x="261.437" y="284.37" transform="matrix(-0.994 0.1097 -0.1097 -0.994 561.8286 540.128)" style="fill:#A2834C;" width="9.241" height="2.295"/>
										</g>
										<g>
											
												<rect x="264.127" y="308.734" transform="matrix(-0.994 0.1097 -0.1097 -0.994 569.8705 588.4073)" style="fill:#A2834C;" width="9.239" height="2.295"/>
											
												<rect x="264.487" y="311.993" transform="matrix(-0.994 0.1097 -0.1097 -0.994 570.9423 594.8693)" style="fill:#A2834C;" width="9.24" height="2.295"/>
											
												<rect x="264.846" y="315.252" transform="matrix(-0.994 0.1097 -0.1097 -0.994 572.0162 601.3279)" style="fill:#A2834C;" width="9.24" height="2.295"/>
										</g>
									</g>
									<path style="opacity:0.4;fill:#FFFFFF;" d="M264.357,274.697c-1.27,0.189-2.641,0.653-3.958,1.605l4.97,44.592l4.086-0.456
										C268.835,314.877,264.721,277.97,264.357,274.697z"/>
								</g>
							</g>
							<g>
								<g>
									<g>
										<path style="fill:#ED8A22;" d="M318.55,312.028v8.913h-32.662c0,0-2.337-4.457,0.073-8.913H318.55z"/>
									</g>
									<path style="opacity:0.4;fill:#FFFFFF;" d="M284.892,316.972c0.128,2.308,0.997,3.97,0.997,3.97h32.587v-3.97H284.892z"/>
								</g>
								<g>
									<g>
										<path style="fill:#437FC0;" d="M326.536,303.351v8.914h-32.664c0,0-2.337-4.457,0.072-8.914H326.536z"/>
									</g>
									<path style="opacity:0.4;fill:#FFFFFF;" d="M292.875,308.295c0.129,2.308,0.998,3.97,0.998,3.97h32.587v-3.97H292.875z"/>
								</g>
								<g>
									<g>
										<path style="fill:#F1B0BB;" d="M316.036,294.438v8.913h-32.664c0,0-2.336-4.457,0.072-8.913H316.036z"/>
									</g>
									<path style="opacity:0.4;fill:#FFFFFF;" d="M282.375,299.381c0.132,2.308,0.999,3.97,0.999,3.97h32.587v-3.97H282.375z"/>
								</g>
							</g>
							<g>
								<g>
									<g>
										<path style="fill:#6E9FB4;" d="M298.657,248.22H286.21v-45.285c0,0,6.224-3.238,12.447,0.102V248.22z"/>
										<g>
											<polygon style="fill:#94B7C2;" points="288.276,248.22 287.835,248.22 287.835,202.294 288.276,202.152 											"/>
										</g>
										<g>
											<polygon style="fill:#94B7C2;" points="297.112,248.22 296.67,248.22 296.67,202.179 297.112,202.335 											"/>
										</g>
									</g>
									<path style="opacity:0.4;fill:#FFFFFF;" d="M291.756,201.553c-3.225,0.181-5.546,1.382-5.546,1.382v45.181h5.546V201.553z"
										/>
								</g>
								<g>
									<g>
										<path style="fill:#AAD2AA;" d="M310.775,248.22h-12.447v-45.285c0,0,6.225-3.238,12.447,0.102V248.22z"/>
										<g>
											<polygon style="fill:#D2E9D3;" points="300.395,248.22 299.952,248.22 299.952,202.294 300.395,202.152 											"/>
										</g>
										<g>
											<polygon style="fill:#D2E9D3;" points="309.228,248.22 308.786,248.22 308.786,202.179 309.228,202.335 											"/>
										</g>
									</g>
									<path style="opacity:0.4;fill:#FFFFFF;" d="M303.872,201.553c-3.223,0.181-5.544,1.382-5.544,1.382v45.181h5.544V201.553z"
										/>
								</g>
								<g>
									<g>
										<path style="fill:#564F45;" d="M322.953,248.22h-12.448v-45.285c0,0,6.223-3.238,12.448,0.102V248.22z"/>
										<g>
											<polygon style="fill:#423B32;" points="312.57,248.22 312.13,248.22 312.13,202.294 312.57,202.152 											"/>
										</g>
										<g>
											<polygon style="fill:#423B32;" points="321.405,248.22 320.963,248.22 320.963,202.179 321.405,202.335 											"/>
										</g>
									</g>
									<path style="opacity:0.4;fill:#FFFFFF;" d="M316.049,201.553c-3.224,0.181-5.544,1.382-5.544,1.382v45.181h5.544V201.553z"
										/>
								</g>
							</g>
							<g>
								<g>
									<g>
										<g>
											<path style="fill:#FAAE41;" d="M264.526,175.49h-12.056v-50.356c0,0,6.028-3.602,12.056,0.113V175.49z"/>
											<rect x="255.185" y="129.857" style="fill:#F4D1A1;" width="6.63" height="9.543"/>
										</g>
										<path style="opacity:0.4;fill:#FFFFFF;" d="M258.499,123.566c-3.459,0.034-6.028,1.567-6.028,1.567v50.356h6.028V123.566z
											"/>
									</g>
									<g>
										<g>
											<path style="fill:#C6C5C0;" d="M276.582,175.49h-12.056v-44.281c0,0,6.026-3.168,12.056,0.1V175.49z"/>
											<rect x="267.238" y="135.362" style="fill:#ECECEB;" width="6.63" height="8.393"/>
										</g>
										<path style="opacity:0.4;fill:#FFFFFF;" d="M269.895,129.855c-3.119,0.176-5.368,1.354-5.368,1.354v44.281h5.368V129.855z
											"/>
									</g>
								</g>
								<g>
									<g>
										<path style="fill:#6F3B95;" d="M288.636,175.49h-12.054v-44.281c0,0,6.025-3.168,12.054,0.1V175.49z"/>
										<rect x="279.293" y="135.362" style="fill:#9D77B3;" width="6.631" height="8.393"/>
									</g>
									<path style="opacity:0.4;fill:#FFFFFF;" d="M281.978,129.855c-3.12,0.176-5.368,1.354-5.368,1.354v44.281h5.368V129.855z"
										/>
								</g>
								<g>
									<g>
										<path style="fill:#A67F90;" d="M300.691,175.49h-12.056v-56.055c0,0,6.026-4.011,12.056,0.125V175.49z"/>
										<rect x="291.348" y="124.693" style="fill:#BCA4B2;" width="6.632" height="10.623"/>
									</g>
									<path style="opacity:0.4;fill:#FFFFFF;" d="M294.032,117.696c-3.119,0.224-5.367,1.717-5.367,1.717v56.077h5.367V117.696z"
										/>
								</g>
								<g>
									<g>
										<path style="fill:#7F94CB;" d="M312.747,175.49h-12.056v-37.908c0,0,6.026-2.713,12.056,0.084V175.49z"/>
										<rect x="303.403" y="141.138" style="fill:#8FA3D3;" width="6.629" height="7.184"/>
									</g>
									<path style="opacity:0.4;fill:#FFFFFF;" d="M306.086,136.404c-3.119,0.15-5.368,1.16-5.368,1.16v37.926h5.368V136.404z"/>
								</g>
							</g>
							<g>
								<g>
									<rect x="239.935" y="213.739" style="fill:#7AD0E9;" width="26.235" height="34.48"/>
									<rect x="239.935" y="213.739" style="fill:#5A5054;" width="5.246" height="34.48"/>
								</g>
								<g>
									<rect x="255.767" y="220.873" style="fill:#3DBDB6;" width="20.807" height="27.347"/>
									<rect x="255.767" y="220.873" style="fill:#289D92;" width="4.161" height="27.347"/>
								</g>
							</g>
						</g>
						<rect x="279.577" y="103.084" style="fill:#046842;" width="6.063" height="221.844"/>
					</g>
				</g>
				<path style="opacity:0.2;fill:#FCFAFA;" d="M250.801,315.694h68.182V156.677C318.982,156.677,311.165,261.746,250.801,315.694z"
					/>
			</g>
		</g>
	</g>
</g>
<g>
</g>
<g>
</g>
<g>
</g>
<g>
</g>
<g>
</g>
<g>
</g>
<g>
</g>
<g>
</g>
<g>
</g>
<g>
</g>
<g>
</g>
<g>
</g>
<g>
</g>
<g>
</g>
<g>
</g>
</svg>
