<?xml version="1.0" encoding="iso-8859-1"?>
<!-- Generator: Adobe Illustrator 18.0.0, SVG Export Plug-In . SVG Version: 6.00 Build 0)  -->
<!DOCTYPE svg PUBLIC "-//W3C//DTD SVG 1.1//EN" "http://www.w3.org/Graphics/SVG/1.1/DTD/svg11.dtd">
<svg version="1.1" id="Capa_1" xmlns="http://www.w3.org/2000/svg" xmlns:xlink="http://www.w3.org/1999/xlink" x="0px" y="0px" viewBox="0 0 297 297" style="enable-background:new 0 0 297 297;" xml:space="preserve">
    <g>
        <g>
            <path style="fill:#C63C22;" d="M34.282,93.833h30.437c-0.489-3.257-0.799-7.485-0.935-12H35.217
			C35.081,86.348,34.771,90.577,34.282,93.833z" />
        </g>
        <g>
            <path style="fill:#BDC3C7;" d="M35.167,69.5c0.153,4.016,0.173,8.287,0.05,12.333h28.566c-0.122-4.046-0.102-8.318,0.05-12.333
			H35.167z" />
        </g>
        <g>
            <path style="fill:#C63C22;" d="M35.167,69.5h28.667c0.2-5.265,0.634-10.075,1.291-13.333H33.876
			C34.533,59.425,34.966,64.235,35.167,69.5z" />
        </g>
        <g>
            <path style="fill:#BDC3C7;" d="M74.25,24.75C74.25,11.081,63.169,0,49.5,0S24.75,11.081,24.75,24.75
			c0,7.329,5.478,22.159,8.25,28.361c0.327,0.731,0.618,1.778,0.876,3.055h31.249c0.258-1.278,0.549-2.324,0.876-3.055
			C68.772,46.909,74.25,32.079,74.25,24.75z" />
        </g>
        <g>
            <path style="fill:#BDC3C7;" d="M66,99c-0.516-1.094-0.941-2.9-1.282-5.167H34.282C33.941,96.1,33.516,97.906,33,99
			C22.373,121.541,0,164.212,0,214.5c0,22.52,2.763,39.42,7.541,51.862c3.289,8.565,11.613,14.138,20.788,14.138h42.342
			c9.175,0,17.499-5.573,20.788-14.138C96.237,253.919,99,237.02,99,214.5C99,164.212,76.627,121.541,66,99z" />
        </g>
        <g style="opacity:0.59;">
            <path style="fill:#C63C22;" d="M63.783,81.833h-16.5c0.136,4.515,0.446,8.743,0.935,12h16.5
			C64.229,90.577,63.919,86.348,63.783,81.833z" />
        </g>
        <g style="opacity:0.59;">
            <path style="fill:#BDC3C7;" d="M63.833,69.5h-16.5c-0.153,4.016-0.173,8.287-0.05,12.333h16.5
			C63.661,77.787,63.681,73.516,63.833,69.5z" />
        </g>
        <g style="opacity:0.59;">
            <path style="fill:#C63C22;" d="M48.624,56.167c-0.657,3.259-1.091,8.068-1.291,13.333h16.5c0.2-5.265,0.634-10.075,1.291-13.333
			H48.624z" />
        </g>
        <g style="opacity:0.59;">
            <path style="fill:#BDC3C7;" d="M49.5,0c-2.894,0-5.669,0.501-8.25,1.414c9.612,3.398,16.5,12.561,16.5,23.336
			c0,7.329-5.478,22.159-8.25,28.361c-0.327,0.731-0.618,1.778-0.876,3.055h16.5c0.258-1.278,0.549-2.324,0.876-3.055
			c2.772-6.203,8.25-21.033,8.25-28.361C74.25,11.081,63.169,0,49.5,0z" />
        </g>
        <g style="opacity:0.59;">
            <path style="fill:#BDC3C7;" d="M66,99c-0.516-1.094-0.941-2.9-1.282-5.167h-16.5C48.559,96.1,48.984,97.906,49.5,99
			c10.627,22.541,33,65.212,33,115.5c0,22.52-2.763,39.419-7.541,51.862C71.67,274.927,63.346,280.5,54.171,280.5h16.5
			c9.175,0,17.499-5.573,20.788-14.138C96.237,253.919,99,237.02,99,214.5C99,164.212,76.627,121.541,66,99z" />
        </g>
        <g>
            <circle style="fill:#E64C3C;" cx="181.5" cy="181.5" r="115.5" />
        </g>
        <g style="opacity:0.22;">
            <path style="fill:#E64C3C;" d="M181.5,66c-5.603,0-11.11,0.407-16.5,1.178c55.972,8.007,99,56.136,99,114.322
			s-43.028,106.314-99,114.322c5.39,0.771,10.897,1.178,16.5,1.178c63.789,0,115.5-51.711,115.5-115.5S245.289,66,181.5,66z" />
        </g>
        <g>
            <circle style="fill:#BDC3C7;" cx="173" cy="115.5" r="16.5" />
        </g>
        <g>
            <circle style="fill:#BDC3C7;" cx="162.5" cy="165" r="16.5" />
        </g>
        <g>
            <circle style="fill:#BDC3C7;" cx="123.5" cy="132" r="16.5" />
        </g>
        <g>
            <path style="fill:#BDC3C7;" d="M173,132c1.382,0,2.717-0.189,4-0.509c-7.176-1.79-12.5-8.261-12.5-15.991
			c0-7.731,5.324-14.201,12.5-15.991c-1.283-0.32-2.618-0.509-4-0.509c-9.113,0-16.5,7.387-16.5,16.5
			C156.5,124.613,163.887,132,173,132z" />
        </g>
        <g>
            <path style="fill:#BDC3C7;" d="M162.5,181.5c1.382,0,2.717-0.189,4-0.509c-7.176-1.79-12.5-8.261-12.5-15.991
			c0-7.731,5.324-14.201,12.5-15.991c-1.283-0.32-2.618-0.509-4-0.509c-9.113,0-16.5,7.387-16.5,16.5
			C146,174.113,153.387,181.5,162.5,181.5z" />
        </g>
        <g>
            <path style="fill:#BDC3C7;" d="M123.5,148.5c1.382,0,2.717-0.189,4-0.509c-7.176-1.79-12.5-8.261-12.5-15.991
			c0-7.731,5.324-14.201,12.5-15.991c-1.283-0.32-2.618-0.509-4-0.509c-9.113,0-16.5,7.387-16.5,16.5
			C107,141.113,114.387,148.5,123.5,148.5z" />
        </g>
    </g>
    <g>
    </g>
    <g>
    </g>
    <g>
    </g>
    <g>
    </g>
    <g>
    </g>
    <g>
    </g>
    <g>
    </g>
    <g>
    </g>
    <g>
    </g>
    <g>
    </g>
    <g>
    </g>
    <g>
    </g>
    <g>
    </g>
    <g>
    </g>
    <g>
    </g>
</svg>
