<?xml version="1.0" encoding="iso-8859-1"?>
<!-- Generator: Adobe Illustrator 18.0.0, SVG Export Plug-In . SVG Version: 6.00 Build 0)  -->
<!DOCTYPE svg PUBLIC "-//W3C//DTD SVG 1.1//EN" "http://www.w3.org/Graphics/SVG/1.1/DTD/svg11.dtd">
<svg version="1.1" id="Capa_1" xmlns="http://www.w3.org/2000/svg" xmlns:xlink="http://www.w3.org/1999/xlink" x="0px" y="0px"
	 viewBox="0 0 314.431 314.431" style="enable-background:new 0 0 314.431 314.431;" xml:space="preserve">
<g>
	<path style="fill:#FDD44B;" d="M247.456,260.413c0,2.954-0.556,5.779-1.56,8.384h8.058c4.652,0,8.437-3.761,8.437-8.384V127.38
		h-14.934V260.413z"/>
	<g>
		<path style="fill:#FDD44B;" d="M272.249,45.748c0.857,0.984,1.665,2.017,2.445,3.076
			C273.914,47.764,273.106,46.731,272.249,45.748z"/>
		<path style="fill:#FDD44B;" d="M276.88,52.083c-0.431-0.697-0.883-1.375-1.345-2.046C275.998,50.707,276.449,51.387,276.88,52.083
			z"/>
		<path style="fill:#FDD44B;" d="M279.865,57.633c-0.054-0.12-0.12-0.232-0.175-0.352c3.037,6.534,4.772,13.9,4.772,21.708
			c0,12.862-4.642,24.565-12.2,33.241c13.711-1.233,24.78-13.123,26.78-28.322C297.379,71.724,289.871,61.706,279.865,57.633z"/>
		<path style="fill:#FDD44B;" d="M299.171,82.913c0.035-0.336,0.075-0.67,0.101-1.009C299.246,82.243,299.206,82.577,299.171,82.913
			z"/>
		<path style="fill:#FDD44B;" d="M278.826,55.549c-0.328-0.641-0.665-1.275-1.018-1.898
			C278.162,54.274,278.498,54.909,278.826,55.549z"/>
	</g>
	<g>
		<path style="fill:#FDD44B;" d="M247.722,46.85c0.715,0.222,1.418,0.475,2.11,0.755C249.14,47.325,248.437,47.072,247.722,46.85z"
			/>
		<path style="fill:#FDD44B;" d="M250.838,48.023c0.792,0.358,1.564,0.76,2.321,1.192C252.401,48.783,251.63,48.381,250.838,48.023z
			"/>
		<path style="fill:#FDD44B;" d="M244.344,46.047c0.763,0.13,1.518,0.282,2.26,0.477C245.861,46.329,245.107,46.177,244.344,46.047z
			"/>
		<path style="fill:#FDD44B;" d="M15.244,82.817c-0.027-0.263-0.053-0.527-0.073-0.792C15.191,82.29,15.217,82.553,15.244,82.817z"
			/>
		<path style="fill:#FDD44B;" d="M15.655,85.792c-0.024-0.132-0.04-0.268-0.063-0.4C15.615,85.524,15.63,85.66,15.655,85.792z"/>
		<path style="fill:#FDD44B;" d="M262.052,56.995c0.552,0.709,1.075,1.447,1.572,2.207
			C263.126,58.442,262.604,57.705,262.052,56.995z"/>
		<path style="fill:#FDD44B;" d="M259.716,54.318c0.602,0.619,1.184,1.262,1.739,1.934C260.899,55.58,260.318,54.938,259.716,54.318
			z"/>
		<path style="fill:#FDD44B;" d="M259.106,53.692c-0.737-0.715-1.502-1.391-2.3-2.023C257.603,52.301,258.37,52.976,259.106,53.692z
			"/>
		<path style="fill:#FDD44B;" d="M253.755,49.54c0.968,0.584,1.907,1.224,2.808,1.922C255.662,50.764,254.724,50.124,253.755,49.54z
			"/>
		<path style="fill:#FDD44B;" d="M239.939,45.633c1.143,0,2.265,0.092,3.373,0.235C242.203,45.725,241.081,45.633,239.939,45.633z"
			/>
		<path style="fill:#FDD44B;" d="M18.809,95.267c-0.099-0.199-0.202-0.394-0.297-0.595C18.608,94.873,18.711,95.068,18.809,95.267z"
			/>
		<path style="fill:#FDD44B;" d="M30.52,108.336c-0.074-0.046-0.145-0.099-0.219-0.145C30.375,108.237,30.446,108.29,30.52,108.336z
			"/>
		<path style="fill:#FDD44B;" d="M28.353,106.851c-0.203-0.151-0.404-0.306-0.604-0.462C27.95,106.546,28.15,106.7,28.353,106.851z"
			/>
		<path style="fill:#FDD44B;" d="M16.501,89.324c-0.069-0.238-0.141-0.475-0.205-0.716C16.36,88.849,16.432,89.086,16.501,89.324z"
			/>
		<path style="fill:#FDD44B;" d="M25.729,104.67c0.084,0.078,0.172,0.149,0.257,0.226C25.901,104.818,25.812,104.748,25.729,104.67z
			"/>
		<path style="fill:#FDD44B;" d="M263.909,58.893c-4.155-2.534-8.904-4.717-13.947-4.717H54.546
			c-16.26,0-29.489,15.704-29.489,34.096c0,7.204,2.037,13.66,5.482,19.12c4.164,2.548,8.927,3.784,13.984,3.784
			c0.004,0,0.008,0,0.013,0c0.005,0,0.009,0,0.012,0c4.151,0,8.785,4.534,8.785,8.687v2.379c0,0.078,0.377-0.065,1.213-0.065
			c0.004,0,0.008,0,0.012,0c0.005,0,0.009,0,0.013,0c4.151,0,6.762,3.557,6.762,7.709v140.291h29.138h133.513
			c4.653,0,7.349-5.14,7.349-9.763v-140.55c0-4.152,3.91-7.517,8.061-7.517c16.26,0,29.761-15.334,29.761-33.726
			C269.156,71.4,267.368,64.358,263.909,58.893z M59.476,81.816c-1.403,1.404-3.338,2.205-5.312,2.205
			c-1.985,0-3.919-0.801-5.323-2.205c-1.393-1.393-2.194-3.328-2.194-5.312c0-1.975,0.801-3.919,2.194-5.312
			c1.404-1.404,3.338-2.205,5.323-2.205c1.974,0,3.919,0.802,5.312,2.205c1.403,1.393,2.205,3.337,2.205,5.312
			C61.681,78.488,60.879,80.423,59.476,81.816z M88.843,246.431c-1.404,1.403-3.338,2.205-5.312,2.205
			c-1.984,0-3.919-0.802-5.322-2.205c-1.394-1.404-2.195-3.338-2.195-5.312c0-1.985,0.802-3.919,2.195-5.323
			c1.403-1.393,3.338-2.195,5.322-2.195c1.974,0,3.918,0.802,5.312,2.195c1.403,1.403,2.205,3.338,2.205,5.323
			C91.048,243.093,90.246,245.027,88.843,246.431z M88.843,136.691c-1.394,1.404-3.338,2.205-5.312,2.205
			c-1.984,0-3.919-0.801-5.322-2.205c-1.394-1.404-2.195-3.338-2.195-5.312c0-1.985,0.802-3.919,2.195-5.323
			c1.403-1.393,3.338-2.195,5.322-2.195c1.974,0,3.918,0.802,5.312,2.195c1.403,1.404,2.205,3.338,2.205,5.323
			C91.048,133.353,90.246,135.298,88.843,136.691z M118.21,191.556c-1.403,1.403-3.337,2.205-5.312,2.205
			c-1.975,0-3.919-0.802-5.323-2.205c-1.393-1.394-2.195-3.328-2.195-5.312c0-1.975,0.802-3.919,2.195-5.313
			c1.403-1.403,3.338-2.204,5.323-2.204c1.975,0,3.909,0.801,5.312,2.204c1.404,1.404,2.205,3.338,2.205,5.313
			C120.415,188.218,119.613,190.162,118.21,191.556z M118.21,81.816c-1.403,1.404-3.337,2.205-5.312,2.205
			c-1.985,0-3.919-0.801-5.312-2.205c-1.404-1.393-2.205-3.328-2.205-5.312c0-1.975,0.802-3.919,2.205-5.312
			c1.393-1.404,3.327-2.205,5.312-2.205c1.975,0,3.919,0.802,5.312,2.205c1.404,1.393,2.205,3.337,2.205,5.312
			C120.415,78.488,119.613,80.423,118.21,81.816z M147.576,246.431c-1.393,1.403-3.328,2.205-5.312,2.205
			c-1.975,0-3.919-0.802-5.312-2.205c-1.404-1.404-2.205-3.338-2.205-5.312c0-1.985,0.801-3.919,2.205-5.323
			c1.394-1.393,3.328-2.195,5.312-2.195c1.984,0,3.919,0.802,5.312,2.195c1.403,1.403,2.205,3.338,2.205,5.323
			C149.781,243.093,148.98,245.027,147.576,246.431z M147.576,136.691c-1.393,1.404-3.338,2.205-5.312,2.205
			c-1.975,0-3.919-0.801-5.322-2.205c-1.394-1.404-2.195-3.338-2.195-5.312c0-1.985,0.801-3.919,2.195-5.323
			c1.403-1.393,3.338-2.195,5.322-2.195c1.984,0,3.919,0.802,5.312,2.195c1.403,1.404,2.205,3.338,2.205,5.323
			C149.781,133.353,148.98,135.287,147.576,136.691z M176.883,191.556c-1.404,1.403-3.338,2.205-5.312,2.205
			c-1.984,0-3.919-0.802-5.322-2.205c-1.394-1.394-2.206-3.328-2.206-5.312c0-1.975,0.812-3.919,2.206-5.313
			c1.403-1.403,3.338-2.204,5.322-2.204c1.974,0,3.908,0.801,5.312,2.204c1.403,1.394,2.205,3.338,2.205,5.313
			C179.088,188.228,178.287,190.162,176.883,191.556z M176.944,81.816c-1.394,1.404-3.338,2.205-5.313,2.205
			c-1.984,0-3.919-0.801-5.312-2.205c-1.403-1.393-2.205-3.328-2.205-5.312c0-1.975,0.803-3.919,2.205-5.312
			c1.393-1.404,3.328-2.205,5.312-2.205c1.985,0,3.919,0.802,5.313,2.205c1.403,1.402,2.204,3.337,2.204,5.312
			C179.148,78.488,178.346,80.423,176.944,81.816z M206.251,246.431c-1.403,1.403-3.337,2.205-5.313,2.205
			c-1.985,0-3.919-0.802-5.323-2.205c-1.392-1.404-2.194-3.338-2.194-5.312c0-1.985,0.802-3.919,2.194-5.323
			c1.404-1.393,3.338-2.195,5.323-2.195c1.975,0,3.919,0.802,5.313,2.195c1.403,1.403,2.204,3.338,2.204,5.323
			C208.455,243.093,207.653,245.027,206.251,246.431z M206.251,136.691c-1.403,1.404-3.337,2.205-5.313,2.205
			c-1.985,0-3.919-0.801-5.323-2.205c-1.392-1.404-2.194-3.338-2.194-5.312c0-1.985,0.802-3.919,2.194-5.323
			c1.404-1.393,3.338-2.195,5.323-2.195c1.975,0,3.919,0.802,5.313,2.195c1.403,1.404,2.204,3.338,2.204,5.323
			C208.455,133.353,207.653,135.287,206.251,136.691z M235.616,81.816c-1.403,1.404-3.338,2.205-5.311,2.205
			c-1.985,0-3.919-0.801-5.323-2.205c-1.394-1.393-2.195-3.328-2.195-5.312c0-1.975,0.8-3.919,2.195-5.312
			c1.403-1.404,3.338-2.205,5.323-2.205c1.973,0,3.918,0.802,5.311,2.205c1.404,1.393,2.206,3.337,2.206,5.312
			C237.822,78.488,237.02,80.423,235.616,81.816z"/>
		<path style="fill:#FDD44B;" d="M20.215,97.833c-0.12-0.198-0.233-0.402-0.35-0.603C19.982,97.432,20.094,97.635,20.215,97.833z"/>
		<path style="fill:#FDD44B;" d="M17.424,92.122c-0.071-0.187-0.133-0.379-0.2-0.567C17.292,91.743,17.353,91.935,17.424,92.122z"/>
		<path style="fill:#FDD44B;" d="M23.901,102.791c-0.167-0.185-0.328-0.375-0.491-0.564
			C23.573,102.416,23.735,102.606,23.901,102.791z"/>
		<path style="fill:#FDD44B;" d="M22.03,100.509c-0.11-0.147-0.226-0.288-0.334-0.437C21.804,100.222,21.919,100.362,22.03,100.509z
			"/>
	</g>
	<path style="fill:#3F2D20;" d="M269.907,30.599H44.523C19.973,30.599,0,52.307,0,78.989c0,23.907,16.038,43.807,37.031,47.692
		v133.732c0,12.913,10.529,23.418,23.471,23.418h193.45c12.941,0,23.471-10.505,23.471-23.418V126.676
		c20.981-3.895,37.006-23.79,37.006-47.687C314.431,52.307,294.458,30.599,269.907,30.599z M262.39,260.413
		c0,4.623-3.785,8.384-8.437,8.384h-8.058c1.004-2.605,1.56-5.43,1.56-8.384V127.38h14.934V260.413z M239.939,112.346
		c-4.151,0-7.517,3.365-7.517,7.517v140.551c0,4.623-3.784,8.384-8.437,8.384H90.472H60.503c-4.653,0-8.437-3.761-8.437-8.384
		V119.863c0-4.152-3.366-7.517-7.517-7.517c-0.004,0-0.008,0-0.013,0c-0.005,0-0.009,0-0.012,0
		c-16.26,0-29.489-14.964-29.489-33.356c0-18.392,13.229-33.356,29.489-33.356h195.415c16.261,0,29.489,14.964,29.489,33.356
		C269.428,97.382,256.199,112.346,239.939,112.346z M272.249,45.748c15.169,1.356,27.148,15.742,27.148,33.242
		c0,17.495-11.972,31.877-27.134,33.241c7.557-8.676,12.2-20.378,12.2-33.241C284.462,66.124,279.811,54.425,272.249,45.748z"/>
	<path style="fill:#3F2D20;" d="M112.898,68.987c-1.985,0-3.919,0.801-5.312,2.205c-1.404,1.393-2.205,3.337-2.205,5.312
		c0,1.984,0.802,3.919,2.205,5.312c1.393,1.404,3.327,2.205,5.312,2.205c1.975,0,3.909-0.801,5.312-2.205
		c1.403-1.393,2.205-3.328,2.205-5.312c0-1.975-0.802-3.919-2.205-5.312C116.817,69.789,114.873,68.987,112.898,68.987z"/>
	<path style="fill:#3F2D20;" d="M54.164,68.987c-1.985,0-3.919,0.801-5.323,2.205c-1.393,1.393-2.195,3.337-2.195,5.312
		c0,1.984,0.802,3.919,2.195,5.312c1.404,1.404,3.338,2.205,5.323,2.205c1.974,0,3.908-0.801,5.312-2.205
		c1.403-1.393,2.205-3.328,2.205-5.312c0-1.975-0.802-3.919-2.205-5.312C58.083,69.789,56.138,68.987,54.164,68.987z"/>
	<path style="fill:#3F2D20;" d="M171.631,68.987c-1.984,0-3.919,0.801-5.312,2.205c-1.403,1.393-2.205,3.337-2.205,5.312
		c0,1.984,0.803,3.919,2.205,5.312c1.393,1.404,3.328,2.205,5.312,2.205c1.975,0,3.919-0.801,5.313-2.205
		c1.403-1.393,2.204-3.328,2.204-5.312c0-1.975-0.802-3.909-2.204-5.312C175.55,69.789,173.616,68.987,171.631,68.987z"/>
	<path style="fill:#3F2D20;" d="M142.264,123.862c-1.984,0-3.918,0.801-5.322,2.194c-1.394,1.404-2.195,3.338-2.195,5.323
		c0,1.974,0.801,3.908,2.195,5.312c1.404,1.404,3.348,2.205,5.322,2.205c1.974,0,3.919-0.801,5.312-2.205
		c1.404-1.404,2.205-3.338,2.205-5.312c0-1.985-0.801-3.919-2.205-5.323C146.183,124.664,144.248,123.862,142.264,123.862z"/>
	<path style="fill:#3F2D20;" d="M83.531,123.862c-1.984,0-3.919,0.801-5.322,2.194c-1.394,1.404-2.195,3.338-2.195,5.323
		c0,1.974,0.802,3.908,2.195,5.312c1.403,1.404,3.338,2.205,5.322,2.205c1.974,0,3.918-0.801,5.312-2.205
		c1.404-1.393,2.205-3.338,2.205-5.312c0-1.985-0.802-3.919-2.205-5.323C87.449,124.664,85.505,123.862,83.531,123.862z"/>
	<path style="fill:#3F2D20;" d="M112.898,178.727c-1.985,0-3.919,0.801-5.323,2.204c-1.393,1.394-2.195,3.338-2.195,5.313
		c0,1.984,0.802,3.918,2.195,5.312c1.403,1.403,3.347,2.205,5.323,2.205c1.975,0,3.909-0.802,5.312-2.205
		c1.403-1.394,2.205-3.338,2.205-5.312c0-1.975-0.802-3.909-2.205-5.313C116.807,179.529,114.873,178.727,112.898,178.727z"/>
	<path style="fill:#3F2D20;" d="M142.264,233.602c-1.984,0-3.918,0.802-5.312,2.195c-1.404,1.404-2.205,3.338-2.205,5.323
		c0,1.974,0.801,3.908,2.205,5.312c1.394,1.403,3.338,2.205,5.312,2.205c1.984,0,3.919-0.802,5.312-2.205
		c1.404-1.404,2.205-3.338,2.205-5.312c0-1.985-0.801-3.919-2.205-5.323C146.183,234.404,144.248,233.602,142.264,233.602z"/>
	<path style="fill:#3F2D20;" d="M83.531,233.602c-1.984,0-3.919,0.802-5.322,2.195c-1.394,1.404-2.195,3.338-2.195,5.323
		c0,1.974,0.802,3.908,2.195,5.312c1.403,1.403,3.338,2.205,5.322,2.205c1.974,0,3.908-0.802,5.312-2.205
		c1.404-1.404,2.205-3.338,2.205-5.312c0-1.985-0.802-3.919-2.205-5.323C87.449,234.404,85.505,233.602,83.531,233.602z"/>
	<path style="fill:#3F2D20;" d="M230.305,68.987c-1.985,0-3.919,0.801-5.323,2.205c-1.394,1.393-2.195,3.337-2.195,5.312
		c0,1.984,0.801,3.919,2.195,5.312c1.403,1.404,3.338,2.205,5.323,2.205c1.973,0,3.908-0.801,5.311-2.205
		c1.403-1.393,2.206-3.328,2.206-5.312c0-1.975-0.802-3.919-2.206-5.312C234.223,69.789,232.279,68.987,230.305,68.987z"/>
	<path style="fill:#3F2D20;" d="M200.938,123.862c-1.985,0-3.919,0.801-5.323,2.194c-1.392,1.404-2.195,3.338-2.195,5.323
		c0,1.974,0.803,3.908,2.195,5.312c1.404,1.404,3.338,2.205,5.323,2.205c1.975,0,3.909-0.801,5.313-2.205
		c1.402-1.404,2.204-3.338,2.204-5.312c0-1.985-0.802-3.919-2.204-5.323C204.857,124.664,202.913,123.862,200.938,123.862z"/>
	<path style="fill:#3F2D20;" d="M171.571,178.727c-1.984,0-3.919,0.801-5.321,2.204c-1.394,1.394-2.206,3.338-2.206,5.313
		c0,1.984,0.812,3.918,2.206,5.312c1.402,1.403,3.338,2.205,5.321,2.205c1.974,0,3.908-0.802,5.312-2.205
		c1.404-1.394,2.205-3.328,2.205-5.312c0-1.975-0.802-3.919-2.205-5.313C175.48,179.529,173.545,178.727,171.571,178.727z"/>
	<path style="fill:#3F2D20;" d="M200.938,233.602c-1.985,0-3.919,0.802-5.323,2.195c-1.392,1.404-2.195,3.338-2.195,5.323
		c0,1.974,0.803,3.908,2.195,5.312c1.404,1.403,3.338,2.205,5.323,2.205c1.975,0,3.909-0.802,5.313-2.205
		c1.402-1.404,2.204-3.338,2.204-5.312c0-1.985-0.802-3.919-2.204-5.323C204.857,234.404,202.913,233.602,200.938,233.602z"/>
</g>
<g>
</g>
<g>
</g>
<g>
</g>
<g>
</g>
<g>
</g>
<g>
</g>
<g>
</g>
<g>
</g>
<g>
</g>
<g>
</g>
<g>
</g>
<g>
</g>
<g>
</g>
<g>
</g>
<g>
</g>
</svg>
