<?xml version="1.0" encoding="iso-8859-1"?>
<!-- Generator: Adobe Illustrator 18.0.0, SVG Export Plug-In . SVG Version: 6.00 Build 0)  -->
<!DOCTYPE svg PUBLIC "-//W3C//DTD SVG 1.1//EN" "http://www.w3.org/Graphics/SVG/1.1/DTD/svg11.dtd">
<svg version="1.1" id="Capa_1" xmlns="http://www.w3.org/2000/svg" xmlns:xlink="http://www.w3.org/1999/xlink" x="0px" y="0px"
	 viewBox="0 0 300.825 300.825" style="enable-background:new 0 0 300.825 300.825;" xml:space="preserve">
<g>
	<path style="fill:#F2594B;" d="M238.525,36.469l-53.002-15.904c-39.088,17.005-69.565,0-69.565,0L63.397,36.7L3.549,61.434
		l12.588,47.923h49.911v170.485H234.33V108.686h50.352l12.366-47.262L238.525,36.469z"/>
	<rect x="65.067" y="142.726" style="fill:#F2E1AC;" width="169.508" height="75.638"/>
	<rect x="65.067" y="231.442" style="fill:#F2E1AC;" width="169.508" height="30.818"/>
	<rect x="65.067" y="117.417" style="fill:#F2E1AC;" width="169.508" height="15.408"/>
	<path style="fill:#F2594B;" d="M151.861,29.556c-15.808,0-34.223-3.437-36.009-9.484c0,0,3.435,31.059,33.535,31.884
		c0,0,31.062-1.374,35.459-33.122C184.847,18.834,167.666,29.556,151.861,29.556"/>
	<g style="opacity:0.63;">
		<path style="fill:#2E2140;" d="M151.861,29.556c-15.808,0-34.223-3.437-36.009-9.484c0,0,3.435,31.059,33.535,31.884
			c0,0,31.062-1.374,35.459-33.122C184.847,18.834,167.666,29.556,151.861,29.556"/>
	</g>
	<g>
		<path style="fill:#2E2140;" d="M297.895,57.514c-10.816-3.871-58.209-23.282-58.687-23.479l-53.022-16.802l-1.573-0.489
			l-1.363,0.911c-0.119,0.08-12.083,7.918-32.84,7.918c-20.762,0-32.748-7.84-32.858-7.914l-1.367-0.924L61.858,33.942l-0.266,0.094
			c-0.477,0.196-47.862,19.607-58.666,23.479L0,58.562l13.691,53.525l2.607,0.043c11.124,0.182,36.769,0.537,45.975,0.666V284.09
			h176.263V112.796c9.206-0.129,34.851-0.484,45.977-0.666l2.606-0.043l13.707-53.526L297.895,57.514z M231.704,106.059v164.364
			h-162.6V106.059l-0.629-0.008c2.407-5.42,6.015-16.003,6.015-30.818c0-18.209-5.911-29.234-9.172-35.226l42.205-13.367
			c4.76,20.023,21.848,33.676,42.813,33.676h0.141c20.958,0,38.039-13.652,42.803-33.673l42.204,13.365
			c-3.26,5.993-9.163,17.021-9.163,35.226c0,14.815,3.61,25.398,6.019,30.818L231.704,106.059z M150.373,54.232h0.066
			c17.517,0,32.322-12.232,36.512-29.593l4.691,1.487c-4.54,19.306-20.981,32.48-41.168,32.48c-0.047,0.002-0.089,0.002-0.136,0
			c-20.193,0-36.641-13.175-41.179-32.482l4.687-1.487C118.055,42,132.868,54.232,150.373,54.232 M122.467,32.574
			c6.127,2.403,15.6,5,27.942,5c12.325,0,21.8-2.597,27.933-4.998c-5.712,10.03-16.088,16.533-27.908,16.533h-0.055
			C138.57,49.109,128.191,42.605,122.467,32.574 M181.106,26.436c-0.441,1.312-0.971,2.571-1.553,3.796
			c-5.828,2.515-15.755,5.635-29.145,5.635c-13.413,0-23.338-3.124-29.16-5.638c-0.579-1.225-1.11-2.483-1.554-3.793
			c6.035,2.632,16.487,5.967,30.714,5.967C164.635,32.403,175.076,29.068,181.106,26.436 M8.149,62.863
			c1.07-0.406,2.29-0.878,3.61-1.388l11.153,43.928c-1.384-0.021-2.698-0.043-3.897-0.061L8.149,62.863z M26.449,105.454
			L14.965,60.223c16.448-6.46,44.386-17.889,48.71-19.659c0.016,0.029,0.026,0.051,0.044,0.082
			c3.167,5.815,9.063,16.639,9.063,34.588c0,15.039-3.895,25.757-6.198,30.792l-0.849-0.012
			C65.735,106.014,42.597,105.696,26.449,105.454 M69.104,273.837h162.6v3.42h-162.6V273.837z M235.072,106.014l-0.841,0.012
			c-2.307-5.035-6.205-15.753-6.205-30.792c0-17.958,5.895-28.782,9.061-34.597c0.014-0.026,0.025-0.047,0.039-0.073
			c4.324,1.769,32.268,13.199,48.726,19.661l-11.499,45.229C258.205,105.696,235.072,106.014,235.072,106.014 M281.796,105.342
			c-1.203,0.018-2.518,0.04-3.905,0.061l11.166-43.928c1.322,0.512,2.542,0.984,3.616,1.39L281.796,105.342z"/>
	</g>
</g>
<g>
</g>
<g>
</g>
<g>
</g>
<g>
</g>
<g>
</g>
<g>
</g>
<g>
</g>
<g>
</g>
<g>
</g>
<g>
</g>
<g>
</g>
<g>
</g>
<g>
</g>
<g>
</g>
<g>
</g>
</svg>
