<?xml version="1.0" encoding="iso-8859-1"?>
<!-- Generator: Adobe Illustrator 19.0.0, SVG Export Plug-In . SVG Version: 6.00 Build 0)  -->
<svg version="1.1" id="Layer_1" xmlns="http://www.w3.org/2000/svg" xmlns:xlink="http://www.w3.org/1999/xlink" x="0px" y="0px"
	 viewBox="0 0 495 495" style="enable-background:new 0 0 495 495;" xml:space="preserve">
<g>
	<path style="fill:#FFB655;" d="M335.7,495v-18.709C308.313,488.547,278.404,495,247.5,495H335.7z"/>
	<path style="fill:#FFB655;" d="M247.5,259h-216v20c0,57.696,22.468,111.938,63.265,152.735
		c18.945,18.945,40.792,33.93,64.535,44.556V495h88.2V259z"/>
	<path style="fill:#FFEB99;" d="M146.748,229h40c0-24.993,4.391-36.682,9.475-50.217c5.639-15.011,12.029-32.025,12.029-64.283
		c0-32.257-6.391-49.271-12.029-64.282c-5.083-13.536-9.475-25.225-9.475-50.218h-40c0,32.257,6.391,49.271,12.029,64.282
		c5.083,13.536,9.475,25.225,9.475,50.218s-4.391,36.682-9.475,50.217C153.139,179.729,146.748,196.743,146.748,229z"/>
	<path style="fill:#FFEB99;" d="M216.748,229h40c0-24.993,4.391-36.682,9.475-50.217c5.639-15.011,12.029-32.025,12.029-64.283
		s-6.391-49.271-12.029-64.283c-5.084-13.535-9.475-25.225-9.475-50.217h-40c0,32.257,6.391,49.271,12.029,64.282
		c5.084,13.535,9.475,25.225,9.475,50.218c0,24.993-4.391,36.682-9.475,50.217C223.139,179.729,216.748,196.743,216.748,229z"/>
	<path style="fill:#FFEB99;" d="M286.748,229h40c0-24.993,4.391-36.682,9.475-50.217c5.639-15.011,12.029-32.025,12.029-64.283
		s-6.391-49.271-12.029-64.283c-5.084-13.535-9.475-25.225-9.475-50.217h-40c0,32.257,6.391,49.271,12.029,64.283
		c5.084,13.535,9.475,25.225,9.475,50.217s-4.391,36.682-9.475,50.217C293.139,179.729,286.748,196.743,286.748,229z"/>
	<path style="fill:#FFA733;" d="M247.5,259v236c30.904,0,60.813-6.453,88.2-18.709c23.743-10.625,45.59-25.611,64.535-44.556
		C441.032,390.938,463.5,336.696,463.5,279v-20H247.5z"/>
</g>
<g>
</g>
<g>
</g>
<g>
</g>
<g>
</g>
<g>
</g>
<g>
</g>
<g>
</g>
<g>
</g>
<g>
</g>
<g>
</g>
<g>
</g>
<g>
</g>
<g>
</g>
<g>
</g>
<g>
</g>
</svg>
