<?xml version="1.0" encoding="iso-8859-1"?>
<!-- Generator: Adobe Illustrator 18.0.0, SVG Export Plug-In . SVG Version: 6.00 Build 0)  -->
<!DOCTYPE svg PUBLIC "-//W3C//DTD SVG 1.1//EN" "http://www.w3.org/Graphics/SVG/1.1/DTD/svg11.dtd">
<svg version="1.1" id="Capa_1" xmlns="http://www.w3.org/2000/svg" xmlns:xlink="http://www.w3.org/1999/xlink" x="0px" y="0px"
	 viewBox="0 0 296.438 296.438" style="enable-background:new 0 0 296.438 296.438;" xml:space="preserve">
<g>
	<g>
		<rect x="134.402" y="198.504" style="fill:#FDBD1D;" width="29" height="86"/>
		<g>
			<path style="fill:#FDBD1D;" d="M158.147,16.81c0.5,0.541,0.976,1.104,1.41,1.701C159.123,17.914,158.647,17.351,158.147,16.81z"
				/>
			<path style="fill:#FDBD1D;" d="M157.746,16.396c-0.427-0.436-0.874-0.85-1.341-1.242
				C156.872,15.546,157.319,15.961,157.746,16.396z"/>
			<path style="fill:#FDBD1D;" d="M144.398,10.759c0.792,0,1.569,0.067,2.337,0.163C145.967,10.826,145.19,10.759,144.398,10.759z"
				/>
			<path style="fill:#FDBD1D;" d="M159.687,18.706c0.386,0.546,0.739,1.116,1.066,1.703
				C160.425,19.822,160.073,19.251,159.687,18.706z"/>
			<path style="fill:#FDBD1D;" d="M147.349,11.013c0.648,0.104,1.285,0.237,1.91,0.406C148.634,11.25,147.996,11.116,147.349,11.013
				z"/>
			<path style="fill:#FDBD1D;" d="M149.612,11.506c0.721,0.21,1.421,0.468,2.104,0.76C151.032,11.974,150.332,11.716,149.612,11.506
				z"/>
			<path style="fill:#FDBD1D;" d="M163.218,28.36c-0.172-2.783-1.025-5.385-2.273-7.703c-2.633-1.41-5.66-2.213-8.833-2.213
				c-9.88,0-17.566,7.731-18.174,17.6c-0.012,0.194,0.464,0.384,0.464,0.571v13.889h29v-21.58
				C163.402,28.739,163.23,28.551,163.218,28.36z"/>
			<path style="fill:#FDBD1D;" d="M152.222,12.499c0.549,0.254,1.084,0.533,1.603,0.838
				C153.306,13.033,152.772,12.754,152.222,12.499z"/>
			<path style="fill:#FDBD1D;" d="M154.267,13.593c0.624,0.388,1.224,0.811,1.796,1.268
				C155.491,14.404,154.891,13.982,154.267,13.593z"/>
		</g>
		<rect x="134.402" y="125.504" style="fill:#FDBD1D;" width="29" height="11"/>
		<polygon style="fill:#FDBD1D;" points="45.974,173.78 65.144,187.504 201.402,187.504 201.402,155.504 72.764,155.504 		"/>
		<rect x="125.628" y="125.515" style="fill:none;" width="37.538" height="11.804"/>
		<rect x="125.628" y="198.472" style="fill:none;" width="37.538" height="87.208"/>
		<path style="fill:none;" d="M163.166,28.924c-0.031-0.185-0.054-0.373-0.066-0.564c-0.609-9.87-8.824-17.601-18.702-17.601
			c-9.879,0-18.096,7.731-18.704,17.6c-0.012,0.194-0.034,0.384-0.066,0.571v22.648h37.538V28.924z"/>
		<polygon style="fill:none;" points="36.717,167.399 65.144,187.712 202.447,187.712 202.447,148.078 65.078,148.078 		"/>
		<polygon style="fill:none;" points="101.678,70.022 101.678,114.756 230.964,114.756 260.953,87.89 240.034,70.022 		"/>
		<polygon style="fill:#FDBD1D;" points="240.034,69.504 101.402,69.504 101.402,114.504 230.964,114.504 260.953,87.505 		"/>
		<path style="fill:#B74B00;" d="M272.616,83.703l-36.101-30.835c-0.973-0.832-2.212-1.289-3.493-1.289h-59.097v-23.55
			c0-0.446-0.055-0.879-0.162-1.293C172.343,11.667,159.625,0,144.398,0c-15.22,0-27.932,11.651-29.365,26.705
			c-0.107,0.423-0.164,0.866-0.164,1.322v23.55H88.614c-2.97,0-5.379,2.408-5.379,5.38v63.178c0,2.971,2.409,5.379,5.379,5.379
			h26.255v11.804H63.42c-1.081,0-2.136,0.326-3.029,0.935l-36.103,24.594c-1.453,0.99-2.329,2.627-2.35,4.386
			c-0.019,1.758,0.821,3.415,2.252,4.437l36.103,25.799c0.913,0.652,2.005,1.003,3.128,1.003h51.449v87.208h-57.71
			c-2.972,0-5.38,2.408-5.38,5.38c0,2.97,2.407,5.38,5.38,5.38h63.089h48.297h63.086c2.97,0,5.38-2.409,5.38-5.38
			c0-2.972-2.409-5.38-5.38-5.38h-57.707v-87.208h33.901c2.972,0,5.38-2.408,5.38-5.38v-50.394c0-2.97-2.408-5.38-5.38-5.38h-33.901
			v-11.804h59.097c1.324,0,2.603-0.488,3.589-1.372L272.712,91.8c1.156-1.035,1.809-2.518,1.789-4.07
			C274.483,86.178,273.796,84.71,272.616,83.703z M125.628,28.93c0.032-0.187,0.054-0.377,0.066-0.571
			c0.608-9.869,8.824-17.6,18.704-17.6c9.878,0,18.093,7.731,18.702,17.601c0.012,0.191,0.035,0.38,0.066,0.564v22.654h-37.538
			V28.93z M163.166,285.679h-37.538v-87.208h37.538V285.679z M202.447,148.078v39.635H65.144l-28.427-20.313l28.361-19.322H202.447z
			 M125.628,137.319v-11.804h37.538v11.804H125.628z M230.964,114.756H101.678h-7.685V62.337h137.043l8.998,7.685l20.919,17.868
			L230.964,114.756z"/>
	</g>
</g>
<g>
</g>
<g>
</g>
<g>
</g>
<g>
</g>
<g>
</g>
<g>
</g>
<g>
</g>
<g>
</g>
<g>
</g>
<g>
</g>
<g>
</g>
<g>
</g>
<g>
</g>
<g>
</g>
<g>
</g>
</svg>
