<?xml version="1.0" encoding="iso-8859-1"?>
<!-- Generator: Adobe Illustrator 18.0.0, SVG Export Plug-In . SVG Version: 6.00 Build 0)  -->
<!DOCTYPE svg PUBLIC "-//W3C//DTD SVG 1.1//EN" "http://www.w3.org/Graphics/SVG/1.1/DTD/svg11.dtd">
<svg version="1.1" id="Capa_1" xmlns="http://www.w3.org/2000/svg" xmlns:xlink="http://www.w3.org/1999/xlink" x="0px" y="0px"
	 viewBox="0 0 162.732 162.732" style="enable-background:new 0 0 162.732 162.732;" xml:space="preserve">
<g>
	<path style="fill:#1E1723;" d="M78.366,32.656c-4.761,1.16-8.759,5.422-9.132,10.997c-23.739,4.883-42.415,23.775-46.96,47.635
		c-0.002,0.005-0.005,0.01-0.007,0.015c-0.692,3.65-1.068,7.411-1.068,11.262c0,3.851,0.376,7.611,1.068,11.261
		c0.003,0.005,0.005,0.01,0.008,0.015c4.599,24.148,23.669,43.217,47.818,47.816c0.005,0.003,0.011,0.005,0.016,0.008
		c3.648,0.691,7.408,1.067,11.258,1.067c3.848,0,7.605-0.376,11.253-1.066c0.005-0.003,0.011-0.005,0.016-0.008
		c24.155-4.597,43.229-23.672,47.825-47.828c0.003-0.005,0.006-0.011,0.009-0.016c0.689-3.646,1.066-7.403,1.066-11.249
		c0-3.847-0.376-7.604-1.066-11.251c-0.003-0.005-0.005-0.011-0.008-0.016c-4.541-23.864-23.218-42.76-46.96-47.645
		c-0.362-5.8-4.41-10.182-10.134-11.124V2.5c0-1.381-1.119-2.5-2.5-2.5c-1.381,0-2.5,1.119-2.5,2.5V32.656z M102.268,117.46
		c0.624-4.838,0.967-9.811,0.967-14.896c0-5.086-0.343-10.058-0.967-14.896c6.363,1.221,12.404,2.985,18.021,5.217
		c0.456,3.154,0.701,6.385,0.701,9.68c0,3.294-0.245,6.525-0.7,9.679C114.672,114.475,108.631,116.238,102.268,117.46z
		 M119.209,117.956c-1.363,5.788-3.475,11.246-6.219,16.235c-4.988,2.743-10.447,4.855-16.235,6.219
		c2.028-5.585,3.626-11.52,4.724-17.731C107.69,121.581,113.625,119.984,119.209,117.956z M101.479,82.449
		c-1.06-5.993-2.58-11.732-4.508-17.145c-0.07-0.197-0.145-0.39-0.216-0.586c0.136,0.032,0.269,0.071,0.403,0.104
		c5.638,1.366,10.96,3.436,15.832,6.115c2.743,4.989,4.855,10.447,6.219,16.236C113.625,85.144,107.69,83.547,101.479,82.449z
		 M97.129,86.798c0.724,5.097,1.105,10.368,1.105,15.766c0,5.364-0.379,10.603-1.094,15.669c-0.004,0.032-0.008,0.064-0.012,0.096
		c-0.041,0.006-0.083,0.01-0.124,0.015c-5.058,0.713-10.288,1.091-15.642,1.091c-4.969,0-9.826-0.337-14.543-0.953
		c-0.406-0.053-0.818-0.095-1.222-0.153c-0.032-0.224-0.054-0.453-0.085-0.677c-0.317-2.334-0.571-4.7-0.74-7.102
		c-0.003-0.049-0.004-0.099-0.008-0.147c-0.178-2.579-0.273-5.193-0.273-7.838c0-5.379,0.38-10.632,1.099-15.712
		c0.003-0.018,0.004-0.036,0.007-0.054c0.03-0.004,0.062-0.007,0.092-0.011c5.068-0.716,10.308-1.095,15.673-1.095
		C86.761,85.692,92.033,86.075,97.129,86.798z M96.26,123.469c-1.222,6.363-2.985,12.403-5.217,18.02
		c-3.154,0.456-6.386,0.701-9.68,0.701c-3.294,0-6.525-0.245-9.679-0.701c-2.231-5.617-3.995-11.657-5.216-18.021
		c4.838,0.623,9.811,0.967,14.896,0.967C86.449,124.436,91.421,124.092,96.26,123.469z M60.459,87.668
		c-0.624,4.839-0.967,9.811-0.967,14.896c0,5.085,0.343,10.057,0.967,14.896c-6.363-1.221-12.404-2.985-18.02-5.216
		c-0.457-3.154-0.701-6.385-0.701-9.679c0-3.295,0.245-6.526,0.701-9.68C48.055,90.653,54.096,88.889,60.459,87.668z M43.518,87.172
		c1.333-5.655,3.385-10.99,6.037-15.886c0.035-0.065,0.067-0.133,0.103-0.198c0.027-0.05,0.052-0.102,0.079-0.152
		c4.989-2.743,10.447-4.854,16.235-6.219c-2.028,5.584-3.625,11.52-4.724,17.731C55.038,83.547,49.102,85.144,43.518,87.172z
		 M61.248,122.679c1.098,6.211,2.695,12.146,4.724,17.731c-5.789-1.364-11.247-3.476-16.236-6.219
		c-2.743-4.989-4.854-10.447-6.219-16.236C49.102,119.984,55.037,121.581,61.248,122.679z M81.363,80.692
		c-5.085,0-10.057,0.343-14.896,0.967c1.221-6.363,2.985-12.404,5.217-18.021c3.154-0.456,6.385-0.701,9.679-0.701
		c3.294,0,6.526,0.245,9.68,0.701c2.23,5.616,3.995,11.657,5.217,18.02C91.42,81.036,86.449,80.692,81.363,80.692z M81.363,57.938
		c-2.497,0-4.959,0.139-7.384,0.386c2.153-4.543,4.636-8.737,7.385-12.539c2.749,3.802,5.232,7.996,7.385,12.539
		C86.323,58.077,83.861,57.938,81.363,57.938z M71.791,48.246c0.744-0.131,1.492-0.247,2.245-0.348
		c-2.164,3.514-4.134,7.266-5.863,11.248c-4.592,0.852-9.006,2.148-13.2,3.821C59.64,56.927,65.348,51.908,71.791,48.246z
		 M57.258,52.954c-4.316,4.16-8.084,8.984-11.175,14.329c-5.344,3.09-10.167,6.857-14.327,11.173
		C37.164,67.373,46.176,58.361,57.258,52.954z M41.767,76.173c-1.673,4.194-2.97,8.608-3.821,13.2
		c-4.453,1.935-8.629,4.163-12.493,6.637C29.184,88.325,34.799,81.556,41.767,76.173z M37.123,109.949
		c-3.897-1.847-7.536-3.937-10.896-6.227c-0.008-0.386-0.029-0.769-0.029-1.157c0-0.389,0.021-0.772,0.029-1.158
		c3.359-2.291,6.999-4.38,10.896-6.227c-0.247,2.426-0.386,4.888-0.386,7.385C36.738,105.062,36.876,107.523,37.123,109.949z
		 M25.469,109.129c3.859,2.47,8.029,4.695,12.477,6.626c0.852,4.592,2.148,9.006,3.821,13.2
		c-6.963-5.379-12.574-12.143-16.305-19.82C25.464,109.133,25.467,109.131,25.469,109.129z M31.756,126.672
		c4.16,4.315,8.983,8.082,14.327,11.173c3.091,5.345,6.858,10.169,11.175,14.329C46.175,146.767,37.163,137.754,31.756,126.672z
		 M71.791,156.882c-6.443-3.662-12.152-8.681-16.818-14.721c4.194,1.673,8.608,2.969,13.2,3.821c1.729,3.981,3.7,7.733,5.863,11.248
		C73.282,157.129,72.535,157.013,71.791,156.882z M81.366,157.731c-0.389,0-0.772-0.021-1.159-0.029
		c-2.29-3.36-4.381-7-6.229-10.898c2.426,0.247,4.888,0.386,7.385,0.386c2.497,0,4.959-0.139,7.385-0.386
		c-1.847,3.898-3.938,7.538-6.229,10.898C82.135,157.71,81.753,157.731,81.366,157.731z M87.918,158.475
		c2.475-3.863,4.702-8.039,6.637-12.493c4.592-0.852,9.006-2.148,13.2-3.821C102.372,149.129,95.603,154.743,87.918,158.475z
		 M105.465,152.178c4.318-4.162,8.088-8.987,11.18-14.334c5.348-3.093,10.174-6.863,14.336-11.182
		C125.573,137.752,116.555,146.77,105.465,152.178z M120.961,128.955c1.672-4.194,2.969-8.608,3.82-13.2
		c4.453-1.935,8.629-4.163,12.493-6.636C133.543,116.802,127.929,123.571,120.961,128.955z M125.604,95.179
		c3.898,1.848,7.539,3.938,10.899,6.229c0.008,0.386,0.029,0.768,0.029,1.156c0,0.387-0.021,0.77-0.029,1.155
		c-3.36,2.291-7.001,4.382-10.899,6.229c0.247-2.426,0.386-4.887,0.386-7.384C125.99,100.067,125.851,97.605,125.604,95.179z
		 M124.782,89.373c-0.834-4.498-2.093-8.828-3.716-12.945c-0.034-0.086-0.071-0.169-0.105-0.255c0.078,0.06,0.155,0.121,0.231,0.182
		c3.22,2.512,6.15,5.317,8.731,8.378c0.355,0.42,0.696,0.848,1.037,1.277c2.47,3.109,4.593,6.456,6.314,10
		C133.411,93.536,129.235,91.307,124.782,89.373z M130.98,78.465c-4.162-4.319-8.988-8.089-14.335-11.182
		c-3.093-5.347-6.861-10.172-11.18-14.334C116.554,58.358,125.571,67.376,130.98,78.465z M107.754,62.967
		c-4.193-1.673-8.607-2.97-13.199-3.821c-1.729-3.981-3.7-7.733-5.864-11.248c0.753,0.101,1.501,0.216,2.243,0.347
		C97.378,51.907,103.088,56.926,107.754,62.967z M88.313,42.809c-2.281-0.262-4.596-0.412-6.947-0.412
		c-2.353,0-4.669,0.149-6.951,0.412c0.539-2.241,2.102-4.061,4.179-4.926C78.78,39.081,79.806,40,81.055,40
		c1.324,0,2.396-1.032,2.483-2.334C85.907,38.413,87.723,40.358,88.313,42.809z"/>
	<path style="fill:#07EBC4;" d="M65.598,86.798c-0.002,0.018-0.004,0.036-0.007,0.054c0.032-0.024,0.066-0.043,0.099-0.065
		C65.66,86.791,65.628,86.794,65.598,86.798z"/>
	<path style="fill:#07EBC4;" d="M64.766,110.403c0.003,0.049,0.004,0.099,0.008,0.147c0.008-0.007,0.015-0.015,0.022-0.021
		C64.785,110.488,64.776,110.444,64.766,110.403z"/>
	<path style="fill:#07EBC4;" d="M49.658,71.088c-0.036,0.065-0.068,0.133-0.103,0.198c0.04-0.039,0.081-0.084,0.121-0.122
		C49.668,71.14,49.664,71.114,49.658,71.088z"/>
	<path style="fill:#07EBC4;" d="M120.99,102.564c0-3.295-0.245-6.525-0.701-9.68c-5.616-2.232-11.657-3.996-18.021-5.217
		c0.624,4.839,0.967,9.811,0.967,14.896c0,5.085-0.343,10.057-0.967,14.896c6.363-1.222,12.404-2.985,18.021-5.217
		C120.745,109.089,120.99,105.858,120.99,102.564z"/>
	<path style="fill:#07EBC4;" d="M120.96,76.173c0.034,0.085,0.071,0.169,0.105,0.255c0.04-0.027,0.085-0.048,0.126-0.073
		C121.116,76.294,121.039,76.233,120.96,76.173z"/>
	<path style="fill:#07EBC4;" d="M130.96,86.009c-0.341-0.429-0.683-0.857-1.037-1.277c0.144,0.344,0.3,0.72,0.471,1.104
		C130.59,85.885,130.774,85.949,130.96,86.009z"/>
	<path style="fill:#07EBC4;" d="M97.129,118.33c0.004-0.032,0.008-0.064,0.012-0.096c-0.046,0.037-0.088,0.076-0.136,0.111
		C97.046,118.339,97.088,118.335,97.129,118.33z"/>
	<path style="fill:#07EBC4;" d="M26.228,101.406c-0.008,0.386-0.029,0.769-0.029,1.158c0,0.388,0.021,0.771,0.029,1.157
		c3.359,2.29,6.999,4.38,10.896,6.227c-0.247-2.426-0.386-4.887-0.386-7.384c0-2.498,0.139-4.959,0.386-7.385
		C33.226,97.026,29.587,99.116,26.228,101.406z"/>
	<path style="fill:#07EBC4;" d="M65.598,118.33c0.404,0.058,0.816,0.1,1.222,0.153c-0.5-0.227-0.931-0.503-1.307-0.83
		C65.544,117.877,65.566,118.105,65.598,118.33z"/>
	<path style="fill:#07EBC4;" d="M41.738,102.564c0,3.294,0.245,6.525,0.701,9.679c5.616,2.231,11.657,3.995,18.02,5.216
		c-0.624-4.838-0.967-9.811-0.967-14.896c0-5.086,0.343-10.058,0.967-14.896c-6.363,1.221-12.404,2.985-18.02,5.216
		C41.982,96.039,41.738,99.27,41.738,102.564z"/>
	<path style="fill:#07EBC4;" d="M46.083,67.283c3.091-5.344,6.858-10.168,11.175-14.329c-11.083,5.407-20.094,14.419-25.502,25.501
		C35.916,74.14,40.74,70.373,46.083,67.283z"/>
	<path style="fill:#07EBC4;" d="M46.083,137.845c-5.344-3.09-10.167-6.857-14.327-11.173c5.407,11.082,14.42,20.095,25.502,25.502
		C52.941,148.014,49.174,143.189,46.083,137.845z"/>
	<path style="fill:#07EBC4;" d="M68.173,59.146c1.729-3.981,3.7-7.733,5.863-11.248c-0.753,0.101-1.501,0.217-2.245,0.348
		c-6.443,3.662-12.151,8.681-16.818,14.721C59.167,61.294,63.581,59.998,68.173,59.146z"/>
	<path style="fill:#07EBC4;" d="M96.755,64.718c0.071,0.196,0.146,0.39,0.216,0.586c0.061-0.162,0.119-0.323,0.188-0.482
		C97.024,64.789,96.891,64.75,96.755,64.718z"/>
	<path style="fill:#07EBC4;" d="M81.363,62.938c-3.294,0-6.525,0.245-9.679,0.701c-2.231,5.617-3.996,11.657-5.217,18.021
		c4.838-0.624,9.811-0.967,14.896-0.967c5.085,0,10.057,0.344,14.897,0.967c-1.222-6.363-2.986-12.404-5.217-18.02
		C87.889,63.183,84.658,62.938,81.363,62.938z"/>
	<path style="fill:#07EBC4;" d="M54.973,142.161c4.667,6.04,10.375,11.059,16.818,14.721c0.744,0.131,1.491,0.247,2.245,0.348
		c-2.164-3.514-4.134-7.266-5.863-11.248C63.58,145.13,59.167,143.834,54.973,142.161z"/>
	<path style="fill:#07EBC4;" d="M116.645,67.283c5.347,3.093,10.173,6.863,14.335,11.182c-5.409-11.089-14.426-20.106-25.515-25.515
		C109.784,57.111,113.552,61.937,116.645,67.283z"/>
	<path style="fill:#07EBC4;" d="M88.691,47.898c2.164,3.515,4.135,7.267,5.864,11.248c4.592,0.852,9.006,2.148,13.199,3.821
		c-4.666-6.041-10.376-11.061-16.82-14.722C90.192,48.114,89.444,47.999,88.691,47.898z"/>
	<path style="fill:#07EBC4;" d="M116.645,137.845c-3.092,5.347-6.861,10.172-11.18,14.334c11.09-5.409,20.107-14.426,25.516-25.516
		C126.819,130.981,121.993,134.752,116.645,137.845z"/>
	<path style="fill:#07EBC4;" d="M66.468,123.469c1.221,6.363,2.985,12.404,5.216,18.021c3.154,0.456,6.385,0.701,9.679,0.701
		c3.294,0,6.526-0.245,9.68-0.701c2.231-5.617,3.995-11.657,5.217-18.02c-4.839,0.623-9.811,0.967-14.897,0.967
		C76.278,124.436,71.306,124.092,66.468,123.469z"/>
	<path style="fill:#07EBC4;" d="M96.755,140.41c5.788-1.364,11.247-3.476,16.235-6.219c2.744-4.989,4.855-10.447,6.219-16.235
		c-5.584,2.028-11.52,3.626-17.73,4.724C100.381,128.89,98.784,134.826,96.755,140.41z"/>
	<path style="fill:#07EBC4;" d="M81.363,147.19c-2.497,0-4.959-0.139-7.385-0.386c1.847,3.898,3.938,7.538,6.229,10.898
		c0.387,0.008,0.77,0.029,1.159,0.029c0.387,0,0.769-0.021,1.154-0.029c2.291-3.36,4.382-7,6.229-10.898
		C86.323,147.051,83.861,147.19,81.363,147.19z"/>
	<path style="fill:#07EBC4;" d="M136.503,103.719c0.008-0.385,0.029-0.768,0.029-1.155c0-0.388-0.021-0.77-0.029-1.156
		c-3.36-2.291-7.001-4.382-10.899-6.229c0.247,2.426,0.386,4.888,0.386,7.385c0,2.497-0.139,4.958-0.386,7.384
		C129.502,108.101,133.143,106.01,136.503,103.719z"/>
	<path style="fill:#E1FDF8;" d="M65.972,64.718c-5.788,1.364-11.246,3.476-16.235,6.219c-0.027,0.05-0.052,0.102-0.079,0.152
		c0.007,0.025,0.011,0.052,0.018,0.077c-0.04,0.038-0.081,0.083-0.121,0.122c-2.652,4.896-4.704,10.23-6.037,15.886
		c5.584-2.028,11.52-3.626,17.731-4.724C62.347,76.237,63.944,70.302,65.972,64.718z"/>
	<path style="fill:#E1FDF8;" d="M120.961,128.955c6.968-5.383,12.582-12.152,16.313-19.836c-3.864,2.474-8.04,4.702-12.493,6.636
		C123.93,120.347,122.633,124.761,120.961,128.955z"/>
	<path style="fill:#C3FAF1;" d="M65.69,86.787c-0.032,0.022-0.067,0.041-0.099,0.065c-0.719,5.08-1.099,10.333-1.099,15.712
		c0,2.646,0.095,5.259,0.273,7.838c0.011,0.041,0.019,0.085,0.03,0.126c-0.008,0.007-0.015,0.015-0.022,0.021
		c0.169,2.402,0.423,4.768,0.74,7.102c0.376,0.327,0.807,0.603,1.307,0.83c4.717,0.616,9.574,0.953,14.543,0.953
		c5.354,0,10.584-0.378,15.642-1.091c0.048-0.035,0.09-0.075,0.136-0.111c0.715-5.066,1.094-10.305,1.094-15.669
		c0-5.398-0.382-10.67-1.105-15.766c-5.097-0.724-10.368-1.106-15.766-1.106C75.998,85.692,70.758,86.071,65.69,86.787z"/>
	<path style="fill:#C3FAF1;" d="M130.394,85.837c-0.171-0.385-0.327-0.761-0.471-1.104c-2.581-3.061-5.512-5.866-8.731-8.378
		c-0.041,0.025-0.086,0.046-0.126,0.073c1.623,4.118,2.882,8.447,3.716,12.945c4.453,1.934,8.629,4.163,12.493,6.636
		c-1.722-3.544-3.845-6.891-6.314-10C130.774,85.949,130.59,85.885,130.394,85.837z"/>
	<path style="fill:#C3FAF1;" d="M73.979,58.324c2.426-0.247,4.887-0.386,7.384-0.386c2.497,0,4.959,0.139,7.385,0.386
		c-2.152-4.543-4.636-8.737-7.385-12.539C78.615,49.587,76.132,53.78,73.979,58.324z"/>
	<path style="fill:#C3FAF1;" d="M41.767,128.955c-1.673-4.194-2.969-8.608-3.821-13.2c-4.447-1.931-8.618-4.156-12.477-6.626
		c-0.002,0.002-0.005,0.004-0.008,0.006C29.193,116.813,34.804,123.576,41.767,128.955z"/>
	<path style="fill:#C3FAF1;" d="M94.555,145.982c-1.935,4.453-4.162,8.629-6.637,12.493c7.685-3.731,14.453-9.346,19.837-16.314
		C103.561,143.833,99.147,145.13,94.555,145.982z"/>
	<path style="fill:#6AF3DC;" d="M65.972,140.41c-2.028-5.585-3.626-11.52-4.724-17.731c-6.211-1.098-12.146-2.695-17.731-4.724
		c1.364,5.789,3.475,11.247,6.219,16.236C54.726,136.935,60.184,139.046,65.972,140.41z"/>
	<path style="fill:#6AF3DC;" d="M41.767,76.173c-6.968,5.383-12.583,12.152-16.315,19.836c3.864-2.474,8.04-4.702,12.493-6.637
		C38.797,84.781,40.094,80.367,41.767,76.173z"/>
	<path style="fill:#6AF3DC;" d="M97.159,64.822c-0.068,0.159-0.127,0.321-0.188,0.482c1.928,5.413,3.448,11.151,4.508,17.145
		c6.211,1.098,12.146,2.695,17.73,4.724c-1.363-5.789-3.476-11.247-6.219-16.236C108.119,68.258,102.796,66.188,97.159,64.822z"/>
</g>
<g>
</g>
<g>
</g>
<g>
</g>
<g>
</g>
<g>
</g>
<g>
</g>
<g>
</g>
<g>
</g>
<g>
</g>
<g>
</g>
<g>
</g>
<g>
</g>
<g>
</g>
<g>
</g>
<g>
</g>
</svg>
