<?xml version="1.0" encoding="iso-8859-1"?>
<!-- Generator: Adobe Illustrator 19.1.0, SVG Export Plug-In . SVG Version: 6.00 Build 0)  -->
<svg version="1.1" id="Capa_1" xmlns="http://www.w3.org/2000/svg" xmlns:xlink="http://www.w3.org/1999/xlink" x="0px" y="0px" viewBox="0 0 216.292 216.292" style="enable-background:new 0 0 216.292 216.292;" xml:space="preserve">
    <g>
        <g id="group-57svg">
            <path id="path-1_121_" style="fill:#142A3B;" d="M194.683,40.682c0,20.76-16.988,37.589-37.943,37.589
			c-20.956,0-37.943-16.829-37.943-37.589c0-20.758,16.987-37.587,37.943-37.587C177.695,3.095,194.683,19.924,194.683,40.682z" />
            <path id="path-2_121_" style="fill:#FBB713;" d="M125.667,68.929c8.073,8.636,19.827,13.779,32.603,13.086
			c22.808-1.22,40.355-20.614,39.109-43.208c-1.245-22.595-20.807-39.978-43.629-38.745c-20.01,1.082-35.962,16.136-38.746,35.058
			h6.269c2.728-15.706,16.091-28.071,32.813-28.971c19.422-1.054,36.088,13.75,37.137,32.991
			c1.077,19.24-13.867,35.736-33.289,36.79c-10.607,0.568-20.374-3.605-27.244-10.633L125.667,68.929z" />
            <path id="path-3_121_" style="fill:#FF9811;" d="M145.382,56.079c14.735-8.678,14.119-17.521,13.993-18.506l-0.308-2.453H18.915
			l-0.294,2.439c-0.111,0.985-0.741,9.842,13.993,18.506c8.578,5.059,34.674,20.418,34.45,31.356v12.518
			c0,10.188,7.235,18.781,16.876,21.154v65.705c-3.162,1.593-14.44,5.018-26.516,6.182c-9.809,1.954-7.277,3.299-7.277,3.299h31.569
			h5.247h41.278c0,0,2.532-1.345-7.276-3.299c-12.09-1.164-23.354-4.589-26.516-6.182v-65.79
			c9.431-2.495,16.483-11.02,16.483-21.069V87.365c-0.098-4.942,5.242-10.814,11.899-16.218
			C122.831,71.147,142.728,57.634,145.382,56.079z" />
            <path id="path-4_120_" style="opacity:0.35;fill:#020403;enable-background:new    ;" d="M159.375,37.573l-0.308-2.453h-9.368
			l0.307,2.453c0.126,0.985,0.743,9.828-13.992,18.506c-2.655,1.555-22.552,15.067-22.552,15.067
			c-6.656,5.405-11.997,11.277-11.899,16.219v12.574c0,10.049-7.052,18.574-16.483,21.069v65.79
			c3.162,1.593,14.427,5.018,26.516,6.182c9.809,1.954,7.277,3.299,7.277,3.299h9.368c0,0,2.532-1.345-7.276-3.299
			c-12.09-1.164-23.354-4.589-26.516-6.182v-65.79c9.431-2.495,16.483-11.02,16.483-21.069V87.365
			c-0.098-4.942,5.242-10.814,11.899-16.219c0,0,19.896-13.512,22.551-15.067C160.117,47.401,159.501,38.558,159.375,37.573z" />
            <path id="path-5_120_" style="fill:#FFFFFF;" d="M92.68,118.539c-0.292,0-0.587-0.035-0.88-0.108
			c-11.563-2.844-19.639-12.98-19.639-24.652V81.262c0.067-3.363-4.078-11.393-32.597-28.213l3.648-6.24l-1.862,3.097l1.938-3.052
			c16.954,9.998,36.386,22.956,36.151,34.481v12.444c0,8.352,5.803,15.612,14.113,17.655c1.951,0.48,3.14,2.435,2.656,4.367
			C95.796,117.441,94.313,118.539,92.68,118.539z" />
            <path id="path-6_119_" style="fill:#FBB713;" d="M157.486,11.72l0.98,17.785l8.116-15.871
			C163.727,12.552,160.663,11.873,157.486,11.72z" />
            <path id="path-7_119_" style="fill:#FBB713;" d="M178.979,22.547c-1.973-2.398-4.297-4.464-6.912-6.142l-8.116,15.858
			L178.979,22.547z" />
            <path id="path-8_116_" style="fill:#FBB713;" d="M142.499,14.937l9.809,14.901l-0.979-17.785
			C148.181,12.552,145.228,13.551,142.499,14.937z" />
            <path id="path-9_110_" style="fill:#FBB713;" d="M131.152,25.139l16.007,8.039l-9.808-14.902
			C134.93,20.232,132.845,22.547,131.152,25.139z" />
            <path id="path-10_102_" style="fill:#FBB713;" d="M145.439,68.444c2.853,1.082,5.918,1.76,9.095,1.913l-0.98-17.785
			L145.439,68.444z" />
            <path id="path-11_90_" style="fill:#FBB713;" d="M185.262,36.409c-0.504-3.119-1.511-6.058-2.911-8.747l-15.028,9.717
			L185.262,36.409z" />
            <path id="path-12_78_" style="fill:#FBB713;" d="M174.669,63.786c2.421-1.954,4.506-4.255,6.199-6.847l-16.008-8.04
			L174.669,63.786z" />
            <path id="path-13_66_" style="fill:#FBB713;" d="M183.666,51.504c1.092-2.827,1.778-5.864,1.932-9.009l-17.953,0.969
			L183.666,51.504z" />
            <path id="path-14_54_" style="fill:#FBB713;" d="M160.69,70.01c3.148-0.499,6.115-1.496,8.83-2.883l-9.809-14.902L160.69,70.01z" />
            <path id="path-15_45_" style="fill:#FBB713;" d="M166.32,138.765h8.791c1.696,0,3.07,0.756,3.07,1.689s-1.374,1.69-3.07,1.69
			h-0.409c-1.695,0-3.069,0.756-3.069,1.687c0,0.934,1.374,1.69,3.069,1.69h12.805c1.695,0,3.069,0.757,3.069,1.69
			c0,0.932-1.374,1.689-3.069,1.689h-16.618h-24.963c-1.694,0-3.068-0.757-3.068-1.689c0-0.933,1.374-1.69,3.068-1.69h5.246
			c1.695,0,3.069-0.756,3.069-1.69c0-0.931-1.374-1.687-3.069-1.687h-24.963c-1.695,0-3.069-0.757-3.069-1.69
			s1.374-1.689,3.069-1.689h5.9H166.32z" />
            <path id="path-16_36_" style="fill:#FBB713;" d="M59.315,162.929h5.25c1.013,0,1.833,0.524,1.833,1.171
			c0,0.646-0.82,1.17-1.833,1.17h-0.244c-1.012,0-1.833,0.524-1.833,1.171c0,0.646,0.821,1.17,1.833,1.17h7.647
			c1.012,0,1.833,0.525,1.833,1.171s-0.821,1.171-1.833,1.171h-9.925H47.135c-1.012,0-1.833-0.525-1.833-1.171
			s0.821-1.171,1.833-1.171h3.132c1.013,0,1.833-0.524,1.833-1.17c0-0.647-0.82-1.171-1.833-1.171H35.359
			c-1.012,0-1.833-0.524-1.833-1.17c0-0.647,0.821-1.171,1.833-1.171h3.524H59.315z" />
            <path id="path-17_31_" style="fill:#FBB713;" d="M163.377,202.721h12.442c2.399,0,4.344,1.013,4.344,2.261
			c0,1.251-1.945,2.263-4.344,2.263h-0.579c-2.399,0-4.344,1.012-4.344,2.262c0,1.248,1.945,2.261,4.344,2.261h18.122
			c2.398,0,4.343,1.013,4.343,2.263c0,1.249-1.945,2.261-4.343,2.261h-23.518h-35.328c-2.4,0-4.344-1.012-4.344-2.261
			c0-1.25,1.944-2.263,4.344-2.263h7.423c2.399,0,4.344-1.013,4.344-2.261c0-1.25-1.945-2.262-4.344-2.262H106.61
			c-2.398,0-4.344-1.012-4.344-2.263c0-1.248,1.946-2.261,4.344-2.261h8.35H163.377z" />
            <path id="path-18_22_" style="fill:#FBB713;" d="M128.877,150.108c1.411,0,2.555-0.63,2.555-1.407
			c0-0.777-1.144-1.406-2.555-1.406h-7.83c-1.411,0-2.555,0.629-2.555,1.406c0,0.777,1.144,1.407,2.555,1.407H128.877z" />
        </g>
    </g>
    <g>
    </g>
    <g>
    </g>
    <g>
    </g>
    <g>
    </g>
    <g>
    </g>
    <g>
    </g>
    <g>
    </g>
    <g>
    </g>
    <g>
    </g>
    <g>
    </g>
    <g>
    </g>
    <g>
    </g>
    <g>
    </g>
    <g>
    </g>
    <g>
    </g>
</svg>
