<?xml version="1.0" encoding="iso-8859-1"?>
<!-- Generator: Adobe Illustrator 18.0.0, SVG Export Plug-In . SVG Version: 6.00 Build 0)  -->
<!DOCTYPE svg PUBLIC "-//W3C//DTD SVG 1.1//EN" "http://www.w3.org/Graphics/SVG/1.1/DTD/svg11.dtd">
<svg version="1.1" id="Capa_1" xmlns="http://www.w3.org/2000/svg" xmlns:xlink="http://www.w3.org/1999/xlink" x="0px" y="0px"
	 viewBox="0 0 312.371 312.371" style="enable-background:new 0 0 312.371 312.371;" xml:space="preserve">
<g>
	<path style="fill:#EF8829;" d="M177.956,261.434c-3.042-1.033-5.091-3.801-5.101-7.015c-0.008-3.214,2.026-6.446,5.065-7.494
		c27.245-9.407,48.628-34.922,58.641-68.922H85.833c10.012,34,31.395,59.557,58.643,68.963c3.036,1.049,5.072,4.118,5.064,7.332
		c-0.009,3.213-2.059,6.001-5.103,7.034c-18.599,6.31-31.502,20.671-34.628,35.671h102.777
		C209.457,282.003,196.558,267.745,177.956,261.434z"/>
	<path style="fill:#EF8829;" d="M241.746,155.003H79.81c0.168,3,0.76,8.005,1.156,10.599l159.512-0.815
		C241.406,162.194,241.94,152.003,241.746,155.003z"/>
	<g>
		<path style="fill:#FDD44B;" d="M182.904,23.449c0.271,0.176,0.543,0.342,0.813,0.524
			C183.447,23.791,183.174,23.626,182.904,23.449z"/>
		<path style="fill:#FDD44B;" d="M186.653,26.08c0.192,0.147,0.381,0.308,0.573,0.457C187.035,26.387,186.846,26.226,186.653,26.08z
			"/>
		<path style="fill:#FDD44B;" d="M195.321,33.915c0.286,0.301,0.576,0.594,0.86,0.903C195.896,34.509,195.608,34.216,195.321,33.915
			z"/>
		<path style="fill:#FDD44B;" d="M176.52,19.832c0.362,0.174,0.721,0.357,1.08,0.541C177.241,20.19,176.881,20.006,176.52,19.832z"
			/>
		<path style="fill:#FDD44B;" d="M193.414,31.971c-0.333-0.327-0.668-0.648-1.004-0.966
			C192.746,31.323,193.08,31.644,193.414,31.971z"/>
		<path style="fill:#FDD44B;" d="M189.543,28.421c0.325,0.276,0.646,0.565,0.968,0.85C190.189,28.986,189.868,28.698,189.543,28.421
			z"/>
		<path style="fill:#FDD44B;" d="M179.641,21.467c0.357,0.2,0.713,0.4,1.067,0.61C180.354,21.867,179.998,21.668,179.641,21.467z"/>
		<path style="fill:#FDD44B;" d="M159.441,15.164c0.341,0.025,0.681,0.067,1.021,0.1C160.122,15.231,159.782,15.189,159.441,15.164z
			"/>
		<path style="fill:#FDD44B;" d="M162.705,15.533c0.384,0.057,0.769,0.121,1.152,0.188C163.473,15.654,163.09,15.59,162.705,15.533z
			"/>
		<path style="fill:#FDD44B;" d="M207.085,48.9c-2.604-4.134-5.356-7.782-8.235-11.203c-10.072-8.35-21.195-12.709-32.641-12.709
			c-18.956,0-37.032,11.884-50.901,33.901c-11.93,18.939-19.439,44.115-21.761,69.115h135.945
			C228.366,98.003,220.522,70.229,207.085,48.9z"/>
		<path style="fill:#FDD44B;" d="M166.02,16.155c0.362,0.081,0.724,0.157,1.084,0.248C166.743,16.312,166.381,16.237,166.02,16.155z
			"/>
		<path style="fill:#FDD44B;" d="M169.671,17.128c0.203,0.063,0.406,0.114,0.608,0.179
			C170.077,17.241,169.873,17.191,169.671,17.128z"/>
		<path style="fill:#FDD44B;" d="M173.407,18.449c0.286,0.115,0.57,0.248,0.856,0.369C173.977,18.696,173.693,18.564,173.407,18.449
			z"/>
	</g>
	<path style="fill:#3F2D20;" d="M198.203,254.528c35.765-20.748,59.599-66.877,59.599-118.455c0-4.152-3.367-7.517-7.517-7.517
		h-5.746c-1.149-32.925-9.821-63.721-24.732-87.392C203.086,14.619,180.491,0,156.186,0c-24.305,0-46.9,14.619-63.621,41.163
		c-14.91,23.671-23.583,54.467-24.733,87.392h-5.746c-4.152,0-7.517,3.365-7.517,7.517c0,51.578,23.833,97.708,59.597,118.455
		c-18.722,11.405-30.15,29.918-30.15,50.326c0,4.152,3.365,7.517,7.517,7.517h129.306c4.15,0,7.517-3.365,7.517-7.517
		C228.356,284.445,216.928,265.932,198.203,254.528z M99.786,297.337c3.126-15.852,16.029-29.425,34.628-35.736
		c3.044-1.033,5.093-3.885,5.103-7.098c0.008-3.213-2.028-6.078-5.064-7.127c-27.247-9.406-48.63-35.407-58.643-68.553h160.75
		c-10.013,33.146-31.396,59.146-58.641,68.554c-3.038,1.048-5.072,3.912-5.064,7.126c0.01,3.213,2.059,6.066,5.101,7.098
		c18.601,6.31,31.501,19.884,34.63,35.736H99.786z M207.085,49.176c13.437,21.329,21.281,49.285,22.406,79.379H82.883
		c1.123-30.094,8.967-58.05,22.402-79.379c13.87-22.017,31.946-34.142,50.901-34.142S193.218,27.16,207.085,49.176z M242.584,143.59
		c-0.339,6.897-1.155,13.645-2.383,20.2H72.168c-1.227-6.555-2.043-13.304-2.38-20.2H242.584z"/>
</g>
<g>
</g>
<g>
</g>
<g>
</g>
<g>
</g>
<g>
</g>
<g>
</g>
<g>
</g>
<g>
</g>
<g>
</g>
<g>
</g>
<g>
</g>
<g>
</g>
<g>
</g>
<g>
</g>
<g>
</g>
</svg>
