<?xml version="1.0" encoding="iso-8859-1"?>
<!-- Generator: Adobe Illustrator 19.1.0, SVG Export Plug-In . SVG Version: 6.00 Build 0)  -->
<svg version="1.1" id="Capa_1" xmlns="http://www.w3.org/2000/svg" xmlns:xlink="http://www.w3.org/1999/xlink" x="0px" y="0px"
	 viewBox="0 0 218.332 218.332" style="enable-background:new 0 0 218.332 218.332;" xml:space="preserve">
<g>
	<g id="group-34svg">
		<path id="path-1_96_" style="fill:#2476FF;" d="M28.277,91.397H33.6c1.026,0,1.858,0.83,1.858,1.854
			c0,1.023-0.832,1.853-1.858,1.853h-0.248c-1.027,0-1.859,0.829-1.859,1.853c0,1.024,0.832,1.853,1.859,1.853h11.442
			c1.026,0,1.859,0.831,1.859,1.854c0,1.023-0.833,1.853-1.859,1.853H31.043H15.93c-1.027,0-1.858-0.83-1.858-1.853
			c0-1.023,0.831-1.854,1.858-1.854h3.175c1.027,0,1.859-0.829,1.859-1.853c0-1.024-0.832-1.853-1.859-1.853H3.992
			c-1.026,0-1.858-0.83-1.858-1.853c0-1.024,0.832-1.854,1.858-1.854h3.572H28.277z"/>
		<path id="path-2_96_" style="fill:#2476FF;" d="M16.081,16.149h3.274c0.631,0,1.143,0.51,1.143,1.141
			c0,0.629-0.512,1.139-1.143,1.139h-0.152c-0.632,0-1.143,0.51-1.143,1.14c0,0.63,0.511,1.139,1.143,1.139h7.039
			c0.63,0,1.142,0.512,1.142,1.141s-0.512,1.14-1.142,1.14h-8.459H8.487c-0.632,0-1.144-0.511-1.144-1.14s0.512-1.141,1.144-1.141
			h1.953c0.631,0,1.142-0.509,1.142-1.139c0-0.63-0.511-1.14-1.142-1.14H1.144C0.512,18.429,0,17.919,0,17.29
			c0-0.631,0.512-1.141,1.144-1.141H3.34H16.081z"/>
		<path id="path-3_96_" style="fill:#2476FF;" d="M193.306,42.728h7.249c1.398,0,2.531,1.035,2.531,2.312s-1.133,2.313-2.531,2.313
			h-0.337c-1.398,0-2.531,1.035-2.531,2.311c0,1.277,1.133,2.312,2.531,2.312h15.584c1.397,0,2.53,1.035,2.53,2.312
			c0,1.278-1.133,2.312-2.53,2.312h-18.728h-20.583c-1.399,0-2.531-1.034-2.531-2.312c0-1.277,1.132-2.312,2.531-2.312h4.324
			c1.398,0,2.531-1.035,2.531-2.312c0-1.276-1.133-2.311-2.531-2.311h-20.583c-1.399,0-2.531-1.036-2.531-2.313
			s1.132-2.312,2.531-2.312h4.864H193.306z"/>
		<path id="path-4_95_" style="fill:#2476FF;" d="M159.939,24.659c3.576,0,6.474-1.105,6.474-2.467c0-1.363-2.898-2.468-6.474-2.468
			h-19.841c-3.575,0-6.474,1.105-6.474,2.468c0,1.362,2.899,2.467,6.474,2.467H159.939z"/>
		<path id="path-5_95_" style="fill:#FBB713;" d="M166.066,69.18c0,30.773-56.245,77.984-56.245,77.984S53.578,99.952,53.578,69.18
			c0-30.771,25.181-55.717,56.243-55.717S166.066,38.409,166.066,69.18z"/>
		<path id="path-6_94_" style="fill:#FF3A2F;" d="M109.821,147.164c0,0,56.245-47.211,56.245-77.984
			c0-30.771-25.183-55.717-56.245-55.717l-2.246,1.612c19.317,5.985,33.644,27.939,33.644,54.105
			c0,20.504-19.647,60.53-32.76,76.801L109.821,147.164z"/>
		<path id="path-7_94_" style="opacity:0.25;fill:#020403;enable-background:new    ;" d="M135.334,19.569
			c12.098,10.22,19.795,25.404,19.795,42.389c0,27.808-45.92,69.029-54.768,76.716c5.634,5.272,9.46,8.49,9.46,8.49
			s56.244-47.211,56.244-77.984C166.065,47.518,153.559,28.786,135.334,19.569z"/>
		<path id="path-8_91_" style="fill:#0CB04A;" d="M109.136,147.164c0,0-56.244-47.211-56.244-77.984
			c0-30.771,25.181-55.717,56.244-55.717l2.246,1.612C92.066,21.06,77.739,43.014,77.739,69.18c0,20.504,19.647,60.53,32.76,76.801
			L109.136,147.164z"/>
		<path id="path-9_87_" style="fill:#FFFFFF;" d="M67.51,76.707c-1.521,0-2.938-0.95-3.45-2.456
			c-1.212-3.571-1.827-6.95-1.827-10.042c0-14.21,6.301-27.615,17.285-36.778c1.549-1.285,3.838-1.085,5.128,0.437
			c1.296,1.522,1.098,3.797-0.438,5.08C74.866,40.736,69.51,52.132,69.51,64.209c0,2.309,0.487,4.914,1.451,7.743
			c0.639,1.887-0.384,3.931-2.289,4.566C68.284,76.646,67.894,76.707,67.51,76.707z"/>
		<path id="path-10_80_" style="fill:#142A3B;" d="M109.137,157.392c-2.011,0-3.639-1.614-3.639-3.605v-6.624
			c0-1.99,1.628-3.605,3.639-3.605c2.011,0,3.639,1.615,3.639,3.605v6.624C112.776,155.778,111.148,157.392,109.137,157.392z"/>
		<path id="path-11_71_" style="fill:#142A3B;" d="M135.604,204.87H84.039v-51.083h51.565V204.87z"/>
		<path id="path-12_60_" style="opacity:0.25;fill:#020403;enable-background:new    ;" d="M121.021,153.787v51.083h14.583v-51.083
			H121.021z"/>
	</g>
</g>
<g>
</g>
<g>
</g>
<g>
</g>
<g>
</g>
<g>
</g>
<g>
</g>
<g>
</g>
<g>
</g>
<g>
</g>
<g>
</g>
<g>
</g>
<g>
</g>
<g>
</g>
<g>
</g>
<g>
</g>
</svg>
