<?xml version="1.0" encoding="iso-8859-1"?>
<!-- Generator: Adobe Illustrator 19.0.0, SVG Export Plug-In . SVG Version: 6.00 Build 0)  -->
<svg version="1.1" id="Capa_1" xmlns="http://www.w3.org/2000/svg" xmlns:xlink="http://www.w3.org/1999/xlink" x="0px" y="0px"
	 viewBox="0 0 58 58" style="enable-background:new 0 0 58 58;" xml:space="preserve">
<rect x="3" y="52.475" style="fill:#D1D4D1;" width="5" height="3"/>
<rect x="50" y="52.475" style="fill:#D1D4D1;" width="5" height="3"/>
<circle style="fill:#38454F;" cx="45" cy="33.475" r="13"/>
<path style="fill:#546A79;" d="M15.95,12.475H4c-1.105,0-2-0.895-2-2v0c0-1.105,0.895-2,2-2l12.11,1.863
	c0.512,0.079,0.89,0.519,0.89,1.038v0.05C17,12.005,16.53,12.475,15.95,12.475z"/>
<g>
	<path style="fill:#D1D4D1;" d="M8,45.475c-0.702,0-1.374-0.127-2-0.349v4.349h4v-4.349C9.374,45.348,8.702,45.475,8,45.475z"/>
	<path style="fill:#D1D4D1;" d="M8,33.475c0.702,0,1.374,0.127,2,0.349V12.475H6v21.349C6.626,33.602,7.298,33.475,8,33.475z"/>
</g>
<path style="fill:#D1D4D1;" d="M45,46.475c-0.682,0-1.346-0.068-2-0.169v3.169h4v-3.169C46.346,46.407,45.682,46.475,45,46.475z"/>
<circle style="fill:#FFFFFF;stroke:#546A79;stroke-width:2;stroke-miterlimit:10;" cx="45" cy="33.475" r="3"/>
<path style="fill:none;stroke:#546A79;stroke-width:2;stroke-linecap:round;stroke-linejoin:round;stroke-miterlimit:10;" d="
	M13.902,40.526c-0.049,0.277-0.114,0.547-0.2,0.809c-0.013,0.04-0.029,0.078-0.043,0.117c-0.087,0.248-0.188,0.487-0.305,0.719
	c-0.015,0.03-0.028,0.061-0.044,0.09c-0.131,0.249-0.28,0.485-0.444,0.712c-0.025,0.034-0.05,0.068-0.076,0.101
	c-0.347,0.461-0.758,0.87-1.222,1.214c-0.022,0.016-0.043,0.033-0.066,0.049c-0.239,0.172-0.489,0.328-0.752,0.464
	c-0.008,0.004-0.016,0.007-0.023,0.011c-0.271,0.139-0.554,0.259-0.847,0.356l32.795-9.82C42.26,34.835,42,34.188,42,33.475H8
	c3.314,0,6,2.686,6,6c0,0.298-0.029,0.588-0.071,0.874C13.921,40.408,13.913,40.468,13.902,40.526z"/>
<path style="fill:#D1D4D1;" d="M45,20.475c0.682,0,1.346,0.068,2,0.169v-4.169h-4v4.169C43.654,20.543,44.318,20.475,45,20.475z"/>
<polyline style="fill:none;stroke:#ECF0F1;stroke-width:2;stroke-miterlimit:10;" points="45,16.475 45,10.546 51,4.546 55,4.546 
	"/>
<polygon style="fill:#38454F;" points="55,2.546 57,2.546 58,3.546 58,5.546 57,6.546 55,6.546 54,5.546 54,3.546 "/>
<line style="fill:none;stroke:#38454F;stroke-width:2;stroke-miterlimit:10;" x1="47.243" y1="3.232" x2="43" y2="7.475"/>
<circle style="fill:#38454F;stroke:#546A79;stroke-width:2;stroke-miterlimit:10;" cx="8" cy="39.475" r="6"/>
<rect y="49.475" style="fill:#556080;" width="58" height="3"/>
<g>
</g>
<g>
</g>
<g>
</g>
<g>
</g>
<g>
</g>
<g>
</g>
<g>
</g>
<g>
</g>
<g>
</g>
<g>
</g>
<g>
</g>
<g>
</g>
<g>
</g>
<g>
</g>
<g>
</g>
</svg>
