<?xml version="1.0" encoding="iso-8859-1"?>
<!-- Generator: Adobe Illustrator 19.1.0, SVG Export Plug-In . SVG Version: 6.00 Build 0)  -->
<svg version="1.1" id="Capa_1" xmlns="http://www.w3.org/2000/svg" xmlns:xlink="http://www.w3.org/1999/xlink" x="0px" y="0px"
	 viewBox="0 0 218.332 218.332" style="enable-background:new 0 0 218.332 218.332;" xml:space="preserve">
<g>
	<g id="group-17svg">
		<path id="path-1_77_" style="fill:#2476FF;" d="M161.193,181.395h20.71c3.993,0,7.23,2.031,7.23,4.538
			c0,2.505-3.237,4.538-7.23,4.538h-0.964c-3.993,0-7.23,2.032-7.23,4.538c0,2.506,3.237,4.537,7.23,4.537h30.163
			c3.993,0,7.23,2.032,7.23,4.539c0,2.506-3.237,4.538-7.23,4.538h-39.144h-58.805c-3.993,0-7.229-2.032-7.229-4.538
			c0-2.507,3.236-4.539,7.229-4.539h12.356c3.993,0,7.23-2.031,7.23-4.537c0-2.506-3.237-4.538-7.23-4.538H66.705
			c-3.993,0-7.229-2.033-7.229-4.538c0-2.507,3.236-4.538,7.229-4.538h13.898H161.193z"/>
		<path id="path-2_77_" style="fill:#2476FF;" d="M86.239,208.831c3.993,0,7.23-2.031,7.23-4.537s-3.237-4.539-7.23-4.539H64.083
			c-3.993,0-7.23,2.033-7.23,4.539s3.237,4.537,7.23,4.537H86.239z"/>
		<path id="path-3_77_" style="fill:#142A3B;" d="M149.389,86.227h-7.278V33.468c0-7.305-6.002-13.249-13.376-13.249
			c-7.373,0-13.375,5.944-13.375,13.249h-7.278c0-11.281,9.264-20.459,20.653-20.459c11.39,0,20.654,9.178,20.654,20.459V86.227z"/>
		<path id="path-4_77_" style="fill:#142A3B;" d="M127.651,53.594c0.341-1.105,0.589-2.254,0.715-3.447
			c1.07-10.069-6.302-19.09-16.467-20.151c-10.164-1.06-19.271,6.243-20.341,16.312c-0.127,1.193-0.126,2.368-0.026,3.519
			L127.651,53.594z"/>
		<path id="path-5_77_" style="fill:#FFFFFF;" d="M36.41,152.693c-1.278,0-2.516-0.666-3.183-1.85
			c-4.954-8.807-7.571-18.825-7.571-28.968V103.81c0-1.991,1.63-3.605,3.64-3.605c2.009,0,3.638,1.614,3.638,3.605v18.065
			c0,8.918,2.3,17.722,6.651,25.458c0.979,1.741,0.348,3.936-1.407,4.904C37.616,152.547,37.008,152.693,36.41,152.693z"/>
		<path id="path-6_76_" style="fill:#2476FF;" d="M58.588,86.227c0.32-1.32,0.534-2.679,0.534-4.097
			c0-9.704-7.94-17.57-17.736-17.57s-17.737,7.866-17.737,17.57c0,1.418,0.214,2.777,0.535,4.097H58.588z"/>
		<path id="path-7_76_" style="fill:#2476FF;" d="M21.284,32.222c0,5.823-4.765,10.543-10.643,10.543
			C4.765,42.764,0,38.045,0,32.222C0,26.4,4.765,21.679,10.641,21.679C16.519,21.679,21.284,26.4,21.284,32.222z"/>
		<path id="path-8_73_" style="fill:#FFFFFF;" d="M14.578,28.666c0,2.153-1.762,3.899-3.937,3.899c-2.173,0-3.935-1.746-3.935-3.899
			s1.762-3.899,3.935-3.899C12.816,24.767,14.578,26.513,14.578,28.666z"/>
		<path id="path-9_70_" style="fill:#FFFFFF;" d="M42.129,74.89c0,3.482-2.848,6.304-6.362,6.304s-6.363-2.822-6.363-6.304
			c0-3.481,2.849-6.302,6.363-6.302S42.129,71.409,42.129,74.89z"/>
		<path id="path-10_64_" style="fill:#2476FF;" d="M72.893,16.323c0,3.767-3.083,6.821-6.885,6.821
			c-3.804,0-6.886-3.054-6.886-6.821c0-3.768,3.082-6.821,6.886-6.821C69.81,9.502,72.893,12.555,72.893,16.323z"/>
		<path id="path-11_56_" style="fill:#2476FF;" d="M101.054,70.757c0-2.045,3.738-6.669,3.738-6.669s3.736,4.624,3.736,6.669
			c0,2.044-1.672,3.702-3.736,3.702C102.728,74.459,101.054,72.8,101.054,70.757z"/>
		<path id="path-12_47_" style="fill:#2476FF;" d="M111.822,77.868c0-2.045,3.738-6.669,3.738-6.669s3.737,4.624,3.737,6.669
			c0,2.044-1.674,3.702-3.737,3.702C113.495,81.57,111.822,79.912,111.822,77.868z"/>
		<path id="path-13_38_" style="fill:#2476FF;" d="M90.287,60.089c0-2.044,3.737-6.668,3.737-6.668s3.737,4.624,3.737,6.668
			c0,2.045-1.673,3.703-3.737,3.703C91.96,63.792,90.287,62.133,90.287,60.089z"/>
		<path id="path-14_32_" style="fill:#142A3B;" d="M31.457,182.06l17.411-15.969c3.072,0.708,6.26,1.119,9.549,1.119h5.415
			l-18.099,17.195c-0.773,0.666-1.186,1.447-1.186,2.245v2.851c0,2.25-3.207,4.075-7.164,4.075s-7.165-1.825-7.165-4.075v-5.149
			C30.218,183.535,30.65,182.737,31.457,182.06z"/>
		<path id="path-15_29_" style="opacity:0.35;enable-background:new    ;" d="M48.868,166.09l-11.698,10.73h16.546l10.116-9.611
			h-5.415C55.128,167.21,51.94,166.799,48.868,166.09z"/>
		<path id="path-16_25_" style="fill:#142A3B;" d="M150.71,182.06l-17.411-15.969c-3.072,0.708-6.259,1.119-9.549,1.119h-5.414
			l18.098,17.195c0.774,0.666,1.186,1.447,1.186,2.245v2.851c0,2.25,3.207,4.075,7.165,4.075c3.957,0,7.164-1.825,7.164-4.075
			v-5.149C151.949,183.535,151.518,182.737,150.71,182.06z"/>
		<path id="path-17_22_" style="opacity:0.35;enable-background:new    ;" d="M133.299,166.09c-3.072,0.708-6.259,1.119-9.549,1.119
			h-5.414l10.116,9.611h16.546L133.299,166.09z"/>
		<path id="path-18_18_" style="fill:#FBB713;" d="M150.057,170.766H30.688c-8.699,0-15.75-7.051-15.75-15.749V96.698h150.869
			v58.319C165.807,163.715,158.755,170.766,150.057,170.766z"/>
		<path id="path-19_15_" style="opacity:0.25;enable-background:new    ;" d="M155.038,96.698v10.954
			c0,30.93-25.31,56.002-56.53,56.002H60.702c-9.293,0-18.038-2.262-25.771-6.197c9.856,8.287,22.598,13.309,36.538,13.309h37.807
			c31.221,0,56.531-25.072,56.531-56.002V96.698H155.038z"/>
		<path id="path-20_11_" style="opacity:0.35;enable-background:new    ;" d="M14.937,103.14l150.87,6.718V95.846H14.937V103.14z"/>
		<path id="path-21_9_" style="fill:#FF3A2F;" d="M167.168,99.402H13.577c-3.672,0-6.65-2.95-6.65-6.587l0,0
			c0-3.639,2.978-6.588,6.65-6.588h153.591c3.672,0,6.649,2.949,6.649,6.588l0,0C173.817,96.452,170.84,99.402,167.168,99.402z"/>
	</g>
</g>
<g>
</g>
<g>
</g>
<g>
</g>
<g>
</g>
<g>
</g>
<g>
</g>
<g>
</g>
<g>
</g>
<g>
</g>
<g>
</g>
<g>
</g>
<g>
</g>
<g>
</g>
<g>
</g>
<g>
</g>
</svg>
