<?xml version="1.0" encoding="iso-8859-1"?>
<!-- Generator: Adobe Illustrator 18.0.0, SVG Export Plug-In . SVG Version: 6.00 Build 0)  -->
<!DOCTYPE svg PUBLIC "-//W3C//DTD SVG 1.1//EN" "http://www.w3.org/Graphics/SVG/1.1/DTD/svg11.dtd">
<svg version="1.1" id="Capa_1" xmlns="http://www.w3.org/2000/svg" xmlns:xlink="http://www.w3.org/1999/xlink" x="0px" y="0px"
	 viewBox="0 0 434.979 434.979" style="enable-background:new 0 0 434.979 434.979;" xml:space="preserve">
<g>
	<g>
		<path style="fill:#999999;" d="M352.479,54.999l0.003,0.004v0C323.333,28.769,286.209,13.1,247.078,10.516l0,0
			C182.066,6.223,116.872,15.504,55.641,37.77L0,58.003l85.496,367.482c73.497-29.694,124.974-191.571,124.974-191.571l0,0.005
			c0,0,0,0,0,0.01c5.34,9.99,13.48,18.55,24.13,24.16l28.94,81.48c3.23,9.09,3.81,18.92,1.67,28.33c-0.43,1.89-0.64,3.8-0.64,5.68
			c0,9.09,4.85,17.69,13,22.31l15.13,8.57l0.116,0.066c4.969,2.798,10.874-1.705,9.491-7.237l-5.63-22.52
			c-0.412-1.647,1.938-2.438,2.606-0.877l12.659,29.6c1.331,3.111,4.819,4.723,8.034,3.667c0.148-0.049,0.296-0.098,0.444-0.149
			l8.81-3.04c13.04-4.49,23.93-13.67,30.58-25.75c2.03-3.7,3.63-7.6,4.77-11.63c1.14-4.03,1.83-8.19,2.04-12.4l12.62-262.33
			c4.89-1.93,9.58-4.44,13.98-7.53l41.76-29.33H352.479z"/>
	</g>
	<path style="fill:#666666;" d="M278.986,131.499c-6.028,3.721-12.148,7.292-18.323,10.763c-3.678,2.067-7.377,4.098-11.087,6.107
		c-3.828,2.073-7.736,4.013-11.481,6.234c-13.128,7.786-23.52,20.184-26.962,35.252c-3.019,13.214-1.714,26.846,4.058,39.185
		c7.033,15.038,20.553,25.971,36.571,30.114c4.267,1.104,8.601,1.681,12.962,2.279c4.229,0.579,8.454,1.192,12.674,1.831
		c7.869,1.192,15.715,2.528,23.533,4.018c1.187,0.226,2.37,0.469,3.554,0.71c-7.719,0.497-15.454,0.789-23.188,0.94
		c-9.055,0.176-18.145,0.394-27.191-0.11c-8.028-0.448-16.205-2.915-23.331-6.562c-8.043-4.116-15.599-10.195-20.888-17.571
		c-5.986-8.349-10.152-17.552-12.138-27.661c-3.491-18.756,1.162-38.788,13.659-53.362c2.788-3.251,5.922-6.203,9.329-8.796
		c3.701-2.817,7.789-5.457,12.091-7.256c6.847-2.864,13.83-5.359,20.832-7.822C262.041,136.844,270.473,134.037,278.986,131.499z"/>
	<path style="fill:#666666;" d="M348.809,384.849c-13.37,11.5-25.5-6.36-25.5-6.36c5.94-8.9,15.74-14.13,26.08-14.41
		C352.87,372.129,354.169,380.229,348.809,384.849z"/>
	<path style="fill:#666666;" d="M213.655,181.191c-19.205,4.067-38.115,9.914-56.516,16.718
		c-21.101,7.803-41.617,17.231-60.839,28.955c-8.487,5.177-16.504,10.977-24.304,17.129c6.466-6.027,13.138-11.715,20.146-17.106
		c8.87-6.823,18.34-12.939,27.97-18.627c19.667-11.618,40.432-21.391,61.709-29.675c9.44-3.675,18.993-7.102,28.699-10.011
		L213.655,181.191z"/>
	<path style="fill:#666666;" d="M353.979,195.295v-6.078c0-10.791-8.748-19.538-19.538-19.538h-6.078
		c-1.869,0-3.384,1.515-3.384,3.384v6.078c0,10.791,8.748,19.538,19.538,19.538h6.078
		C352.465,198.679,353.979,197.164,353.979,195.295z"/>
	<path style="fill:#666666;" d="M353.979,198.679l-5.481,1.74c-14.574,4.627-30.215-2.992-35.557-17.319l-1.462-3.921v7.034
		c0,20.364,24.676,30.5,38.99,16.017L353.979,198.679z"/>
	<path style="fill:#F9E17A;" d="M352.276,96.521c0,0,37.204,51.658,35.204,95.658c16-40-8.24-100.32-8.24-100.32l-29.76-15.68
		L352.276,96.521z"/>
	<path style="fill:#999999;" d="M328.753,78.847c1.735,8.674,8.596,15.464,17.316,16.948c2.278,0.388,4.454,0.668,6.207,0.726
		c14.425,0.477,28.824-3.689,40.942-12.197l41.76-29.321H323.984L328.753,78.847z"/>
	<path style="fill:#F9E17A;" d="M247.078,10.516L247.078,10.516C182.066,6.223,116.872,15.504,55.641,37.77L0,58.003
		c0,0,0.117,0.505,0.326,1.401l0.248,1.067c0.088,0.378,0.183,0.787,0.29,1.244l0.427,1.836c0.354,1.519,0.77,3.309,1.24,5.33
		l0.448,1.928c0.082,0.351,0.164,0.702,0.248,1.065l0.839,3.607c0.051,0.22,0.102,0.44,0.154,0.662l1.426,6.13
		c0.768,3.302,1.583,6.804,2.426,10.426l7.441,31.983c45.979-15.572,84.673-25.451,117.367-31.32
		c-0.67-9.458,0.078-21.325,6.613-27.859c0.725,8.698,4.252,18.091,7.704,25.482c44.755-6.807,77.333-5.736,101.576-1.86
		c0.804-11.945,6.335-27.27,27.213-35.621c-9.987,13.06-11.71,27.686-11.015,38.852c1.176,0.284,2.322,0.574,3.45,0.868
		c3.009-9.513,10.065-19.343,25.327-25.448c-7.447,9.738-10.292,20.347-10.974,29.747c7.427,2.515,13.542,5.01,18.711,6.979
		c4.857-33.612,22.499-49.497,50.998-49.497C332.983,28.004,276.831,12.481,247.078,10.516z"/>
</g>
<g>
</g>
<g>
</g>
<g>
</g>
<g>
</g>
<g>
</g>
<g>
</g>
<g>
</g>
<g>
</g>
<g>
</g>
<g>
</g>
<g>
</g>
<g>
</g>
<g>
</g>
<g>
</g>
<g>
</g>
</svg>
