<?xml version="1.0" encoding="iso-8859-1"?>
<!-- Generator: Adobe Illustrator 19.1.0, SVG Export Plug-In . SVG Version: 6.00 Build 0)  -->
<svg version="1.1" id="Capa_1" xmlns="http://www.w3.org/2000/svg" xmlns:xlink="http://www.w3.org/1999/xlink" x="0px" y="0px"
	 viewBox="0 0 218.333 218.333" style="enable-background:new 0 0 218.333 218.333;" xml:space="preserve">
<g>
	<g id="group-159svg">
		<path id="path-1_66_" style="fill:#142A3B;" d="M164.013,191.033h3.933V14.712h-3.933h-1.966v176.321H164.013z"/>
		<path id="path-2_66_" style="fill:#142A3B;" d="M63.43,191.033h3.932V14.712H63.43h-1.966v176.321H63.43z"/>
		<path id="path-3_66_" style="fill:#142A3B;" d="M129.774,87.686c1.424-1.328,3.036-2.585,4.805-3.762
			C132.702,85.087,131.111,86.364,129.774,87.686z"/>
		<path id="path-4_66_" style="fill:#142A3B;" d="M134.579,121.811c-1.769-1.177-3.381-2.434-4.805-3.763
			C131.111,119.372,132.702,120.649,134.579,121.811z"/>
		<path id="path-5_66_" style="fill:#142A3B;" d="M99.943,118.051c-1.422,1.326-3.028,2.578-4.79,3.752
			C97.024,120.643,98.609,119.372,99.943,118.051z"/>
		<path id="path-6_65_" style="fill:#142A3B;" d="M95.153,83.932c1.762,1.175,3.368,2.426,4.79,3.753
			C98.609,86.364,97.024,85.093,95.153,83.932z"/>
		<path id="path-7_65_" style="fill:#FFFFFF;" d="M137.419,82.365c1.612-0.777,3.13-1.601,4.577-2.467
			c-2.705,1.196-5.187,2.545-7.417,4.026C135.461,83.378,136.401,82.853,137.419,82.365z"/>
		<path id="path-8_63_" style="fill:#FFFFFF;" d="M134.579,121.811c2.23,1.482,4.712,2.83,7.417,4.026
			c-1.447-0.866-2.965-1.69-4.577-2.466C136.401,122.882,135.461,122.358,134.579,121.811z"/>
		<path id="path-9_60_" style="fill:#FFFFFF;" d="M92.301,123.371c-1.613,0.776-3.132,1.6-4.579,2.466
			c2.71-1.196,5.197-2.55,7.431-4.034C94.268,122.352,93.323,122.879,92.301,123.371z"/>
		<path id="path-10_55_" style="fill:#FFFFFF;" d="M95.153,83.932c-2.234-1.484-4.721-2.838-7.431-4.034
			c1.447,0.866,2.966,1.69,4.579,2.467C93.323,82.857,94.268,83.384,95.153,83.932z"/>
		<path id="path-11_47_" style="fill:#FF3A2F;" d="M57.654,194.608c0.026,0.194,0.039,0.392,0.094,0.575
			c0.004-0.012,0.013-0.021,0.016-0.033c0.397,1.34,1.598,2.336,3.077,2.336h108.035c1.497,0,2.704-1.015,3.087-2.377
			c0.009,0.028,0.028,0.048,0.036,0.074c0.09-0.294,0.151-0.599,0.151-0.924c0-1.784-1.459-3.229-3.258-3.229h-0.016H60.856h-0.015
			c-1.797,0-3.258,1.445-3.258,3.229C57.583,194.383,57.641,194.488,57.654,194.608z"/>
		<path id="path-12_39_" style="fill:#FF3A2F;" d="M60.841,14.707h108.035c1.802,0,3.26-1.446,3.26-3.23
			c0-1.785-1.458-3.227-3.26-3.227H60.841c-1.797,0-3.258,1.442-3.258,3.227C57.583,13.261,59.044,14.707,60.841,14.707z"/>
		<path id="path-13_32_" style="fill:#FBB713;" d="M95.153,121.803c-2.234,1.484-4.721,2.837-7.431,4.034
			c-11.549,6.915-17.773,16.948-17.773,34.44c0,19.681,0,30.753,0,30.753h0.014v0.003h15.522h22.043v-0.003h5.883h2.897h5.912v0.003
			h22.042v-0.003h15.508c0,0,0-11.072,0-30.753c0-17.492-6.224-27.528-17.774-34.44c-2.705-1.197-5.187-2.544-7.417-4.026
			c-1.877-1.162-3.468-2.44-4.805-3.762c-4.73-4.413-7.463-9.613-7.463-15.181c0-5.569,2.733-10.769,7.463-15.181
			c1.337-1.323,2.928-2.599,4.805-3.763c2.23-1.481,4.712-2.83,7.417-4.026c11.55-6.911,17.774-16.947,17.774-34.439
			c0-19.683,0-30.752,0-30.752h-43.462h-2.897H69.949c0,0,0,11.069,0,30.752c0,17.492,6.224,27.525,17.773,34.439
			c2.71,1.196,5.197,2.55,7.431,4.034c1.871,1.161,3.456,2.432,4.79,3.753c4.731,4.411,7.466,9.611,7.466,15.183
			c0,5.57-2.735,10.772-7.466,15.183C98.609,119.371,97.024,120.643,95.153,121.803z"/>
		<path id="path-14_27_" style="opacity:0.25;fill:#020403;enable-background:new    ;" d="M144.262,14.712c0,0,0,11.073,0,30.755
			c0,17.493-4.073,27.525-11.63,34.437c-1.772,1.196-3.395,2.547-4.853,4.028c-1.231,1.164-2.271,2.437-3.146,3.764
			c-3.092,4.412-4.885,9.609-4.885,15.179c0,5.569,1.793,10.767,4.885,15.179c0.875,1.326,1.915,2.599,3.146,3.762
			c1.458,1.482,3.081,2.834,4.853,4.027c7.557,6.915,11.63,16.947,11.63,34.439c0,19.643,0,30.706,0,30.751h15.522
			c0,0,0-11.072,0-30.756c0-17.493-6.223-27.525-17.775-34.44c-2.703-1.193-5.187-2.541-7.416-4.026
			c-1.878-1.16-3.469-2.434-4.807-3.76c-4.728-4.412-7.461-9.613-7.461-15.18c0-5.569,2.733-10.77,7.461-15.181
			c1.338-1.326,2.929-2.6,4.807-3.764c2.229-1.481,4.713-2.832,7.416-4.025c11.552-6.91,17.775-16.948,17.775-34.436
			c0-19.685,0-30.755,0-30.755H122.22v0.002H144.262z"/>
		<path id="path-15_25_" style="fill:#FFFFFF;" d="M99.315,76.625c-0.641,0-1.29-0.166-1.878-0.518
			c-13.509-8.085-19.533-19.658-19.533-37.525l3.627-8.526l3.651,8.526c0,15.257,4.79,24.634,16.018,31.353
			c1.72,1.028,2.272,3.246,1.233,4.949C101.749,76.007,100.548,76.625,99.315,76.625z M84.063,24.1l1.119-2.634
			C85.182,22.488,84.753,23.428,84.063,24.1z"/>
		<path id="path-16_21_" style="fill:#FFFFFF;" d="M85.182,184.274l-1.162-2.73c0.717,0.643,1.162,1.564,1.162,2.608V184.274z
			 M81.543,175.716l-3.639-8.558c0-17.866,6.024-29.44,19.533-37.525l0.401-0.209c2.502-1.103,4.812-2.356,6.868-3.723
			c1.664-1.107,3.93-0.67,5.049,0.982c1.122,1.652,0.677,3.892-0.991,5.003c-2.342,1.558-4.949,2.981-7.75,4.23
			c-11.095,6.711-15.832,16.07-15.832,31.242L81.543,175.716z"/>
		<path id="path-17_19_" style="opacity:0.35;fill:#242925;enable-background:new    ;" d="M159.77,191.186
			c0,0-22.455,0.077-44.91,0.156c-22.456-0.079-44.911-0.156-44.911-0.156v-0.313c0,0,1.404-0.235,3.859-0.515
			c2.457-0.215,5.966-0.742,10.175-0.977c4.211-0.233,9.123-0.685,14.386-0.844c5.263-0.225,10.877-0.26,16.491-0.315
			c5.613,0.055,11.227,0.096,16.49,0.321c5.263,0.167,10.175,0.61,14.386,0.843c4.21,0.241,7.719,0.76,10.175,0.974
			c2.455,0.281,3.859,0.513,3.859,0.513V191.186z"/>
		<path id="path-18_16_" style="opacity:0.35;fill:#242925;enable-background:new    ;" d="M159.77,14.707H69.949v5.507
			l89.821,6.882V14.707z"/>
		<path id="path-19_13_" style="fill:#142A3B;" d="M74.022,195.617h15.072c2.905,0,5.26,1.08,5.26,2.41
			c0,1.332-2.355,2.412-5.26,2.412h-0.702c-2.906,0-5.261,1.079-5.261,2.411s2.355,2.411,5.261,2.411h32.398
			c2.906,0,5.262,1.079,5.262,2.411c0,1.331-2.356,2.411-5.262,2.411H81.856H39.063c-2.906,0-5.262-1.08-5.262-2.411
			c0-1.332,2.356-2.411,5.262-2.411h8.991c2.906,0,5.262-1.079,5.262-2.411s-2.356-2.411-5.262-2.411H5.262
			c-2.906,0-5.262-1.08-5.262-2.412c0-1.33,2.356-2.41,5.262-2.41h10.114H74.022z"/>
		<path id="path-20_10_" style="fill:#142A3B;" d="M35.855,75.714h4.852c0.936,0,1.695,0.812,1.695,1.814
			c0,1.001-0.759,1.815-1.695,1.815h-0.225c-0.936,0-1.694,0.811-1.694,1.812c0,1.002,0.758,1.814,1.694,1.814h10.431
			c0.935,0,1.694,0.814,1.694,1.816s-0.759,1.813-1.694,1.813H38.377H24.599c-0.935,0-1.693-0.811-1.693-1.813
			s0.758-1.816,1.693-1.816h2.896c0.935,0,1.693-0.812,1.693-1.814c0-1.001-0.758-1.812-1.693-1.812H13.717
			c-0.936,0-1.694-0.814-1.694-1.815c0-1.002,0.758-1.814,1.694-1.814h3.256H35.855z"/>
		<path id="path-21_8_" style="fill:#142A3B;" d="M201.581,121.801h4.853c0.935,0,1.693,0.812,1.693,1.814
			c0,1.002-0.758,1.815-1.693,1.815h-0.226c-0.936,0-1.694,0.811-1.694,1.814c0,1.001,0.758,1.814,1.694,1.814h10.43
			c0.936,0,1.695,0.812,1.695,1.814s-0.759,1.815-1.695,1.815h-12.535h-13.777c-0.936,0-1.694-0.813-1.694-1.815
			s0.758-1.814,1.694-1.814h2.895c0.935,0,1.694-0.813,1.694-1.814c0-1.003-0.759-1.814-1.694-1.814h-13.778
			c-0.936,0-1.694-0.813-1.694-1.815c0-1.002,0.758-1.814,1.694-1.814h3.257H201.581z"/>
	</g>
</g>
<g>
</g>
<g>
</g>
<g>
</g>
<g>
</g>
<g>
</g>
<g>
</g>
<g>
</g>
<g>
</g>
<g>
</g>
<g>
</g>
<g>
</g>
<g>
</g>
<g>
</g>
<g>
</g>
<g>
</g>
</svg>
