<?xml version="1.0" encoding="iso-8859-1"?>
<!-- Generator: Adobe Illustrator 19.0.0, SVG Export Plug-In . SVG Version: 6.00 Build 0)  -->
<svg version="1.1" id="Layer_1" xmlns="http://www.w3.org/2000/svg" xmlns:xlink="http://www.w3.org/1999/xlink" x="0px" y="0px"
	 viewBox="0 0 495 495" style="enable-background:new 0 0 495 495;" xml:space="preserve">
<g>
	<polygon style="fill:#3D1952;" points="247.5,398.45 329.75,398.45 314.458,381.89 247.5,381.89 	"/>
	<polygon style="fill:#3D1952;" points="382.01,455 366.71,438.45 247.5,438.45 247.5,455 	"/>
	<path style="fill:#3D1952;" d="M344.75,0H247.5v84.08h127.41l12.23,157.67l10.87,140.14h-29.098l69.558,75.27h38.28V132
		C476.75,59.22,417.54,0,344.75,0z"/>
	<polygon style="fill:#6D2C93;" points="112.99,455 247.5,455 247.5,438.45 128.29,438.45 	"/>
	<polygon style="fill:#6D2C93;" points="180.542,381.89 165.25,398.45 247.5,398.45 247.5,381.89 	"/>
	<path style="fill:#6D2C93;" d="M126.088,381.89H96.99l10.87-140.14l12.23-157.67H247.5V0h-97.25c-72.79,0-132,59.22-132,132v325.16
		h38.28L126.088,381.89z"/>
	<polygon style="fill:#7C84E8;" points="368.912,381.89 314.458,381.89 329.75,398.45 247.5,398.45 247.5,438.45 366.71,438.45 
		382.01,455 247.5,455 247.5,495 476.75,495 476.75,457.16 438.47,457.16 	"/>
	<polygon style="fill:#999FED;" points="112.99,455 128.29,438.45 247.5,438.45 247.5,398.45 165.25,398.45 180.542,381.89 
		126.088,381.89 56.53,457.16 18.25,457.16 18.25,495 247.5,495 247.5,455 	"/>
	<path style="fill:#FFCD00;" d="M247.5,381.89h150.51l-10.87-140.14H247.5V381.89z M292.309,281.822h40.045v40h-40.045V281.822z"/>
	<path style="fill:#FFDE55;" d="M247.5,241.75H107.86L96.99,381.89H247.5V241.75z M202.691,321.822h-40.045v-40h40.045V321.822z"/>
	<rect x="162.646" y="281.822" style="fill:#FFFFFF;" width="40.045" height="40"/>
	<rect x="292.309" y="281.822" style="fill:#FFFFFF;" width="40.045" height="40"/>
	<polygon style="fill:#C4C8F5;" points="387.14,241.75 374.91,84.08 247.5,84.08 247.5,241.75 	"/>
	<polygon style="fill:#E1E3FA;" points="107.86,241.75 247.5,241.75 247.5,84.08 120.09,84.08 	"/>
</g>
<g>
</g>
<g>
</g>
<g>
</g>
<g>
</g>
<g>
</g>
<g>
</g>
<g>
</g>
<g>
</g>
<g>
</g>
<g>
</g>
<g>
</g>
<g>
</g>
<g>
</g>
<g>
</g>
<g>
</g>
</svg>
