<?xml version="1.0" encoding="iso-8859-1"?>
<!-- Generator: Adobe Illustrator 19.0.0, SVG Export Plug-In . SVG Version: 6.00 Build 0)  -->
<svg version="1.1" id="Capa_1" xmlns="http://www.w3.org/2000/svg" xmlns:xlink="http://www.w3.org/1999/xlink" x="0px" y="0px"
	 viewBox="0 0 480 480" style="enable-background:new 0 0 480 480;" xml:space="preserve">
<g>
	<rect x="138.931" y="107.648" style="fill:#826E77;" width="57.754" height="9.626"/>
	<polygon style="fill:#826E77;" points="69.645,107.648 68.125,117.273 129.305,117.273 129.305,107.648 	"/>
	<rect x="206.31" y="107.648" style="fill:#826E77;" width="67.379" height="9.626"/>
	<polygon style="fill:#826E77;" points="350.694,107.648 350.694,117.273 411.876,117.273 410.356,107.648 	"/>
	<rect x="283.315" y="107.648" style="fill:#826E77;" width="57.754" height="9.626"/>
	<path style="fill:#695A69;" d="M138.931,117.273v-9.626v-8.625c0-0.552-0.448-1-1-1h-7.626c-0.552,0-1,0.448-1,1v8.625v9.626
		v163.635h9.626V117.273z"/>
	<path style="fill:#695A69;" d="M206.31,99.022c0-0.552-0.448-1-1-1h-7.626c-0.552,0-1,0.448-1,1v8.625v9.626v163.635h9.626V117.273
		v-9.626V99.022z"/>
	<path style="fill:#E17277;" d="M138.931,280.909h-9.626h-5.625c-2.209,0-4,1.791-4,4v44.128c5.316,0,9.625,4.31,9.625,9.626v9.625
		h77.005v-9.625c0-5.316,4.309-9.626,9.625-9.626v-44.128c0-2.209-1.791-4-4-4h-5.625h-9.626H138.931z"/>
	<path style="fill:#BF515A;" d="M206.31,338.663v9.625h-77.005v-9.625c0-5.316-4.309-9.626-9.625-9.626h-9.625v19.251
		c0,10.632,8.619,19.251,19.251,19.251h77.005c10.632,0,19.251-8.619,19.251-19.251v-19.251h-9.626
		C210.62,329.037,206.31,333.346,206.31,338.663z"/>
	<path style="fill:#695A69;" d="M283.315,117.273v-9.626v-8.625c0-0.552-0.448-1-1-1h-7.626c-0.552,0-1,0.448-1,1v8.625v9.626
		v163.635h9.626V117.273z"/>
	<path style="fill:#695A69;" d="M350.694,107.648v-8.625c0-0.552-0.448-1-1-1h-7.626c-0.552,0-1,0.448-1,1v8.625v9.626v163.635
		h9.626V117.273V107.648z"/>
	<path style="fill:#E17277;" d="M283.315,280.909h-9.626h-5.625c-2.209,0-4,1.791-4,4v44.128c5.316,0,9.625,4.31,9.625,9.626v9.625
		h77.005v-9.625c0-5.316,4.31-9.626,9.626-9.626v-44.128c0-2.209-1.791-4-4-4h-5.626h-9.626H283.315z"/>
	<path style="fill:#BF515A;" d="M350.694,338.663v9.625h-77.005v-9.625c0-5.316-4.31-9.626-9.625-9.626h-9.626v19.251
		c0,10.632,8.619,19.251,19.251,19.251l0,0h77.005c10.632,0,19.251-8.619,19.251-19.251v-19.251h-9.626
		C355.004,329.037,350.694,333.346,350.694,338.663z"/>
	<path style="fill:#BF515A;" d="M72.398,90.211c1.485-9.419,9.485-16.253,19.016-16.253h297.172c9.532,0,17.531,6.834,19.016,16.248
		l2.754,17.442l1.52,9.626l48.634,308.02H480l-53.381-338.09c-2.975-18.828-18.969-32.496-38.032-32.496H91.414
		c-19.063,0-35.057,13.667-38.032,32.5L0,425.293h19.49l48.635-308.02l1.52-9.626L72.398,90.211z"/>
</g>
<g>
</g>
<g>
</g>
<g>
</g>
<g>
</g>
<g>
</g>
<g>
</g>
<g>
</g>
<g>
</g>
<g>
</g>
<g>
</g>
<g>
</g>
<g>
</g>
<g>
</g>
<g>
</g>
<g>
</g>
</svg>
