<?xml version="1.0" encoding="iso-8859-1"?>
<!-- Generator: Adobe Illustrator 19.1.0, SVG Export Plug-In . SVG Version: 6.00 Build 0)  -->
<svg version="1.1" id="Capa_1" xmlns="http://www.w3.org/2000/svg" xmlns:xlink="http://www.w3.org/1999/xlink" x="0px" y="0px"
	 viewBox="0 0 439.136 439.136" style="enable-background:new 0 0 439.136 439.136;" xml:space="preserve">
<g>
	<g>
		<g id="XMLID_9_">
			<g>
				<path style="fill:#CEB446;" d="M327.531,15.496l52.86,53.38c-17.83,20.49-27.57,46.47-27.57,73.84
					c0,16.24,3.42,31.96,10.17,46.73l13.83,30.28c14.1,30.86,14.03,64.68-0.2,95.25c-14.21,30.54-40.66,53.14-72.57,62.01
					c-0.01,0.01-0.02,0.01-0.03,0.01c-0.84,0.24-2.43,0.63-5.25,1.18c-30.48,5.95-58.33,21.58-79.2,44.31
					c-20.87-22.73-48.72-38.36-79.23-44.32c-2.8-0.53-4.39-0.93-5.26-1.18c-31.91-8.87-58.36-31.47-72.57-62.01
					c-14.23-30.56-14.3-64.39-0.2-95.25l13.83-30.28c6.75-14.79,10.18-30.51,10.18-46.74c0-27.37-9.75-53.35-27.58-73.83
					l52.87-53.38c15.73,11.85,34.98,18.32,54.82,18.32c19.04,0,37.72-6.05,53.14-17.11c15.42,11.06,34.1,17.11,53.14,17.11
					C292.551,33.816,311.791,27.346,327.531,15.496z M364.841,309.486c12.59-27.05,12.65-57.01,0.16-84.36l-13.84-30.28
					c-7.53-16.48-11.34-34.02-11.34-52.13c0-24.51,7.02-48.2,20.3-68.54c1.67-2.56,1.33-5.95-0.82-8.13l-29.99-30.27
					c-2.02-2.04-5.14-2.51-7.67-1.17c-15,7.99-31.93,12.21-48.93,12.21c-17.39,0-34.69-4.44-50.02-12.82c-1.95-1.06-4.3-1.06-6.24,0
					c-15.34,8.38-32.63,12.82-50.02,12.82c-17.01,0-33.93-4.22-48.94-12.21c-2.53-1.35-5.65-0.87-7.67,1.17l-29.98,30.27
					c-2.16,2.18-2.5,5.57-0.82,8.13c13.28,20.33,20.3,44.02,20.3,68.53c0,18.1-3.82,35.65-11.36,52.14l-13.83,30.28
					c-12.48,27.34-12.43,57.3,0.17,84.37c12.6,27.08,36.02,47.12,64.25,54.97l0.09,0.02c0.39,0.11,1.58,0.42,4.21,0.93
					c26.7,5.21,51.77,17.31,72.5,34.99c1.21,1.03,2.72,1.55,4.22,1.55s3-0.52,4.21-1.55c20.74-17.68,45.83-29.79,72.55-35
					c2.58-0.5,3.76-0.81,4.14-0.91l0.09-0.03C328.811,356.616,352.231,336.576,364.841,309.486z"/>
				<path style="fill:#CEB446;" d="M219.761,113.186c49.46,0,89.7,40.24,89.7,89.7s-40.24,89.69-89.7,89.69s-89.7-40.23-89.7-89.69
					S170.301,113.186,219.761,113.186z M296.321,202.886c0-42.22-34.34-76.57-76.56-76.57s-76.57,34.35-76.57,76.57
					s34.35,76.56,76.57,76.56S296.321,245.106,296.321,202.886z"/>
				<path style="fill:#EAC93F;" d="M266.391,187.726l-21.91,15.92c-2.01,1.46-3.5,3.52-4.27,5.88c-0.38,1.18-0.58,2.41-0.58,3.63
					c0,1.23,0.2,2.46,0.58,3.64l8.37,25.75l-21.91-15.91c-2.01-1.46-4.43-2.25-6.91-2.25c-2.49,0-4.91,0.79-6.92,2.25l-21.9,15.91
					l8.36-25.75c0.77-2.36,0.77-4.91,0-7.27c-0.76-2.36-2.26-4.42-4.27-5.88l-21.91-15.92h27.09c2.48,0,4.9-0.78,6.91-2.24
					s3.5-3.52,4.27-5.88l8.37-25.76l8.37,25.76c0.76,2.36,2.26,4.42,4.27,5.88s4.43,2.24,6.91,2.24H266.391z"/>
				<path style="fill:#BAA23E;" d="M282.401,192.166c0.6,3.49,0.92,7.06,0.92,10.72c0,17.8-7.36,33.9-19.19,45.45l-11.28-34.7
					L282.401,192.166z"/>
				<path style="fill:#BAA23E;" d="M276.731,174.726h-36.52l-11.29-34.74C249.921,143.026,267.631,156.386,276.731,174.726z"/>
				<path style="fill:#BAA23E;" d="M210.591,139.986l-11.29,34.74h-36.52C171.891,156.386,189.591,143.026,210.591,139.986z"/>
				<path style="fill:#BAA23E;" d="M186.661,213.636l-11.27,34.7c-11.84-11.55-19.2-27.65-19.2-45.45c0-3.66,0.33-7.23,0.92-10.72
					L186.661,213.636z"/>
				<path style="fill:#BAA23E;" d="M219.761,237.676l29.54,21.47c-8.84,4.65-18.88,7.3-29.54,7.3s-20.71-2.65-29.54-7.3
					L219.761,237.676z"/>
				<path style="fill:#EAC93F;" d="M353.181,230.526c10.88,23.83,10.83,49.92-0.13,73.48c-11,23.63-31.4,41.1-55.98,47.94
					l-0.12,0.03c-0.01,0-0.84,0.23-3.09,0.66c-27.14,5.3-52.71,17.16-74.29,34.39c-21.58-17.23-47.12-29.08-74.25-34.38
					c-2.3-0.44-3.13-0.67-3.15-0.67l-0.12-0.04c-24.57-6.83-44.97-24.3-55.97-47.93c-10.96-23.56-11-49.65-0.12-73.48l13.83-30.28
					c8.31-18.2,12.53-37.56,12.53-57.54c0-25.26-6.77-49.75-19.62-71.17l23.03-23.26c15.77,7.56,33.19,11.54,50.7,11.54
					c18.39,0,36.68-4.41,53.14-12.77c16.45,8.36,34.75,12.77,53.14,12.77c17.5,0,34.93-3.98,50.69-11.53l23.04,23.25
					c-12.86,21.42-19.62,45.92-19.62,71.18c0,19.99,4.21,39.35,12.51,57.53L353.181,230.526z M322.461,202.886
					c0-56.63-46.07-102.7-102.7-102.7s-102.7,46.07-102.7,102.7c0,56.62,46.07,102.69,102.7,102.69S322.461,259.506,322.461,202.886
					z"/>
				<path style="fill:#333333;" d="M393.991,64.136c2.5,2.52,2.52,6.57,0.04,9.11c-18.19,18.7-28.21,43.37-28.21,69.47
					c0,14.36,3.02,28.26,8.99,41.33l13.84,30.27c15.7,34.38,15.62,72.08-0.24,106.14c-15.82,33.99-45.3,59.16-80.88,69.06
					c-1.57,0.44-3.69,0.92-6.29,1.42c-30.02,5.86-57.25,22.05-76.66,45.58c-1.23,1.5-3.07,2.37-5.01,2.37s-3.78-0.87-5.02-2.37
					c-19.4-23.53-46.63-39.72-76.68-45.58c-2.59-0.5-4.72-0.98-6.3-1.43c-35.55-9.89-65.03-35.05-80.85-69.04
					c-15.85-34.07-15.94-71.77-0.24-106.14l13.83-30.28c5.98-13.08,9.01-26.99,9.01-41.34c0-26.11-10.02-50.77-28.22-69.46
					c-2.47-2.54-2.46-6.59,0.04-9.11l61.36-61.96c2.4-2.43,6.28-2.58,8.87-0.34c14.16,12.24,32.3,18.98,51.06,18.98
					c18.05,0,35.01-6,49.05-17.33c2.39-1.93,5.79-1.92,8.17,0c14.04,11.33,31,17.33,49.06,17.33c18.76,0,36.89-6.74,51.06-18.98
					c2.58-2.24,6.46-2.09,8.87,0.34L393.991,64.136z M380.391,68.876l-52.86-53.38c-15.74,11.85-34.98,18.32-54.82,18.32
					c-19.04,0-37.72-6.05-53.14-17.11c-15.42,11.06-34.1,17.11-53.14,17.11c-19.84,0-39.09-6.47-54.82-18.32l-52.87,53.38
					c17.83,20.48,27.58,46.46,27.58,73.83c0,16.23-3.43,31.95-10.18,46.74l-13.83,30.28c-14.1,30.86-14.03,64.69,0.2,95.25
					c14.21,30.54,40.66,53.14,72.57,62.01c0.87,0.25,2.46,0.65,5.26,1.18c30.51,5.96,58.36,21.59,79.23,44.32
					c20.87-22.73,48.72-38.36,79.2-44.31c2.82-0.55,4.41-0.94,5.25-1.18c0.01,0,0.02,0,0.03-0.01
					c31.91-8.87,58.36-31.47,72.57-62.01c14.23-30.57,14.3-64.39,0.2-95.25l-13.83-30.28c-6.75-14.77-10.17-30.49-10.17-46.73
					C352.821,115.346,362.561,89.366,380.391,68.876z"/>
				<path style="fill:#333333;" d="M365.001,225.126c12.49,27.35,12.43,57.31-0.16,84.36c-12.61,27.09-36.03,47.13-64.28,54.98
					l-0.09,0.03c-0.38,0.1-1.56,0.41-4.14,0.91c-26.72,5.21-51.81,17.32-72.55,35c-1.21,1.03-2.71,1.55-4.21,1.55
					s-3.01-0.52-4.22-1.55c-20.73-17.68-45.8-29.78-72.5-34.99c-2.63-0.51-3.82-0.82-4.21-0.93l-0.09-0.02
					c-28.23-7.85-51.65-27.89-64.25-54.97c-12.6-27.07-12.65-57.03-0.17-84.37l13.83-30.28c7.54-16.49,11.36-34.04,11.36-52.14
					c0-24.51-7.02-48.2-20.3-68.53c-1.68-2.56-1.34-5.95,0.82-8.13l29.98-30.27c2.02-2.04,5.14-2.52,7.67-1.17
					c15.01,7.99,31.93,12.21,48.94,12.21c17.39,0,34.68-4.44,50.02-12.82c1.94-1.06,4.29-1.06,6.24,0
					c15.33,8.38,32.63,12.82,50.02,12.82c17,0,33.93-4.22,48.93-12.21c2.53-1.34,5.65-0.87,7.67,1.17l29.99,30.27
					c2.15,2.18,2.49,5.57,0.82,8.13c-13.28,20.34-20.3,44.03-20.3,68.54c0,18.11,3.81,35.65,11.34,52.13L365.001,225.126z
					 M353.051,304.006c10.96-23.56,11.01-49.65,0.13-73.48l-13.85-30.28c-8.3-18.18-12.51-37.54-12.51-57.53
					c0-25.26,6.76-49.76,19.62-71.18l-23.04-23.25c-15.76,7.55-33.19,11.53-50.69,11.53c-18.39,0-36.69-4.41-53.14-12.77
					c-16.46,8.36-34.75,12.77-53.14,12.77c-17.51,0-34.93-3.98-50.7-11.54l-23.03,23.26c12.85,21.42,19.62,45.91,19.62,71.17
					c0,19.98-4.22,39.34-12.53,57.54l-13.83,30.28c-10.88,23.83-10.84,49.92,0.12,73.48c11,23.63,31.4,41.1,55.97,47.93l0.12,0.04
					c0.02,0,0.85,0.23,3.15,0.67c27.13,5.3,52.67,17.15,74.25,34.38c21.58-17.23,47.15-29.09,74.29-34.39
					c2.25-0.43,3.08-0.66,3.09-0.66l0.12-0.03C321.651,345.106,342.051,327.636,353.051,304.006z"/>
				<path style="fill:#333333;" d="M219.761,100.186c56.63,0,102.7,46.07,102.7,102.7c0,56.62-46.07,102.69-102.7,102.69
					s-102.7-46.07-102.7-102.69C117.061,146.256,163.131,100.186,219.761,100.186z M309.461,202.886c0-49.46-40.24-89.7-89.7-89.7
					s-89.7,40.24-89.7,89.7s40.24,89.69,89.7,89.69S309.461,252.346,309.461,202.886z"/>
				<path style="fill:#333333;" d="M219.761,126.316c42.22,0,76.56,34.35,76.56,76.57s-34.34,76.56-76.56,76.56
					s-76.57-34.34-76.57-76.56S177.541,126.316,219.761,126.316z M283.321,202.886c0-3.66-0.32-7.23-0.92-10.72l-29.55,21.47
					l11.28,34.7C275.961,236.786,283.321,220.686,283.321,202.886z M240.211,174.726h36.52c-9.1-18.34-26.81-31.7-47.81-34.74
					L240.211,174.726z M244.481,203.646l21.91-15.92h-27.08c-2.48,0-4.9-0.78-6.91-2.24s-3.51-3.52-4.27-5.88l-8.37-25.76
					l-8.37,25.76c-0.77,2.36-2.26,4.42-4.27,5.88s-4.43,2.24-6.91,2.24h-27.09l21.91,15.92c2.01,1.46,3.51,3.52,4.27,5.88
					c0.77,2.36,0.77,4.91,0,7.27l-8.36,25.75l21.9-15.91c2.01-1.46,4.43-2.25,6.92-2.25c2.48,0,4.9,0.79,6.91,2.25l21.91,15.91
					l-8.37-25.75c-0.38-1.18-0.58-2.41-0.58-3.64c0-1.22,0.2-2.45,0.58-3.63C240.981,207.166,242.471,205.106,244.481,203.646z
					 M249.301,259.146l-29.54-21.47l-29.54,21.47c8.83,4.65,18.88,7.3,29.54,7.3S240.461,263.796,249.301,259.146z M199.301,174.726
					l11.29-34.74c-21,3.04-38.7,16.4-47.81,34.74H199.301z M175.391,248.336l11.27-34.7l-29.55-21.47
					c-0.59,3.49-0.92,7.06-0.92,10.72C156.191,220.686,163.551,236.786,175.391,248.336z"/>
			</g>
			<g>
			</g>
		</g>
	</g>
	<g style="opacity:0.73;">
		<path style="fill:#FFFFFF;" d="M183.921,299.116l-22.42,57.53c-4.17-1.26-8.4-2.35-12.67-3.27l23.21-59.58
			C175.861,295.816,179.831,297.596,183.921,299.116z"/>
		<path style="fill:#FFFFFF;" d="M277.181,59.726l-18.71,48.04c-3.99-1.64-8.11-3.02-12.34-4.14l17.22-44.19
			c3.11,0.25,6.23,0.38,9.36,0.38C274.201,59.816,275.691,59.786,277.181,59.726z"/>
		<path style="fill:#FFFFFF;" d="M319.031,50.266l-29.96,76.9c-3.35-3.07-6.9-5.92-10.63-8.52l24.47-62.8
			C308.411,54.376,313.801,52.516,319.031,50.266z"/>
		<path style="fill:#FFFFFF;" d="M219.551,305.576l-25.21,64.73c-3.82-2.09-7.72-4.02-11.69-5.8l23.32-59.86
			C210.421,305.256,214.941,305.566,219.551,305.576z"/>
		<path style="fill:#FFFFFF;" d="M357.821,242.996l-38.69,99.31c-5.36,3.3-11.09,6.02-17.1,8.09l48.75-125.13l2.4,5.26
			C355.051,234.626,356.601,238.786,357.821,242.996z"/>
	</g>
</g>
<g>
</g>
<g>
</g>
<g>
</g>
<g>
</g>
<g>
</g>
<g>
</g>
<g>
</g>
<g>
</g>
<g>
</g>
<g>
</g>
<g>
</g>
<g>
</g>
<g>
</g>
<g>
</g>
<g>
</g>
</svg>
