<?xml version="1.0" encoding="iso-8859-1"?>
<!-- Generator: Adobe Illustrator 18.0.0, SVG Export Plug-In . SVG Version: 6.00 Build 0)  -->
<!DOCTYPE svg PUBLIC "-//W3C//DTD SVG 1.1//EN" "http://www.w3.org/Graphics/SVG/1.1/DTD/svg11.dtd">
<svg version="1.1" id="Capa_1" xmlns="http://www.w3.org/2000/svg" xmlns:xlink="http://www.w3.org/1999/xlink" x="0px" y="0px"
	 viewBox="0 0 116.991 116.991" style="enable-background:new 0 0 116.991 116.991;" xml:space="preserve">
<g>
	<path style="fill-rule:evenodd;clip-rule:evenodd;fill:#F9AF46;" d="M93.926,84.24l23.06,0.003v-12.56
		c-7.28,0.002-13.185-5.903-13.185-13.184c0.001-7.282,5.906-13.188,13.19-13.185V32.758l-23.065-0.002v4.117l1.379,0.001
		l-0.002,8.236h-1.377v3.432l1.377,0.003v8.236h-1.377v3.433h1.375l0.002,8.238l-1.377,0.001v3.429h1.373l-0.003,8.242h-1.371V84.24
		z M22.196,84.234l71.729,0.007v-4.117h-1.375l0.002-8.242h1.373v-3.429l-1.37,0.001v-8.24h1.37v-3.433h-1.37v-8.241l1.37,0.002
		v-3.432h-1.368l-0.002-8.239l1.37,0.001v-4.117L22.196,32.75v4.117l1.373,0.001l-0.001,8.238h-1.371v3.433h1.371v8.239h-1.371
		v3.431h1.371v8.237l-1.371,0.001v3.433h1.37l-0.001,8.239l-1.368-0.001V84.234z M13.188,58.491
		c-0.001,7.28-5.906,13.185-13.186,13.185L0,84.231l22.196,0.002v-4.117l-1.376-0.001l0.001-8.237h1.375v-3.433l-1.376,0.001v-8.238
		l1.376-0.001v-3.431H20.82l0.004-8.239h1.372v-3.433h-1.372v-8.239l1.372,0V32.75L0.005,32.748L0.002,45.305
		C7.283,45.305,13.188,51.209,13.188,58.491z"/>
	<path style="fill:#FFFFFF;" d="M54.422,73.422v-3.155c0.222,0,0.41-0.076,0.565-0.23c0.154-0.154,0.229-0.342,0.229-0.564v-3.152
		c0-0.222-0.076-0.41-0.229-0.563c-0.155-0.155-0.343-0.23-0.565-0.23v-3.154h0.011c1.088,0.007,2.015,0.392,2.779,1.156
		c0.764,0.764,1.151,1.694,1.159,2.782v3.185c-0.007,1.081-0.395,2.011-1.159,2.783c-0.765,0.764-1.691,1.144-2.779,1.144H54.422
		L54.422,73.422z M54.422,53.987v-4.555h1.346v1.601c-0.008,1.088-0.398,2.019-1.171,2.79C54.539,53.88,54.481,53.934,54.422,53.987
		L54.422,53.987z M54.422,44.031v-4.555c0.059,0.053,0.117,0.108,0.175,0.165c0.773,0.772,1.163,1.702,1.171,2.79v1.6H54.422
		L54.422,44.031z M64.547,50.679L64.547,50.679c-0.135-0.934-0.546-1.766-1.238-2.493c0.561-0.669,0.9-1.412,1.016-2.228
		l1.005-7.135h-3.166l-1.005,7.123c-0.03,0.215-0.131,0.4-0.309,0.553c-0.177,0.155-0.373,0.23-0.594,0.23h-0.452v-7.906h-3.166
		v15.827h3.166v-4.755h0.681c0.215,0,0.411,0.079,0.587,0.234c0.178,0.154,0.279,0.343,0.309,0.562l0.022,0.143l0.539,3.817h3.166
		l-0.549-3.893L64.547,50.679L64.547,50.679z M73.04,41.99v-3.167h-6.961v15.827h6.961v-3.166h-3.794v-1.589h3.166V46.73h-3.166
		v-4.74H73.04L73.04,41.99z M81.662,38.835h-7.895v3.167h2.35V54.64h3.155V42.001h2.391V38.835L81.662,38.835z M66.213,65.527
		v-3.166h-6.961v15.827h6.961v-3.166h-3.794v-1.589h3.166v-3.166h-3.166v-4.74H66.213L66.213,65.527z M72.022,62.373v3.783
		l-1.589-3.708v-0.075h-3.155v15.793h3.155V68.89l1.589,3.708v5.567h3.155V62.373H72.022z M54.422,39.476v4.555h-1.82v-1.589
		c0-0.214-0.079-0.398-0.233-0.553c-0.155-0.154-0.338-0.229-0.549-0.229c-0.222,0-0.411,0.075-0.565,0.229
		c-0.155,0.155-0.229,0.339-0.229,0.553v8.569c0,0.223,0.074,0.411,0.229,0.564c0.154,0.155,0.343,0.23,0.565,0.23
		c0.211,0,0.395-0.075,0.549-0.23c0.154-0.154,0.233-0.342,0.233-0.564v-1.578h1.82v4.555c-0.735,0.655-1.603,0.984-2.603,0.984
		c-1.088,0-2.018-0.383-2.79-1.148c-0.775-0.765-1.163-1.687-1.171-2.767l0,0v-8.648l0,0c0.008-1.08,0.396-2.003,1.171-2.767
		c0.772-0.768,1.702-1.148,2.79-1.148C52.819,38.493,53.687,38.818,54.422,39.476L54.422,39.476z M54.422,62.373v3.154l0,0h-0.794
		v4.74h0.794l0,0v3.155h-0.794v4.744h-3.155V62.373H54.422L54.422,62.373z M45.454,78.497v-3.155h0c0.222,0,0.406-0.076,0.56-0.229
		c0.154-0.154,0.234-0.342,0.234-0.564V65.99c-0.008-0.222-0.087-0.41-0.234-0.564c-0.154-0.154-0.338-0.23-0.56-0.23h0v-3.155h0
		c1.087,0,2.014,0.38,2.778,1.149c0.772,0.764,1.163,1.69,1.17,2.778v8.603c-0.008,1.088-0.398,2.014-1.17,2.778
		C47.468,78.113,46.542,78.497,45.454,78.497L45.454,78.497L45.454,78.497z M45.454,54.651V38.824h1.255v15.827H45.454z
		 M43.224,38.835h-7.895v3.167h2.349V54.64h3.155V42.001h2.391V38.835L43.224,38.835z M45.454,38.824v15.827h-1.91V38.824H45.454
		L45.454,38.824z M45.454,62.041v3.155c-0.223,0-0.407,0.076-0.562,0.23c-0.154,0.154-0.233,0.342-0.233,0.564v8.558
		c0,0.222,0.079,0.41,0.233,0.564c0.155,0.154,0.339,0.229,0.562,0.229v3.155c-1.081,0-2.007-0.384-2.778-1.148
		c-0.772-0.757-1.164-1.675-1.171-2.755v-8.637c0.007-1.088,0.399-2.011,1.171-2.767C43.447,62.421,44.373,62.041,45.454,62.041z"/>
</g>
<g>
</g>
<g>
</g>
<g>
</g>
<g>
</g>
<g>
</g>
<g>
</g>
<g>
</g>
<g>
</g>
<g>
</g>
<g>
</g>
<g>
</g>
<g>
</g>
<g>
</g>
<g>
</g>
<g>
</g>
</svg>
