<?xml version="1.0" encoding="iso-8859-1"?>
<!-- Generator: Adobe Illustrator 19.0.0, SVG Export Plug-In . SVG Version: 6.00 Build 0)  -->
<svg version="1.1" id="Capa_1" xmlns="http://www.w3.org/2000/svg" xmlns:xlink="http://www.w3.org/1999/xlink" x="0px" y="0px"
	 viewBox="0 0 345.576 345.576" style="enable-background:new 0 0 345.576 345.576;" xml:space="preserve">
<g>
	<g>
		<g>
			<path style="fill:#4F3124;" d="M94.087,186.886c0,0-43.815,37.372-43.815,63.945c0,36.179,25.569,74.817,40.311,81.27h56.851
				V198.378L94.087,186.886z"/>
			<path style="fill:#4F3124;" d="M251.489,186.886c0,0,43.815,37.372,43.815,63.945c0,36.179-25.569,74.817-40.311,81.27h-56.851
				V198.378L251.489,186.886z"/>
		</g>
		<g>
			<g>
				<path style="fill:#946B50;" d="M127.155,341.213c0.059-0.623,0.092-1.253,0.092-1.892v-5.201
					c0-10.967-8.891-19.857-19.858-19.857H88.005c-10.967,0-19.858,8.891-19.858,19.857v5.201c0,0.639,0.033,1.269,0.092,1.892
					H127.155z"/>
				<path style="fill:#A3785A;" d="M117.957,332.1H70.203c-3.134,0-5.674,2.54-5.674,5.674v0.663v1.438v5.7h6.82v-0.026h45.461
					v0.026h6.82v-5.7v-1.438v-0.663C123.631,334.64,121.091,332.1,117.957,332.1z"/>
				<g>
					<path style="fill:#694D39;" d="M67.164,345.55v-5.46c0-1.561-1.265-2.825-2.826-2.825c-1.561,0-2.826,1.265-2.826,2.825v5.46
						H67.164z"/>
				</g>
			</g>
			<g>
				<path style="fill:#946B50;" d="M218.42,341.213c-0.06-0.623-0.092-1.253-0.092-1.892v-5.201
					c0-10.967,8.891-19.857,19.857-19.857h19.386c10.967,0,19.857,8.891,19.857,19.857v5.201c0,0.639-0.033,1.269-0.092,1.892
					H218.42z"/>
				<path style="fill:#A3785A;" d="M227.618,332.1h47.754c3.134,0,5.674,2.54,5.674,5.674v0.663v1.438v5.7h-6.82v-0.026h-45.461
					v0.026h-6.82v-5.7v-1.438v-0.663C221.945,334.64,224.485,332.1,227.618,332.1z"/>
				<path style="fill:#946B50;" d="M218.42,341.213c-0.06-0.623-0.092-1.253-0.092-1.892v-5.201
					c0-10.967,8.891-19.857,19.857-19.857h19.386c10.967,0,19.857,8.891,19.857,19.857v5.201c0,0.639-0.033,1.269-0.092,1.892
					H218.42z"/>
				<path style="fill:#A3785A;" d="M227.618,332.1h47.754c3.134,0,5.674,2.54,5.674,5.674v0.663v1.438v5.7h-6.82v-0.026h-45.461
					v0.026h-6.82v-5.7v-1.438v-0.663C221.945,334.64,224.485,332.1,227.618,332.1z"/>
				<g>
					<path style="fill:#694D39;" d="M278.411,345.55v-5.46c0-1.561,1.266-2.825,2.826-2.825c1.561,0,2.826,1.265,2.826,2.825v5.46
						H278.411z"/>
				</g>
			</g>
		</g>
		<g>
			<g>
				<path style="fill:#8F684E;" d="M204.192,341.238c0.059-0.623,0.092-1.253,0.092-1.891v-5.201
					c0-10.968-8.891-19.858-19.858-19.858H165.04c-10.967,0-19.858,8.891-19.858,19.858v5.201c0,0.638,0.033,1.268,0.092,1.891
					H204.192z"/>
				<path style="fill:#A17658;" d="M200.394,339.902c0,3.133-2.541,5.674-5.674,5.674h-47.754c-3.134,0-5.674-2.541-5.674-5.674
					V337.8c0-3.133,2.54-5.673,5.674-5.673h47.754c3.133,0,5.674,2.54,5.674,5.673V339.902z"/>
			</g>
			<path style="fill:#694D39;" d="M146.944,345.381v-5.459c0-1.56-1.265-2.826-2.826-2.826c-1.561,0-2.826,1.266-2.826,2.826v5.459
				H146.944z"/>
		</g>
		<g>
			<g>
				<path style="fill:#8F684E;" d="M141.384,341.238c-0.059-0.623-0.092-1.253-0.092-1.891v-5.201
					c0-10.968,8.891-19.858,19.858-19.858h19.385c10.968,0,19.858,8.891,19.858,19.858v5.201c0,0.638-0.033,1.268-0.093,1.891
					H141.384z"/>
				<path style="fill:#A17658;" d="M145.182,339.902c0,3.133,2.54,5.674,5.673,5.674h47.754c3.134,0,5.674-2.541,5.674-5.674V337.8
					c0-3.133-2.54-5.673-5.674-5.673h-47.754c-3.133,0-5.673,2.54-5.673,5.673V339.902z"/>
			</g>
			<path style="fill:#694D39;" d="M198.632,345.381v-5.459c0-1.56,1.265-2.826,2.825-2.826c1.561,0,2.826,1.266,2.826,2.826v5.459
				H198.632z"/>
		</g>
		<g>
			<g>
				
					<ellipse transform="matrix(0.9153 -0.4028 0.4028 0.9153 4.9472 53.8769)" style="fill:#613C2C;" cx="130.569" cy="15.176" rx="16.776" ry="14.842"/>
				
					<ellipse transform="matrix(0.9153 -0.4028 0.4028 0.9153 4.9468 53.8755)" style="fill:#785136;" cx="130.569" cy="15.176" rx="11.024" ry="9.754"/>
			</g>
			<g>
				
					<ellipse transform="matrix(0.4028 -0.9153 0.9153 0.4028 114.5118 205.8567)" style="fill:#613C2C;" cx="215.007" cy="15.176" rx="14.843" ry="16.776"/>
				
					<ellipse transform="matrix(0.4028 -0.9153 0.9153 0.4028 114.5136 205.8577)" style="fill:#785136;" cx="215.007" cy="15.176" rx="9.754" ry="11.025"/>
			</g>
		</g>
		<path style="fill:#613C2C;" d="M261.93,219.833c0,87.986-39.91,125.717-89.142,125.717c-49.232,0-89.142-37.73-89.142-125.717
			c0-87.986,39.91-206.092,89.142-206.092C222.02,13.74,261.93,131.846,261.93,219.833z"/>
		<path style="opacity:0.8;fill:#784D2F;" d="M229.866,102.663c0-47.768-25.555-68.252-57.079-68.252s-57.079,20.483-57.079,68.252
			c0,47.768,45.733,111.887,57.079,111.887C184.134,214.55,229.866,150.43,229.866,102.663z"/>
		<path style="fill:#4F3124;" d="M172.788,12.661c-25.462,0-62.24,13.75-62.24,34.856c0,21.104,33.39,62.996,62.24,62.996
			c28.849,0,62.24-41.892,62.24-62.996C235.028,26.411,198.249,12.661,172.788,12.661z"/>
		<path style="fill:#856148;" d="M187.953,92.768c0,16.083-6.79,22.979-15.166,22.979s-15.165-6.896-15.165-22.979
			s6.789-37.671,15.165-37.671S187.953,76.685,187.953,92.768z"/>
		<path style="fill:#A17558;" d="M184.061,93.878c0.126-1.312,0.2-2.703,0.2-4.205c0-13.264-5.137-31.066-11.473-31.066
			s-11.473,17.803-11.473,31.066c0,1.502,0.075,2.894,0.201,4.205H184.061z"/>
		<g>
			<path style="fill:#332A24;" d="M172.788,89.467c-7.988,0-11.698,3.614-11.698,3.614s7.911,10.855,11.698,11.045
				c3.787-0.189,11.698-11.045,11.698-11.045S180.777,89.467,172.788,89.467z"/>
			<path style="fill:#424140;" d="M172.788,91.29c6.868,0,10.644,1.354,11.694,1.796l0.004-0.005c0,0-3.709-3.614-11.698-3.614
				c-7.988,0-11.698,3.614-11.698,3.614l0.003,0.005C162.144,92.643,165.92,91.29,172.788,91.29z"/>
		</g>
		<g>
			<g>
				<path style="fill:#A6795A;" d="M168.298,341.213c0.059-0.623,0.092-1.253,0.092-1.892v-5.201
					c0-10.967-8.891-19.857-19.858-19.857h-19.385c-10.967,0-19.858,8.891-19.858,19.857v5.201c0,0.639,0.033,1.269,0.092,1.892
					H168.298z"/>
				<path style="fill:#B88764;" d="M162.716,332.1h-47.753c-3.134,0-5.674,2.54-5.674,5.674v0.663v1.438v5.7h6.82v-0.026h45.461
					v0.026h6.82v-5.7v-1.438v-0.663C168.389,334.64,165.849,332.1,162.716,332.1z"/>
				<g>
					<path style="fill:#694D39;" d="M122.776,345.55v-5.46c0-1.561-1.265-2.825-2.826-2.825c-1.561,0-2.826,1.265-2.826,2.825v5.46
						H122.776z"/>
					<path style="fill:#694D39;" d="M135.368,345.55v-5.46c0-1.561-1.265-2.825-2.826-2.825c-1.561,0-2.826,1.265-2.826,2.825v5.46
						H135.368z"/>
					<path style="fill:#694D39;" d="M147.961,345.55v-5.46c0-1.561-1.265-2.825-2.826-2.825c-1.561,0-2.826,1.265-2.826,2.825v5.46
						H147.961z"/>
					<path style="fill:#694D39;" d="M160.554,345.55v-5.46c0-1.561-1.265-2.825-2.826-2.825c-1.561,0-2.826,1.265-2.826,2.825v5.46
						H160.554z"/>
				</g>
			</g>
			<g>
				<path style="fill:#A17558;" d="M236.195,341.213c0.059-0.623,0.092-1.253,0.092-1.892v-5.201
					c0-10.967-8.891-19.857-19.858-19.857h-19.385c-10.967,0-19.858,8.891-19.858,19.857v5.201c0,0.639,0.033,1.269,0.093,1.892
					H236.195z"/>
				<path style="fill:#B88764;" d="M230.613,332.1H182.86c-3.133,0-5.674,2.54-5.674,5.674v0.663v1.438v5.7h6.82v-0.026h45.461
					v0.026h6.82v-5.7v-1.438v-0.663C236.287,334.64,233.747,332.1,230.613,332.1z"/>
				<g>
					<path style="fill:#694D39;" d="M190.674,345.55v-5.46c0-1.561-1.266-2.825-2.826-2.825c-1.561,0-2.826,1.265-2.826,2.825v5.46
						H190.674z"/>
					<path style="fill:#694D39;" d="M203.267,345.55v-5.46c0-1.561-1.266-2.825-2.826-2.825c-1.561,0-2.826,1.265-2.826,2.825v5.46
						H203.267z"/>
					<path style="fill:#694D39;" d="M215.859,345.55v-5.46c0-1.561-1.265-2.825-2.825-2.825c-1.561,0-2.826,1.265-2.826,2.825v5.46
						H215.859z"/>
					<path style="fill:#694D39;" d="M228.451,345.55v-5.46c0-1.561-1.265-2.825-2.825-2.825c-1.561,0-2.826,1.265-2.826,2.825v5.46
						H228.451z"/>
				</g>
			</g>
		</g>
		<g>
			<g>
				
					<ellipse transform="matrix(0.9099 -0.4147 0.4147 0.9099 -9.9485 65.7568)" style="fill:#332A24;" cx="146.435" cy="55.785" rx="7.223" ry="11.436"/>
				<g>
					<circle style="fill:#63412A;" cx="146.002" cy="55.881" r="4.538"/>
					<circle style="fill:#AD723F;" cx="144.635" cy="54.466" r="1.827"/>
				</g>
			</g>
			<g>
				
					<ellipse transform="matrix(-0.9099 -0.4147 0.4147 -0.9099 357.2097 189.1393)" style="fill:#332A24;" cx="199.141" cy="55.785" rx="7.223" ry="11.435"/>
				<g>
					<circle style="fill:#63412A;" cx="199.573" cy="55.881" r="4.538"/>
					<circle style="fill:#AD723F;" cx="198.206" cy="54.466" r="1.827"/>
				</g>
			</g>
		</g>
	</g>
	<path style="opacity:0.1;fill:#FFCE99;" d="M172.788,12.661c-8.053,0-17.238,1.377-26.034,3.926
		c0.544-2.721,0.325-5.541-0.831-8.168c-3.302-7.503-12.853-10.56-21.333-6.828c-8.48,3.732-12.678,12.839-9.376,20.342
		c1.31,2.978,3.614,5.241,6.436,6.672c-6.749,5.26-11.102,11.65-11.102,18.912c0,5.591,2.344,12.642,6.326,19.985
		c-17.097,35.669-28.995,83.893-32.295,128.217c-12.886,12.672-34.308,36.53-34.308,55.111c0,25.417,12.62,52.031,25.239,67.863
		c-4.086,3.313-6.819,8.215-7.28,13.766c-2.013,0.748-3.486,2.602-3.676,4.826c-0.072-0.006-0.142-0.022-0.216-0.022
		c-1.561,0-2.826,1.265-2.826,2.825v5.46h3.018v0.026h6.82v-0.026h37.938v0.026h6.82v-0.026h0.703v0.026h6.82v-0.026h6.085h5.652
		h6.941h4.146c0.169,0.015,0.338,0.026,0.511,0.026h3.89h21.932V12.661z"/>
</g>
<g>
</g>
<g>
</g>
<g>
</g>
<g>
</g>
<g>
</g>
<g>
</g>
<g>
</g>
<g>
</g>
<g>
</g>
<g>
</g>
<g>
</g>
<g>
</g>
<g>
</g>
<g>
</g>
<g>
</g>
</svg>
